SplineFontDB: 3.0
FontName: N-Clefs
FullName: 
FamilyName: N
Weight: 
Copyright: 
UComments: "2011-5-24: Created." 
Version: 0
ItalicAngle: 0
UnderlinePosition: -100
UnderlineWidth: 50
Ascent: 800
Descent: 200
sfntRevision: 0x00000000
LayerCount: 3
Layer: 0 0 "Back"  1
Layer: 1 0 "Zeichenebene"  0
Layer: 2 0 "Struktur 1"  1
XUID: [1021 201 23757 16427]
FSType: 0
OS2Version: 0
OS2_WeightWidthSlopeOnly: 0
OS2_UseTypoMetrics: 1
CreationTime: 1306259327
ModificationTime: 1409118227
OS2TypoAscent: 0
OS2TypoAOffset: 1
OS2TypoDescent: 0
OS2TypoDOffset: 1
OS2TypoLinegap: 90
OS2WinAscent: 0
OS2WinAOffset: 1
OS2WinDescent: 0
OS2WinDOffset: 1
HheadAscent: 0
HheadAOffset: 1
HheadDescent: 0
HheadDOffset: 1
OS2Vendor: 'PfEd'
MarkAttachClasses: 1
DEI: 91125
Encoding: UnicodeBmp
UnicodeInterp: none
NameList: Adobe Glyph List
DisplaySize: -72
AntiAlias: 1
FitToEm: 1
WinInfo: 400 8 7
BeginPrivate: 0
EndPrivate
BeginChars: 65536 274

StartChar: zero
Encoding: 48 48 0
Width: 547
VWidth: 0
Flags: HMW
LayerCount: 3
Fore
SplineSet
188 -28 m 3
 188 -58 215 -93 242 -110 c 0
 258 -120 254 -146 221 -131 c 0
 183 -113 139 -55 139 10 c 3
 139 98 184 154 215 182 c 0
 234 199 259 207 252 235 c 10
 242 276 l 2
 233 310 202 285 181 263 c 0
 141 218 69 143 69 12 c 3
 69 -109 170 -187 279 -187 c 3
 337 -187 353 -170 341 -124 c 10
 298 51 l 18
 290 80 274 88 246 76 c 0
 216 64 188 33 188 -28 c 3
350 100 m 3
 324 100 323 85 327 68 c 10
 374 -120 l 18
 383 -154 392 -151 404 -151 c 3
 433 -151 477 -112 477 -28 c 3
 477 23 438 100 350 100 c 3
291 835 m 3
 266 835 217 763 203 680 c 0
 195 634 198 586 208 547 c 0
 218 506 226 475 265 525 c 0
 296 563 336 641 336 718 c 3
 336 752 319 835 291 835 c 3
291 934 m 0
 326 883 381 783 381 622 c 3
 381 483 311 417 278 379 c 0
 264 363 258 346 267 311 c 10
 282 249 l 18
 288 225 311 223 326 223 c 3
 415 223 547 172 547 10 c 3
 547 -102 471 -165 429 -186 c 0
 398 -202 396 -206 404 -239 c 10
 423 -317 l 18
 431 -348 436 -375 436 -403 c 3
 436 -513 375 -569 293 -569 c 3
 214 -569 143 -511 143 -432 c 27
 143 -378 178 -334 239 -334 c 3
 289 -334 327 -378 327 -428 c 3
 327 -514 262 -495 262 -521 c 3
 262 -535 279 -537 293 -537 c 3
 367 -537 403 -474 403 -403 c 3
 403 -384 398 -352 393 -332 c 10
 371 -245 l 18
 366 -223 354 -219 338 -219 c 0
 323 -219 303 -223 279 -223 c 3
 111 -223 0 -86 0 76 c 3
 0 236 115 358 169 424 c 0
 201 463 195 465 183 512 c 2
 165 584 l 2
 155 624 149 674 149 714 c 3
 149 797 193 885 228 931 c 0
 258 970 263 973 291 934 c 0
EndSplineSet
EndChar

StartChar: one
Encoding: 49 49 1
Width: 543
VWidth: 0
Flags: HMW
LayerCount: 3
Fore
SplineSet
66 15 m 0
 66 -103 164 -184 278 -184 c 0
 316 -184 333 -174 333 -147 c 0
 333 -141 332 -133 330 -125 c 10
 297 52 l 18
 293 73 283 84 266 84 c 0
 260 84 254 83 246 80 c 0
 216 70 183 38 183 -24 c 0
 183 -54 207 -88 232 -105 c 0
 237 -109 240 -115 240 -120 c 0
 240 -126 236 -131 228 -131 c 0
 224 -131 218 -129 210 -125 c 0
 174 -106 136 -49 136 13 c 0
 136 104 190 163 221 188 c 0
 239 202 261 209 261 231 c 0
 261 233 261 236 260 239 c 10
 253 280 l 2
 250 293 244 297 237 297 c 0
 223 297 205 283 191 270 c 0
 149 227 66 151 66 15 c 0
394 -155 m 0
 423 -155 471 -114 471 -30 c 0
 471 21 436 94 351 99 c 0
 349 99 l 0
 331 99 326 91 326 79 c 0
 326 76 326 72 327 68 c 10
 364 -122 l 18
 371 -156 380 -155 394 -155 c 0
227 613 m 0
 227 582 234 504 256 504 c 0
 264 504 274 511 289 528 c 0
 322 564 370 644 370 724 c 0
 370 762 357 835 331 836 c 2
 330 836 l 2
 305 836 253 767 235 686 c 0
 230 662 227 637 227 613 c 0
268 -534 m 0
 339 -534 378 -471 378 -398 c 0
 378 -379 375 -352 372 -335 c 10
 354 -247 l 18
 350 -222 337 -219 316 -219 c 0
 304 -219 290 -220 273 -220 c 0
 270 -220 267 -220 263 -220 c 0
 101 -211 0 -79 0 75 c 0
 0 246 128 367 187 432 c 0
 207 454 213 463 213 477 c 0
 213 487 210 499 206 519 c 2
 192 592 l 2
 186 624 182 662 182 697 c 0
 182 796 230 884 273 935 c 0
 289 954 299 964 307 964 c 0
 316 964 323 955 336 935 c 0
 366 886 410 794 410 653 c 0
 410 641 410 630 409 618 c 0
 402 479 329 417 294 381 c 0
 283 370 276 358 276 338 c 0
 276 331 277 323 279 314 c 10
 291 251 l 18
 296 227 319 224 334 223 c 0
 420 218 543 164 543 13 c 0
 543 -106 460 -171 415 -191 c 0
 392 -201 384 -207 384 -221 c 0
 384 -227 385 -234 387 -243 c 10
 402 -322 l 18
 407 -350 411 -374 411 -399 c 0
 411 -510 346 -566 268 -566 c 0
 185 -566 117 -507 117 -429 c 0
 117 -372 153 -329 212 -329 c 0
 264 -329 301 -372 301 -421 c 0
 301 -511 231 -491 231 -518 c 0
 231 -533 252 -534 268 -534 c 0
EndSplineSet
EndChar

StartChar: two
Encoding: 50 50 2
Width: 1000
VWidth: 0
Flags: HM
LayerCount: 3
Back
SplineSet
212 249 m 7xb3
 320 249 398 184 398 103 c 7
 398 -18 204 -32 146 -68 c 4
 127 -79 111 -94 111 -109 c 7
 111 -114 115 -116 122 -116 c 4x79
 131 -116 144 -113 158 -113 c 4
 160 -113 163 -113 166 -113 c 4
 228 -121 237 -148 283 -148 c 7
 332 -148 349 -126 360 -104 c 4
 369 -88 368 -71 379 -71 c 7
 390 -71 390 -74 390 -96 c 6
 390 -98 l 6
 390 -150 337 -248 268 -248 c 7xb880
 186 -248 187 -178 112 -178 c 7
 66 -178 45 -202 35 -228 c 4x7480
 28 -246 25 -248 16 -248 c 6
 12 -248 10 -247 10 -221 c 4xb8
 10 -139 94 -52 169 -9 c 4
 245 35 280 53 280 114 c 7
 280 172 258 220 179 220 c 7
 149 220 104 210 104 178 c 7
 104 143 163 151 163 89 c 7
 163 58 140 26 99 26 c 7
 38 26 22 66 22 103 c 7
 22 184 93 249 212 249 c 7xb3
EndSplineSet
EndChar

StartChar: three
Encoding: 51 51 3
Width: 1000
VWidth: 1054
Flags: HM
LayerCount: 3
Back
SplineSet
487 843 m 7xfb
 520 843 550 721 550 627 c 4
 550 447 444 369 338 293 c 5
 342 184 l 5xf288
 346 184 350 184 354 184 c 4
 474 184 543 91 543 -2 c 4
 543 -137 462 -212 355 -232 c 5
 355 -242 356 -249 356 -259 c 4
 356 -391 314 -483 202 -483 c 4
 123 -483 58 -435 58 -365 c 4
 58 -320 88 -279 133 -279 c 4
 174 -279 205 -301 205 -355 c 4
 205 -412 159 -412 159 -435 c 4
 159 -448 180 -452 202 -452 c 4
 285 -452 323 -375 323 -258 c 4xf630
 323 -250 322 -244 322 -235 c 5
 321 -235 320 -235 318 -235 c 4
 171 -235 34 -130 34 17 c 4
 34 217 172 311 301 399 c 5
 298 481 l 6
 290 721 452 843 487 843 c 7xfb
334 421 m 5xf308
 435 491 514 560 514 683 c 4
 514 720 506 740 478 740 c 4
 386 740 327 613 331 501 c 6
 334 421 l 5xf308
309 179 m 5xf280
 306 270 l 5
 195 192 87 116 87 0 c 4
 87 -120 193 -203 313 -203 c 4
 316 -203 319 -203 322 -203 c 5
 322 -196 322 -194 322 -186 c 5
 313 62 l 5xfa40
 251 56 205 21 205 -41 c 4
 205 -69 212 -81 213 -98 c 4
 213 -116 203 -117 193 -104 c 4
 178 -85 166 -41 166 -12 c 4
 166 73 203 146 309 179 c 5xf280
346 62 m 5
 354 -168 l 6
 355 -180 355 -189 355 -200 c 5
 422 -185 476 -136 476 -66 c 4xf250
 476 4 424 60 346 62 c 5
EndSplineSet
EndChar

StartChar: four
Encoding: 52 52 4
Width: 516
VWidth: 1054
Flags: W
HStem: -453 31<125.256 222.233> 770 103<411.132 475.492>
VStem: 0 53<-47.0859 114.996> 24 101<-411.5 -312.5> 137 34<-63.5922 45.3111> 264 33<473.913 641.078> 274 32<218.623 282.183> 287 26<-130 77.9236> 289 33<-337.54 -209.125 -160.211 9.22222> 442 67<-79.4213 35.937> 480 36<621.367 764.027>
LayerCount: 3
Back
SplineSet
215 74 m 2xa0
 215 83 215 91 215 97 c 0xa0
 215 124 212 126 182 126 c 0
 177 126 172 126 166 126 c 3
 141 126 70 125 21 125 c 3
 11 125 10 136 10 141 c 3
 10 143 l 0
 10 152 11 159 30 189 c 0
 78 264 118 320 137 417 c 0
 153 493 156 490 173 492 c 0
 194 493 242 493 272 493 c 2
 276 493 l 2
 295 493 313 491.5 313 477.5 c 3
 313 450.458 278 405 189 317 c 0
 113 242 74 201 74 182 c 3
 74 170 78 168 112 168 c 0
 121 168 132 168 146 168 c 3
 155 168 164 168 171 168 c 0
 198 168 213 170 214 182 c 0
 215 192 215 242 216 259 c 0xc0
 217 277 215 300 229 309 c 0
 301 354 306 362 318 362 c 3
 328 362 331 356 331 337 c 0
 331 313 327 269 327 188 c 3
 327 172 333 170 347 170 c 3
 360 170 376 170 389 170 c 3
 416 170 419 164 419 149 c 3
 419 146 419 144 419 141 c 0
 419 129 416 125 379 125 c 3
 372 125 366 125 361 125 c 0
 334 125 327 122 327 80 c 3
 327 77 327 74 327 72 c 0
 327 35.5 329 36 374 33 c 0
 390 32 391 26 391 19 c 0
 391 0.103516 385.195 0 358 0 c 3
 327 0 286 1 268 1 c 3
 238 1 218 0 188 0 c 3
 155 0 152 1 152 16 c 3
 152 26 154 32 170 33 c 0
 210 36 215 28 215 67 c 2
 215 74 l 2xa0
EndSplineSet
Fore
SplineSet
453 873 m 3xec
 486 873 516 751 516 657 c 0
 516 502 438 423 348 356 c 0
 320 335 304 322 305 283 c 2
 306 263 l 2xca20
 308 222 312 217 348 212 c 0
 451 199 509 113 509 28 c 0
 509 -93 444 -165 354 -194 c 0
 329 -202 323 -210 322 -243 c 0
 319 -367 276 -453 168 -453 c 0
 89 -453 24 -405 24 -335 c 0
 24 -290 54 -249 99 -249 c 0
 140 -249 171 -271 171 -325 c 0
 171 -382 125 -382 125 -405 c 0
 125 -418 146 -422 168 -422 c 0
 247 -422 285 -353 289 -246 c 0xd8c0
 290 -216 279 -206 249 -203 c 0
 116 -188 0 -88 0 47 c 0
 0 221 104 314 216 394 c 0
 262 425 266 451 264 511 c 0
 255 751 418 873 453 873 c 3xec
353 490 m 0
 427 548 480 612 480 713 c 0
 480 750 472 770 444 770 c 0
 352 770 293 643 297 531 c 0xcc20
 299 471 309 456 353 490 c 0
274 254 m 0xca
 272 297 253 286 221 264 c 0
 130 197 53 128 53 30 c 0
 53 -82 145 -161 254 -172 c 0
 284 -175 288 -155 287 -136 c 2xe9
 281 46 l 2
 279 81 271 95 238 83 c 0
 198 68 171 36 171 -11 c 0
 171 -39 178 -51 180 -68 c 0
 182 -84 170 -87 160 -74 c 0
 145 -55 137 -6 137 23 c 0
 137 93 164 154 225 188 c 0
 259 207 275 205 274 254 c 0xca
313 49 m 2
 320 -130 l 2
 321 -156 334 -169 361 -156 c 0
 408 -133 442 -91 442 -36 c 0xc940
 442 19 410 66 358 84 c 0
 327 95 312 87 313 49 c 2
EndSplineSet
EndChar

StartChar: five
Encoding: 53 53 5
Width: 1000
VWidth: 1024
Flags: HMW
LayerCount: 3
Back
SplineSet
68 251 m 7xd3
 98 251 123 238 224 238 c 7xe3
 267 238 302 251 320 251 c 7xd3
 326 251 329 249 329 244 c 7
 329 237 319 221 302 196 c 4
 276 160 239 144 194 144 c 7xe3
 170 144 136 162 92 162 c 7
 72 162 69 152 68 127 c 4xd3
 66 91 64 71 64 59 c 4
 64 45 67 45 72 45 c 4
 73 45 l 7
 96 45 114 76 199 76 c 7
 289 76 360 20 360 -88 c 7
 360 -160 293 -246 160 -246 c 7
 86 -246 10 -208 10 -126 c 7
 10 -86 32 -51 80 -51 c 7
 132 -51 144 -83 144 -118 c 7
 144 -173 94 -148 94 -188 c 7xd9
 94 -214 136 -216 159 -216 c 7
 233 -216 239 -132 239 -78 c 7
 239 -8 212 28 150 28 c 7
 91 28 71 11 59 -12 c 4
 52 -26 44 -25 33 -25 c 7
 27 -25 22 -19 22 -3 c 7xd5
 22 19 31 84 31 197 c 4
 31 207 31 218 31 229 c 4
 31 249 45 251 68 251 c 7xd3
EndSplineSet
Fore
SplineSet
487 843 m 3
 520 843 550 721 550 627 c 0
 550 447 444 369 338 293 c 1
 342 184 l 1
 346 184 350 184 354 184 c 0
 474 184 543 91 543 -2 c 0
 543 -137 462 -212 355 -232 c 1
 355 -242 356 -249 356 -259 c 0
 356 -391 314 -483 202 -483 c 0
 123 -483 58 -435 58 -365 c 0
 58 -320 88 -279 133 -279 c 0
 174 -279 205 -301 205 -355 c 0
 205 -412 159 -412 159 -435 c 0
 159 -448 180 -452 202 -452 c 0
 285 -452 323 -375 323 -258 c 0
 323 -250 322 -244 322 -235 c 1
 321 -235 320 -235 318 -235 c 0
 171 -235 34 -130 34 17 c 0
 34 217 172 311 301 399 c 1
 298 481 l 2
 290 721 452 843 487 843 c 3
334 421 m 1
 435 491 514 560 514 683 c 0
 514 720 506 740 478 740 c 0
 386 740 327 613 331 501 c 2
 334 421 l 1
309 179 m 1
 306 270 l 1
 195 192 87 116 87 0 c 0
 87 -120 193 -203 313 -203 c 0
 316 -203 319 -203 322 -203 c 1
 322 -196 322 -194 322 -186 c 1
 313 62 l 1
 251 56 205 21 205 -41 c 0
 205 -69 212 -81 213 -98 c 0
 213 -116 203 -117 193 -104 c 0
 178 -85 166 -41 166 -12 c 0
 166 73 203 146 309 179 c 1
346 62 m 1
 354 -168 l 2
 355 -180 355 -189 355 -200 c 1
 422 -185 476 -136 476 -66 c 0
 476 4 424 60 346 62 c 1
EndSplineSet
EndChar

StartChar: colon
Encoding: 58 58 6
Width: 680
Flags: HMW
LayerCount: 3
Fore
SplineSet
350 -284 m 0
 153 -284 0 -90 0 101 c 0
 0 227 72 354 157 448 c 0
 193 488 224 519 244 545 c 1
 263 568 271 584 271 606 c 0
 271 618 269 632 265 650 c 2
 243 758 l 2
 235 800 230 845 230 894 c 0
 230 1010 281 1116 334 1188 c 0
 346 1205 353 1215 353 1224 c 0
 353 1235 343 1243 320 1256 c 0
 299 1268 284 1286 284 1312 c 0
 284 1357 310 1358 310 1375 c 0
 310 1388 288 1389 288 1434 c 0
 288 1487 335 1509 382 1509 c 0
 430 1509 476 1492 476 1436 c 0
 476 1411 457 1395 457 1383 c 0
 457 1367 484 1363 484 1325 c 0
 484 1307 478 1290 467 1276 c 0
 453 1259 446 1250 446 1238 c 0
 446 1230 449 1221 457 1208 c 0
 494 1138 541 1013 541 866 c 0
 541 670 459 549 371 460 c 0
 353 441 346 430 346 414 c 0
 346 409 347 404 348 398 c 2
 361 328 l 2
 367 295 375 297 403 297 c 0
 583 297 680 163 680 20 c 0
 680 -137 558 -221 503 -252 c 0
 485 -261 480 -270 480 -282 c 0
 480 -287 481 -292 482 -298 c 2
 494 -360 l 1
 499 -380 506 -424 506 -471 c 0
 506 -594 437 -663 338 -663 c 0
 235 -663 153 -583 153 -485 c 0
 153 -401 215 -347 282 -347 c 0
 361 -347 400 -412 400 -472 c 0
 400 -538 356 -568 320 -576 c 1
 298 -582 260 -576 260 -598 c 0
 260 -616 296 -631 338 -631 c 0
 427 -631 472 -561 472 -475 c 0
 472 -439 468 -397 462 -363 c 1
 449 -302 l 1
 446 -283 436 -278 418 -278 c 0
 401 -278 383 -284 350 -284 c 0
494 966 m 0
 494 1023 475 1092 454 1092 c 0
 400 1092 282 884 282 752 c 0
 282 740 283 729 285 718 c 2
 296 659 l 2
 301 635 310 626 321 626 c 0
 330 626 341 633 353 644 c 0
 409 694 494 836 494 966 c 0
512 -204 m 0
 572 -166 592 -112 592 -43 c 0
 592 56 525 146 426 151 c 0
 425 151 424 151 423 151 c 0
 406 151 401 144 401 131 c 0
 401 127 401 122 402 117 c 2
 460 -183 l 2
 464 -204 472 -214 485 -214 c 0
 492 -214 502 -210 512 -204 c 0
342 135 m 0
 305 135 235 82 235 -21 c 0
 235 -105 279 -147 335 -168 c 0
 346 -172 351 -179 351 -185 c 0
 351 -191 345 -196 335 -196 c 0
 257 -196 164 -87 164 29 c 0
 164 135 218 210 287 260 c 0
 305 273 330 287 330 312 c 0
 330 315 330 317 329 320 c 2
 319 371 l 2
 317 383 310 389 301 389 c 0
 295 389 288 386 281 381 c 0
 152 282 81 182 81 53 c 0
 81 -111 184 -247 350 -247 c 0
 409 -247 429 -230 429 -203 c 0
 429 -199 429 -195 428 -191 c 2
 374 91 l 2
 367 125 363 135 342 135 c 0
385 1483 m 0
 363 1483 326 1480 326 1452 c 0
 326 1419 385 1405 411 1405 c 0
 430 1405 445 1423 445 1439 c 0
 445 1458 426 1483 385 1483 c 0
354 1354 m 0
 335 1354 315 1341 315 1320 c 0
 315 1289 344 1270 376 1270 c 0
 413 1270 438 1278 438 1303 c 0
 438 1328 393 1354 354 1354 c 0
EndSplineSet
EndChar

StartChar: semicolon
Encoding: 59 59 7
Width: 680
Flags: MW
HStem: -949 23<173.203 218.069 289.064 332.702 389.676 445.119> -802 20<379.823 444.659> -735 47<370.061 494.13> -663 32<272.801 402.397> -576 229<260.27 351.117> -284 37<252.875 419.561> -196 28<309.009 350.552> 151 146<401.702 495.404> 1247 20G<408 413.5>
LayerCount: 3
Fore
SplineSet
426 1553 m 4
 442 1553 454 1547 501 1547 c 4
 523 1547 550 1554 560 1554 c 4
 565 1554 567 1550 567 1545 c 4
 567 1535 555 1522 545 1515 c 4
 531 1506 512 1500 491 1500 c 4
 478 1500 465 1502 445 1502 c 4
 429 1502 429 1486 429 1471 c 4
 429 1455 433 1453 439 1453 c 4
 453 1453 458 1459 495 1459 c 4
 543 1459 582 1429 582 1377 c 4
 582 1331 547 1286 475 1286 c 4
 434 1286 395 1302 395 1346 c 4
 395 1368 410 1380 427 1380 c 4
 446 1380 454 1366 454 1351 c 4
 454 1336 448 1336 448 1325 c 4
 448 1311 461 1309 474 1309 c 4
 515 1309 521 1346 521 1375 c 4
 521 1413 505 1433 471 1433 c 4
 449 1433 438 1423 429 1415 c 4
 423 1410 417 1405 412 1405 c 4
 403 1405 400 1408 400 1420 c 4
 400 1433 406 1463 406 1524 c 4
 406 1533 l 4
 406 1549 413 1553 426 1553 c 4
328 1555 m 4
 333 1555 337 1551 337 1541 c 4
 337 1345 l 4
 337 1313 352 1321 377 1317 c 4
 387 1315 387 1311 387 1305 c 4
 387 1296 385 1293 375 1293 c 4
 238 1293 l 4
 229 1293 227 1296 227 1304 c 4
 227 1309 228 1315 237 1316 c 4
 270 1320 280 1317 280 1353 c 4
 280 1446 l 4
 280 1456 277 1460 273 1460 c 4
 270 1460 265 1457 260 1451 c 4
 224 1414 l 4
 221 1410 217 1408 214 1408 c 4
 210 1408 206 1411 206 1415 c 4
 206 1417 207 1419 208 1422 c 4
 274 1533 l 4
 285 1551 285 1555 296 1555 c 4
 302 1555 305 1554 312 1554 c 4
 319 1554 320 1555 328 1555 c 4
342 135 m 0
 305 135 235 82 235 -21 c 0
 235 -105 279 -147 335 -168 c 0
 346 -172 351 -179 351 -185 c 0
 351 -191 345 -196 335 -196 c 0
 257 -196 164 -87 164 29 c 0
 164 135 218 211 287 260 c 0
 305 273 330 287 330 312 c 0
 330 315 330 317 329 320 c 2
 319 371 l 2
 317 383 310 389 301 389 c 0
 295 389 288 386 281 381 c 0
 152 282 81 182 81 53 c 0
 81 -111 184 -247 350 -247 c 0
 409 -247 429 -230 429 -203 c 0
 429 -199 429 -195 428 -191 c 2
 374 91 l 2
 367 125 363 135 342 135 c 0
512 -204 m 0
 572 -166 592 -112 592 -43 c 0
 592 56 525 146 426 151 c 0
 425 151 424 151 423 151 c 0
 406 151 401 144 401 131 c 0
 401 127 401 122 402 117 c 2
 460 -183 l 2
 464 -204 472 -214 485 -214 c 0
 492 -214 502 -210 512 -204 c 0
494 966 m 0
 494 1023 475 1092 454 1092 c 0
 400 1092 282 884 282 752 c 0
 282 740 283 729 285 718 c 2
 296 659 l 2
 301 635 310 626 321 626 c 0
 330 626 341 633 353 644 c 0
 409 694 494 836 494 966 c 0
350 -284 m 0
 153 -284 0 -90 0 101 c 0
 0 227 72 354 157 448 c 0
 193 488 224 519 244 545 c 0
 263 568 271 584 271 606 c 0
 271 618 269 632 265 650 c 2
 243 758 l 2
 235 800 230 845 230 894 c 0
 230 1050 322 1188 388 1250 c 0
 399 1261 405 1267 411 1267 c 0
 416 1267 421 1262 430 1250 c 0
 467 1201 541 1051 541 866 c 0
 541 670 459 549 371 460 c 0
 353 441 346 430 346 414 c 0
 346 409 347 404 348 398 c 2
 361 328 l 2
 367 295 375 297 403 297 c 0
 583 297 680 163 680 20 c 0
 680 -137 558 -221 503 -252 c 0
 485 -261 480 -270 480 -282 c 0
 480 -287 481 -292 482 -298 c 2
 494 -360 l 2
 499 -380 506 -424 506 -471 c 0
 506 -594 437 -663 338 -663 c 0
 235 -663 153 -583 153 -485 c 0
 153 -401 215 -347 282 -347 c 0
 361 -347 400 -412 400 -472 c 0
 400 -538 356 -568 320 -576 c 0
 298 -582 260 -576 260 -598 c 0
 260 -616 296 -631 338 -631 c 0
 427 -631 472 -561 472 -475 c 0
 472 -439 468 -397 462 -363 c 2
 449 -302 l 2
 446 -283 436 -278 418 -278 c 0
 401 -278 383 -284 350 -284 c 0
EndSplineSet
EndChar

StartChar: H
Encoding: 72 72 8
Width: 760
VWidth: 0
Flags: HMW
LayerCount: 3
Back
SplineSet
341 280 m 7
 497 280 608 169 608 -19 c 7
 608 -322 275 -555 25 -555 c 7
 10 -555 0 -549 0 -543 c 4
 0 -538 5 -534 19 -531 c 4
 283 -491 475 -326 475 11 c 7
 475 122 414 239 312 239 c 7
 231 239 175 198 152 151 c 4
 147 141 146 130 146 124 c 7
 146 110 159 105 176 105 c 7
 187 105 198 107 209 107 c 7
 269 107 311 67 311 0 c 7
 311 -57 262 -104 205 -104 c 7
 147 -104 83 -66 83 29 c 7
 83 163 183 280 341 280 c 7
EndSplineSet
Fore
SplineSet
646 -126 m 0
 646 -95 672 -70 703 -70 c 0
 734 -70 760 -95 760 -126 c 0
 760 -158 734 -183 703 -183 c 0
 672 -183 646 -158 646 -126 c 0
646 127 m 0
 646 158 672 183 703 183 c 0
 734 183 760 158 760 127 c 0
 760 95 734 70 703 70 c 0
 672 70 646 95 646 127 c 0
341 280 m 3
 497 280 608 169 608 -19 c 3
 608 -322 275 -555 25 -555 c 3
 9 -555 0 -548 0 -542 c 0
 0 -536 6 -531 19 -529 c 0
 291 -481 475 -326 475 11 c 3
 475 122 424 234 311 234 c 3
 228 234 152 179 152 124 c 3
 152 109 163 105 177 105 c 0
 188 105 199 107 209 107 c 3
 269 107 311 67 311 0 c 3
 311 -57 262 -104 205 -104 c 3
 147 -104 83 -66 83 29 c 3
 83 163 183 280 341 280 c 3
646 -126 m 0
 646 -95 672 -70 703 -70 c 0
 734 -70 760 -95 760 -126 c 0
 760 -158 734 -183 703 -183 c 0
 672 -183 646 -158 646 -126 c 0
646 127 m 0
 646 158 672 183 703 183 c 0
 734 183 760 158 760 127 c 0
 760 95 734 70 703 70 c 0
 672 70 646 95 646 127 c 0
EndSplineSet
EndChar

StartChar: M
Encoding: 77 77 9
Width: 775
Flags: HMW
HStem: -541 28<0.0949707 84.8734> -208 113<671 733> -63 188<165.385 274.082> 64 113<687 749> 231 40<235.017 390.196>
VStem: 88 77<20.5 164> 463 145<-110.998 105.536> 645 114<-183 -120> 661 114<89 152>
LayerCount: 3
Fore
SplineSet
361 526 m 0xee
 409 526 455 509 455 453 c 0
 455 428 436 412 436 400 c 0
 436 384 463 380 463 342 c 0
 463 326 459 312 451 300 c 0
 435 274 413 263 450 246 c 0
 543 203 608 109 608 0 c 0
 608 -276 212 -541 29 -541 c 0
 8 -541 0 -535 0 -528 c 0
 0 -522 8 -515 22 -513 c 0
 247 -485 463 -265 463 44 c 0
 463 163 414 231 307 231 c 0
 241 231 165 185 165 143 c 0
 165 128 176 125 186 125 c 0
 196 125 204 129 225 129 c 0
 276 129 315 86 315 35 c 0
 315 -21 265 -63 209 -63 c 0
 144 -63 88 -12 88 53 c 0
 88 149 156 224 244 255 c 0
 281 269 280 277 268 304 c 0
 265 312 263 320 263 329 c 0
 263 374 289 375 289 392 c 0
 289 405 267 406 267 451 c 0
 267 504 314 526 361 526 c 0xee
364 500 m 0
 342 500 305 497 305 469 c 0
 305 436 364 422 390 422 c 0
 409 422 424 440 424 456 c 0
 424 475 405 500 364 500 c 0
333 371 m 0
 314 371 294 358 294 337 c 0
 294 306 323 287 355 287 c 0
 392 287 417 295 417 320 c 0
 417 345 372 371 333 371 c 0
718 64 m 0xde80
 687 64 661 89 661 121 c 0
 661 152 687 177 718 177 c 0
 749 177 775 152 775 121 c 0
 775 89 749 64 718 64 c 0xde80
702 -208 m 0
 671 -208 645 -183 645 -151 c 0
 645 -120 671 -95 702 -95 c 0
 733 -95 759 -120 759 -151 c 0xcf
 759 -183 733 -208 702 -208 c 0
EndSplineSet
EndChar

StartChar: O
Encoding: 79 79 10
Width: 775
VWidth: 0
Flags: HMW
LayerCount: 3
Fore
SplineSet
425 -528 m 0
 441 -528 453 -534 500 -534 c 0
 522 -534 549 -527 559 -527 c 0
 564 -527 566 -531 566 -536 c 0
 566 -546 554 -559 544 -566 c 0
 530 -575 511 -581 490 -581 c 0
 477 -581 464 -579 444 -579 c 0
 428 -579 428 -595 428 -610 c 0
 428 -626 432 -628 438 -628 c 0
 452 -628 457 -622 494 -622 c 0
 542 -622 581 -652 581 -704 c 0
 581 -750 546 -795 474 -795 c 0
 433 -795 394 -779 394 -735 c 0
 394 -713 409 -701 426 -701 c 0
 445 -701 453 -715 453 -730 c 0
 453 -745 447 -745 447 -756 c 0
 447 -770 460 -772 473 -772 c 0
 514 -772 520 -735 520 -706 c 0
 520 -668 504 -648 470 -648 c 0
 448 -648 437 -658 428 -666 c 0
 422 -671 416 -676 411 -676 c 0
 402 -676 399 -673 399 -661 c 0
 399 -648 405 -618 405 -557 c 0
 405 -548 l 0
 405 -532 412 -528 425 -528 c 0
327 -526 m 0
 332 -526 336 -530 336 -540 c 0
 336 -736 l 0
 336 -768 351 -760 376 -764 c 0
 386 -766 386 -770 386 -776 c 0
 386 -785 384 -788 374 -788 c 0
 237 -788 l 0
 228 -788 226 -785 226 -777 c 0
 226 -772 227 -766 236 -765 c 0
 269 -761 279 -764 279 -728 c 0
 279 -635 l 0
 279 -625 276 -621 272 -621 c 0
 269 -621 264 -624 259 -630 c 0
 223 -667 l 0
 220 -671 216 -673 213 -673 c 0
 209 -673 205 -670 205 -666 c 0
 205 -664 206 -662 207 -659 c 0
 273 -548 l 0
 284 -530 284 -526 295 -526 c 0
 301 -526 304 -527 311 -527 c 0
 318 -527 319 -526 327 -526 c 0
645 -151 m 0xcf
 645 -120 671 -95 702 -95 c 0
 733 -95 759 -120 759 -151 c 0
 759 -183 733 -208 702 -208 c 0
 671 -208 645 -183 645 -151 c 0xcf
645 -151 m 0
 645 -120 671 -95 702 -95 c 0
 733 -95 759 -120 759 -151 c 0
 759 -183 733 -208 702 -208 c 0
 671 -208 645 -183 645 -151 c 0
661 121 m 0xde80
 661 152 687 177 718 177 c 0
 749 177 775 152 775 121 c 0
 775 89 749 64 718 64 c 0
 687 64 661 89 661 121 c 0xde80
661 121 m 0
 661 152 687 177 718 177 c 0
 749 177 775 152 775 121 c 0
 775 89 749 64 718 64 c 0
 687 64 661 89 661 121 c 0
335 271 m 27
 485 271 608 150 608 0 c 3
 608 -276 212 -541 29 -541 c 3
 8 -541 0 -535 0 -528 c 0
 0 -522 8 -515 22 -513 c 0
 247 -485 463 -265 463 44 c 3
 463 163 414 231 307 231 c 3
 241 231 165 185 165 143 c 3
 165 128 176 125 186 125 c 3
 196 125 204 129 225 129 c 3
 276 129 315 86 315 35 c 27
 315 -21 265 -63 209 -63 c 27xee
 144 -63 88 -12 88 53 c 27
 88 181 207 271 335 271 c 27
EndSplineSet
EndChar

StartChar: P
Encoding: 80 80 11
Width: 606
VWidth: 0
Flags: HMW
LayerCount: 3
Back
SplineSet
504 -87 m 4
 504 -60 527 -37 555 -37 c 4
 583 -37 606 -60 606 -87 c 4
 606 -116 583 -139 555 -139 c 4
 527 -139 504 -116 504 -87 c 4
497 104 m 4
 497 132 520 154 548 154 c 4
 576 154 599 132 599 104 c 4
 599 75 576 53 548 53 c 4
 520 53 497 75 497 104 c 4
247 205 m 7
 392 205 472 90 472 -39 c 7
 472 -288 138 -486 10 -486 c 7
 -8 -486 1 -466 16 -461 c 4
 250 -382 363 -214 363 0 c 7
 363 80 312 170 230 170 c 7
 168 170 118 128 118 100 c 4
 118 87 129 84 141 84 c 7
 148 84 154 85 160 85 c 15
 206 85 242 46 242 0 c 31
 242 -49 201 -87 152 -87 c 31
 95 -87 60 -29 60 28 c 31
 60 128 151 205 247 205 c 7
EndSplineSet
Fore
SplineSet
504 -87 m 4
 504 -60 527 -37 555 -37 c 4
 583 -37 606 -60 606 -87 c 4
 606 -116 583 -139 555 -139 c 4
 527 -139 504 -116 504 -87 c 4
497 104 m 4
 497 132 520 154 548 154 c 4
 576 154 599 132 599 104 c 4
 599 75 576 53 548 53 c 4
 520 53 497 75 497 104 c 4
247 205 m 3
 392 205 472 90 472 -39 c 3
 472 -288 138 -486 10 -486 c 3
 3 -486 0 -483 0 -479 c 0
 0 -473 7 -464 16 -461 c 0
 250 -382 363 -214 363 0 c 3
 363 80 317 166 231 166 c 3
 178 166 124 128 124 100 c 0
 124 87 134 85 146 85 c 0
 150 85 155 85 160 85 c 11
 206 85 242 46 242 0 c 27
 242 -49 201 -87 152 -87 c 27
 95 -87 60 -29 60 28 c 27
 60 128 151 205 247 205 c 3
EndSplineSet
EndChar

StartChar: grave
Encoding: 96 96 12
Width: 521
VWidth: 0
Flags: HMW
LayerCount: 3
Back
SplineSet
279 29 m 4
 295 52 310 40 352 40 c 7
 455 40 521 113 521 206 c 7
 521 310 449 380 341 380 c 7
 274 380 206 341 206 265 c 7
 206 236 229 208 262 208 c 7
 292 208 317 225 317 256 c 7
 317 310 274 306 274 325 c 7
 274 340 294 353 332 353 c 7
 390 353 422 301 422 203 c 7
 422 134 409 67 343 67 c 7
 301 67 272 100 267 152 c 4
 265 177 246 177 244 152 c 4
 241 107 222 32 184 32 c 7
 176 32 169 36 169 60 c 6
 169 364 l 6
 169 376 163 380 153 380 c 7
 141 380 135 378 135 365 c 6
 135 -365 l 6
 135 -378 141 -380 153 -380 c 7
 163 -380 169 -376 169 -364 c 6
 169 -60 l 6
 169 -36 176 -32 184 -32 c 7
 222 -32 241 -107 244 -152 c 4
 246 -177 265 -177 267 -152 c 4
 272 -100 301 -67 343 -67 c 7
 409 -67 422 -134 422 -203 c 7
 422 -301 390 -353 332 -353 c 7
 294 -353 274 -340 274 -325 c 7
 274 -306 317 -310 317 -256 c 7
 317 -225 292 -208 262 -208 c 7
 229 -208 206 -236 206 -265 c 7
 206 -341 274 -380 341 -380 c 7
 449 -380 521 -310 521 -206 c 7
 521 -113 455 -40 352 -40 c 7
 310 -40 295 -52 279 -29 c 4
 263 -5 263 5 279 29 c 4
0 -344 m 6
 0 344 l 6
 0 377 6 380 47 380 c 7
 89 380 93 376 93 347 c 6
 93 -347 l 6
 93 -375 92 -380 38 -380 c 7
 4 -380 0 -372 0 -344 c 6
EndSplineSet
Fore
SplineSet
135 365 m 2
 135 378 141 380 153 380 c 3
 163 380 169 376 169 364 c 2
 169 60 l 2
 169 36 176 32 184 32 c 3
 222 32 240 107 243 152 c 0
 244 165 251 171 257 171 c 0
 264 171 269 164 270 152 c 0
 275 100 301 69 343 69 c 3
 412 69 422 134 422 203 c 3
 422 301 392 352 332 352 c 3
 295 352 279 336 279 323 c 3
 279 304.439 317 306 317 256 c 3
 317 225 292 208 262 208 c 3
 229 208 206 236 206 265 c 3
 206 341 274 380 341 380 c 3
 449 380 521 310 521 206 c 3
 521 113 455 38 352 38 c 3
 332 38 316 42 304 42 c 0
 294 42 286 40 279 29 c 0
 271 17 267 10 267 0 c 0
 267 -9 271 -17 279 -29 c 0
 286 -40 294 -42 304 -42 c 0
 316 -42 332 -38 352 -38 c 3
 455 -38 521 -113 521 -206 c 3
 521 -310 449 -380 341 -380 c 3
 274 -380 206 -341 206 -265 c 3
 206 -236 229 -208 262 -208 c 3
 292 -208 317 -225 317 -256 c 3
 317 -306 279 -304.439 279 -323 c 3
 279 -336 295 -352 332 -352 c 3
 392 -352 422 -301 422 -203 c 3
 422 -134 412 -69 343 -69 c 3
 301 -69 275 -100 270 -152 c 0
 269 -164 264 -171 257 -171 c 0
 251 -171 244 -165 243 -152 c 0
 240 -107 222 -32 184 -32 c 3
 176 -32 169 -36 169 -60 c 2
 169 -364 l 2
 169 -376 163 -380 153 -380 c 3
 141 -380 135 -378 135 -365 c 2
 135 365 l 2
93 347 m 2
 93 -347 l 2
 93 -376 89 -380 47 -380 c 3
 6 -380 0 -377 0 -344 c 2
 0 344 l 2
 0 377 6 380 47 380 c 3
 89 380 93 376 93 347 c 2
EndSplineSet
EndChar

StartChar: a
Encoding: 97 97 13
Width: 1000
VWidth: 0
LayerCount: 3
Back
SplineSet
252 94 m 7
 220 94 38 -10 38 -57 c 7
 38 -88 58 -95 81 -95 c 7
 115 -95 288 11 288 55 c 7
 288 76 273 94 252 94 c 7
200 131 m 7
 257 131 324 121 324 50 c 7
 324 -37 245 -131 112 -131 c 7
 55 -131 0 -121 0 -50 c 7
 0 37 67 131 200 131 c 7
EndSplineSet
EndChar

StartChar: c
Encoding: 99 99 14
Width: 1000
VWidth: 0
LayerCount: 3
Back
SplineSet
0 211 m 5
 44 211 l 5
 44 40.5342 l 5
 73.6582 111.114 179.262 130 250 130 c 4
 317.844 130 417.331 112.021 446 43.127 c 5
 446 211 l 5
 490 211 l 5
 490 -211 l 5
 446 -211 l 5
 446 -40.5342 l 5
 416.342 -111.114 310.738 -130 240 -130 c 4
 172.156 -130 72.6689 -112.021 44 -43.127 c 5
 44 -211 l 5
 0 -211 l 5
 0 211 l 5
188 -36 m 6
 215 -90 241 -96 261 -96 c 4
 318.311 -96 338.315 -78.9697 338.315 -52.6543 c 4
 338.315 -37.6445 331.807 -19.6133 322 0 c 6
 304 36 l 6
 277 90 251 96 231 96 c 4
 173.689 96 153.685 78.9697 153.685 52.6543 c 4
 153.685 37.6445 160.193 19.6133 170 0 c 6
 188 -36 l 6
EndSplineSet
EndChar

StartChar: d
Encoding: 100 100 15
Width: 1000
VWidth: 0
LayerCount: 3
Back
SplineSet
23 200 m 3xf980
 43 200 43 197 44 187 c 16
 46 2 l 0
 46 2 44 -110 44 -181 c 27
 44 -192 40 -200 23 -200 c 3
 8 -200 0 -194 0 -181 c 3
 2 76 l 0
 1 180 l 0
 1 190 6 200 23 200 c 3xf980
640 200 m 3
 658 200 664 194 663 183 c 0
 661 76 l 0
 664 -186 l 3
 664 -200 656 -200 641 -200 c 3
 622 -200 619 -196 619 -181 c 0
 618 2 l 0
 619 187 l 0
 619 201 632 200 640 200 c 3
143 -74 m 3
 134 -74 131 -85 131 -98 c 0
 131 -100 131 -102 131 -104 c 0
 131 -114 130 -157 130 -191 c 27
 130 -203 119 -211 109 -211 c 3
 94 -211 86 -206 86 -196 c 27xfd80
 86 -88 89 -28 89 80 c 27xfb80
 89 124 87 149 87 193 c 27
 87 204 92 211 109 211 c 0
 118 211 130 207 130 197 c 27
 130 157 130 140 131 94 c 0xfd80
 131 81 137 74 143 74 c 3
 149 74 152 74 168 87 c 0
 205 117 260 129 312 129 c 0
 354 129 444 122 499 85 c 0
 512 75 512 75 520 75 c 0
 528 75 531 83 532 98 c 0
 533 108 533 118 533 129 c 0
 533 149 532 172 532 197 c 11
 532 207 545 211 553 211 c 3
 571 211 576 204 576 193 c 27
 576 113 573 68 573 -11 c 27
 573 -83 577 -196 577 -196 c 3
 577 -210 569 -211 554 -211 c 3
 543 -211 532 -203 532 -191 c 19
 532 -167 532 -143 532 -124 c 0
 532 -114 532 -105 532 -98 c 0
 531 -76 527 -71 518 -71 c 3
 511 -71 510 -72 493 -84 c 0
 451 -116 387 -131 332 -131 c 0
 275 -131 209 -116 167 -86 c 0
 151 -75 152 -74 143 -74 c 3
296 101 m 0
 275 101 239 86 239 53 c 0xfb80
 239 27 261 -23 291 -66 c 1
 307 -87 326 -95 350 -95 c 0
 381 -95 426 -80 426 -42 c 0
 426 -18 393 37 370 69 c 0
 354 91 327 101 296 101 c 0
EndSplineSet
EndChar

StartChar: uni0080
Encoding: 128 128 16
Width: 711
Flags: HW
LayerCount: 3
Fore
SplineSet
643 -11 m 0xfe01
 643 94 564 167 463 167 c 0
 425 167 422 135 431 101 c 1
 489 -150 l 2
 496 -179 505 -194 521 -194 c 0
 530 -194 542 -189 556 -178 c 0
 608 -139 643 -81 643 -11 c 0xfe01
343 334 m 2
 332 386 l 1
 324 416 316 430 304 430 c 0
 294 430 283 424 266 410 c 1
 169 320 64 213 64 59 c 0
 64 -104 204 -238 367 -238 c 0
 382 -238 397 -237 412 -235 c 0
 450 -230 463 -222 463 -198 c 0
 463 -187 460 -173 456 -155 c 2
 400 89 l 2
 392 123 385 150 364 150 c 0
 309 150 255 94 255 29 c 0
 255 -26 282 -77 312 -101 c 0
 319 -107 322 -113 322 -118 c 0
 322 -123 319 -127 312 -127 c 0
 307 -127 301 -125 293 -120 c 0
 243 -89 190 -27 190 51 c 0xfe81
 190 130 232 197 293 238 c 0
 332 264 349 271 349 297 c 0
 349 306 347 318 343 334 c 2
363 656 m 0
 455 741 527 848 527 990 c 0xfe03
 527 1067 502 1139 474 1139 c 0
 422 1139 281 1008 281 805 c 0
 281 769 291 711 299 674 c 0
 305 643 314 631 325 631 c 0
 335 631 348 641 363 656 c 0
447 -267 m 0
 424 -267 394 -272 369 -272 c 0
 177 -272 0 -130 0 62 c 0
 0 286 129 415 248 541 c 0
 267 562 278 578 278 603 c 0
 278 614 276 626 272 640 c 0
 260 690 235 787 235 851 c 0
 235 1079 404 1274 431 1274 c 0
 455 1274 573 1099 573 946 c 0xfe03
 573 773 490 640 390 531 c 0
 362 501 355 477 355 450 c 0
 355 435 358 417 364 393 c 2
 376 342 l 2
 389 285 388 282 446 279 c 0
 591 271 711 157 711 11 c 0
 711 -91 652 -171 569 -220 c 0
 534 -240 519 -244 519 -269 c 0
 519 -277 521 -287 524 -300 c 0
 537 -363 549 -437 549 -494 c 0
 549 -571 514 -633 461 -666 c 0
 439 -680 440 -692 457 -707 c 0
 471 -721 480 -739 480 -764 c 0xfe0d
 480 -802 453 -809 453 -828 c 0
 453 -848 487 -858 487 -901 c 0
 487 -946 442 -986 373 -986 c 0
 307 -986 260 -954 260 -900 c 0xfe51
 260 -859 292 -845 292 -827 c 0
 292 -809 265 -804 265 -761 c 0
 265 -740 274 -722 288 -709 c 0
 304 -695 303 -684 285 -676 c 0
 217 -646 172 -581 172 -512 c 0
 172 -436 219 -392 279 -392 c 0
 328 -392 371 -432 371 -489 c 0
 371 -536 332 -575 279 -575 c 0
 264 -575 250 -577 250 -592 c 0
 250 -627 307 -658 362 -658 c 0
 449 -658 511 -587 511 -489 c 0xff25
 511 -432 501 -372 491 -318 c 0
 484 -279 480 -267 447 -267 c 0
372 -707 m 0
 346 -707 307 -713 307 -748 c 0
 307 -786 373 -806 402 -806 c 0
 432 -806 448 -779 448 -761 c 0xfe29
 448 -731 418 -707 372 -707 c 0
344 -852 m 0
 314 -852 291 -878 291 -902 c 0
 291 -938 332 -958 369 -958 c 0
 411 -958 441 -941 441 -911 c 0xfe51
 441 -880 388 -852 344 -852 c 0
EndSplineSet
EndChar

StartChar: uni0081
Encoding: 129 129 17
Width: 711
Flags: HMW
LayerCount: 3
Back
SplineSet
358 -827 m 4
 333 -827 316 -849 316 -869 c 4
 316 -897 348 -913 379 -913 c 4
 414 -913 438 -900 438 -875 c 4
 438 -849 395 -827 358 -827 c 4
381 -708 m 4
 357 -708 328 -714 328 -740 c 4
 328 -772 382 -789 406 -789 c 4
 431 -789 443 -766 443 -751 c 4
 443 -728 420 -708 381 -708 c 4
643 -11 m 4xfe12
 643 88 565 176 460 176 c 4
 435 176 424 166 424 143 c 4
 424 135 425 126 428 114 c 6
 489 -150 l 6
 496 -179 505 -194 521 -194 c 4
 530 -194 542 -189 556 -178 c 4
 608 -139 643 -81 643 -11 c 4xfe12
343 334 m 6
 329 396 l 6
 322 427 315 439 304 439 c 4
 292 439 277 424 253 400 c 4
 151 295 64 191 64 51 c 4
 64 -112 204 -238 367 -238 c 4
 382 -238 397 -237 412 -235 c 4
 450 -230 463 -222 463 -198 c 4
 463 -187 460 -173 456 -155 c 6
 398 99 l 6
 390 133 383 157 362 157 c 4
 352 157 339 152 322 141 c 4
 282 116 255 79 255 29 c 4
 255 -26 282 -77 312 -101 c 4
 319 -107 322 -113 322 -118 c 4
 322 -123 319 -127 312 -127 c 4
 307 -127 301 -125 293 -120 c 4
 243 -89 190 -27 190 51 c 4xfe92
 190 130 232 197 293 238 c 4
 332 264 349 271 349 297 c 4
 349 306 347 318 343 334 c 6
365 652 m 4
 457 745 527 848 527 990 c 4xfe16
 527 1067 499 1146 471 1146 c 4
 419 1146 281 1008 281 805 c 4
 281 769 289 720 300 668 c 4
 307 638 314 624 325 624 c 4
 335 624 347 634 365 652 c 4
292 -751 m 4xfe32
 292 -732 305 -711 305 -699 c 4
 305 -690 300 -683 283 -676 c 4
 216 -645 172 -580 172 -512 c 4
 172 -438 221 -399 275 -399 c 4
 323 -399 361 -433 361 -491 c 4
 361 -535 322 -567 278 -567 c 4
 263 -567 246 -572 246 -587 c 4
 246 -624 307 -658 362 -658 c 4
 449 -658 511 -587 511 -489 c 4xff3a
 511 -432 501 -372 491 -318 c 4
 484 -279 480 -267 447 -267 c 4
 424 -267 394 -272 369 -272 c 4
 177 -272 0 -138 0 54 c 4
 0 277 121 414 248 537 c 4
 268 557 278 574 278 599 c 4
 278 610 277 622 273 636 c 4
 261 686 235 787 235 851 c 4
 235 1079 399 1266 433 1266 c 4
 462 1266 573 1093 573 946 c 4xfe16
 573 773 490 649 390 540 c 4
 362 510 351 492 351 465 c 4
 351 450 354 432 360 408 c 6
 376 342 l 6
 389 285 388 282 446 279 c 4
 591 271 711 157 711 11 c 4
 711 -91 652 -171 569 -220 c 4
 534 -240 519 -244 519 -269 c 4
 519 -277 521 -287 524 -300 c 4
 537 -363 549 -437 549 -494 c 4
 549 -566 518 -626 470 -660 c 4
 453 -673 446 -680 446 -689 c 4
 446 -706 471 -716 471 -754 c 4
 471 -785 449 -791 449 -807 c 4
 449 -824 477 -832 477 -868 c 4
 477 -905 440 -939 382 -939 c 4
 327 -939 288 -912 288 -867 c 4xfe5a
 288 -833 315 -821 315 -806 c 4
 315 -791 292 -787 292 -751 c 4xfe32
EndSplineSet
Fore
SplineSet
172 -512 m 0xfd40
 172 -436 219 -392 279 -392 c 0
 328 -392 371 -432 371 -489 c 0
 371 -536 332 -575 279 -575 c 0
 264 -575 250 -577 250 -592 c 0
 250 -627 307 -658 362 -658 c 0
 449 -658 511 -587 511 -489 c 0xfd40
 511 -432 501 -372 491 -318 c 0
 484 -279 480 -267 447 -267 c 0
 424 -267 394 -272 369 -272 c 0
 177 -272 0 -130 0 62 c 0
 0 286 129 415 248 541 c 0
 267 562 278 578 278 603 c 0
 278 614 276 626 272 640 c 0
 260 690 235 787 235 851 c 3
 235 1079 404.5 1274 431 1274 c 3
 454.521 1274 573 1099.01 573 946 c 3xf8c0
 573 773 490 640 390 531 c 0
 362 501 355 477 355 450 c 0
 355 435 358 417 364 393 c 2
 376 342 l 2
 389 285 388 282 446 279 c 0
 591 271 711 157 711 11 c 0
 711 -91 652 -171 569 -220 c 0
 534 -240 519 -244 519 -269 c 0
 519 -277 521 -287 524 -300 c 0
 537 -363 549 -437 549 -494 c 0
 549 -566 518 -626 470 -660 c 0
 453 -673 446 -680 446 -689 c 0
 446 -706 471 -716 471 -754 c 0
 471 -785 449 -791 449 -807 c 0
 449 -824 477 -832 477 -868 c 0
 477 -905 440 -939 382 -939 c 0
 327 -939 288 -912 288 -867 c 0
 288 -833 315 -821 315 -806 c 0
 315 -791 292 -787 292 -751 c 0
 292 -732 305 -711 305 -699 c 0
 305 -690 300 -683 283 -676 c 0
 216 -645 172 -578 172 -512 c 0xfd40
363 656 m 0
 455 741 527 848 527 990 c 3xf8c0
 527 1067 502 1139 474 1139 c 3
 422 1139 281 1008 281 805 c 3
 281 769 291 711 299 674 c 0
 305 643 314 631 325 631 c 0
 335 631 348 641 363 656 c 0
343 334 m 2
 331.5 385.5 l 2
 324.5 416.5 316.5 430.5 303.5 430.5 c 0
 293.5 430.5 282.724 424.393 266.5 409.5 c 0
 169 320 64 213 64 59 c 0
 64 -104 204 -238 367 -238 c 0
 382 -238 397 -237 412 -235 c 0
 450 -230 463 -222 463 -198 c 0
 463 -187 460 -173 456 -155 c 2
 400 89 l 2
 392 123 385 150 364 150 c 0
 309 150 255 94 255 29 c 0
 255 -26 282 -77 312 -101 c 0
 319 -107 322 -113 322 -118 c 0
 322 -123 319 -127 312 -127 c 0
 307 -127 301 -125 293 -120 c 0
 243 -89 190 -27 190 51 c 0xfa40
 190 130 232 197 293 238 c 0
 332 264 349 271 349 297 c 0
 349 306 346.594 317.904 343 334 c 2
643 -11 m 0
 643 93.5 564.5 167 463 167 c 0
 424.9 167 422.462 135.152 431 101 c 2
 489 -150 l 2
 496 -179 505 -194 521 -194 c 0
 530 -194 542 -189 556 -178 c 0
 608 -139 643 -81 643 -11 c 0
358 -827 m 0
 333 -827 316 -849 316 -869 c 0
 316 -897 348 -913 379 -913 c 0
 414 -913 438 -900 438 -875 c 0
 438 -849 395 -827 358 -827 c 0
381 -708 m 0
 357 -708 328 -714 328 -740 c 0
 328 -772 382 -789 406 -789 c 0
 431 -789 443 -766 443 -751 c 0
 443 -728 420 -708 381 -708 c 0
EndSplineSet
EndChar

StartChar: uni0082
Encoding: 130 130 18
Width: 711
Flags: W
HStem: -693 35<292.177 429.373> -575 183<251.957 336.726> -272 34<272.152 454.219> 1360 38<391.954 462.699> 1479 24<380.798 468.142>
VStem: 0 64<-48.7592 170.936> 172 78<-592.819 -474> 190 65<-32.2196 97.8943> 332 28.001<1290.34 1348.48> 336 36.001<1418.62 1472.38> 380 94<1205.01 1267.14> 482.001 38.999<1282.22 1341.37 1400.21 1470.8> 511 38<-574.612 -332.039> 527 46<860.662 1073.41> 643 68<-89.9644 76.7006>
LayerCount: 3
Back
SplineSet
402.001 1360 m 0
 377.001 1360 360.001 1338 360.001 1318 c 0
 360.001 1290 392.001 1274 423.001 1274 c 0
 458.001 1274 482.001 1287 482.001 1312 c 0
 482.001 1338 439.001 1360 402.001 1360 c 0
425.001 1479 m 0
 401.001 1479 372.001 1473 372.001 1447 c 0
 372.001 1415 426.001 1398 450.001 1398 c 0
 475.001 1398 487.001 1421 487.001 1436 c 0
 487.001 1459 464.001 1479 425.001 1479 c 0
643 -11 m 0xfe19
 643 88 565 176 460 176 c 0
 435 176 424 166 424 143 c 0
 424 135 425 126 428 114 c 2
 489 -150 l 2
 496 -179 505 -194 521 -194 c 0
 530 -194 542 -189 556 -178 c 0
 608 -139 643 -81 643 -11 c 0xfe19
343 334 m 2
 329 396 l 2
 322 427 315 439 304 439 c 0
 292 439 277 424 253 400 c 0
 151 295 64 191 64 51 c 0
 64 -112 204 -238 367 -238 c 0
 382 -238 397 -237 412 -235 c 0
 450 -230 463 -222 463 -198 c 0
 463 -187 460 -173 456 -155 c 2
 398 99 l 2
 390 133 383 157 362 157 c 0
 352 157 339 152 322 141 c 0
 282 116 255 79 255 29 c 0
 255 -26 282 -77 312 -101 c 0
 319 -107 322 -113 322 -118 c 0
 322 -123 319 -127 312 -127 c 0
 307 -127 301 -125 293 -120 c 0
 243 -89 190 -27 190 51 c 0xfe91
 190 130 232 197 293 238 c 0
 332 264 349 271 349 297 c 0
 349 306 347 318 343 334 c 2
365 652 m 0
 457 745 527 848 527 990 c 0xfe13
 527 1067 499 1146 471 1146 c 0
 419 1146 281 1008 281 805 c 0
 281 769 289 720 300 668 c 0
 307 638 314 624 325 624 c 0
 335 624 347 634 365 652 c 0
447 -267 m 0
 424 -267 394 -272 369 -272 c 0
 177 -272 0 -138 0 54 c 0
 0 277 121 414 248 537 c 0
 268 557 278 574 278 599 c 0
 278 610 277 622 273 636 c 0
 261 686 235 787 235 851 c 0
 235 1001 306 1134 365 1207 c 0
 375 1220 380 1230 380 1238 c 0
 380 1248 373 1257 360 1266 c 0
 343 1278 332 1297 332 1320 c 0xff55
 332 1354 359 1366 359 1381 c 0
 359 1396 336 1400 336 1436 c 0
 336 1479 380 1503 425 1503 c 0
 470 1503 515 1485 515 1433 c 0
 515 1402 493 1396 493 1380 c 0
 493 1363 521 1355 521 1319 c 0
 521 1300 511 1282 494 1269 c 0
 481 1259 474 1250 474 1239 c 0
 474 1232 477 1224 483 1214 c 0
 524 1152 573 1043 573 946 c 0xfe3b
 573 773 490 649 390 540 c 0
 362 510 351 492 351 465 c 0
 351 450 354 432 360 408 c 2
 376 342 l 2
 389 285 388 282 446 279 c 0
 591 271 711 157 711 11 c 0
 711 -91 652 -171 569 -220 c 0
 534 -240 519 -244 519 -269 c 0
 519 -277 521 -287 524 -300 c 0
 537 -363 549 -437 549 -494 c 0
 549 -610 470 -693 366 -693 c 0
 254 -693 172 -605 172 -512 c 0
 172 -438 221 -399 275 -399 c 0
 323 -399 361 -433 361 -491 c 0
 361 -535 322 -567 278 -567 c 0
 263 -567 246 -572 246 -587 c 0
 246 -624 307 -658 362 -658 c 0
 449 -658 511 -587 511 -489 c 0xff15
 511 -432 501 -372 491 -318 c 0
 484 -279 480 -267 447 -267 c 0
EndSplineSet
Fore
SplineSet
363 656 m 0xfc26
 455 741 527 848 527 990 c 3
 527 1067 502 1139 474 1139 c 3
 422 1139 281 1008 281 805 c 3
 281 769 291 711 299 674 c 0
 305 643 314 631 325 631 c 0
 335 631 348 641 363 656 c 0xfc26
343 334 m 2
 331.5 385.5 l 2
 324.5 416.5 316.5 430.5 303.5 430.5 c 0
 293.5 430.5 282.724 424.393 266.5 409.5 c 0
 169 320 64 213 64 59 c 0
 64 -104 204 -238 367 -238 c 0
 382 -238 397 -237 412 -235 c 0
 450 -230 463 -222 463 -198 c 0
 463 -187 460 -173 456 -155 c 2
 400 89 l 2
 392 123 385 150 364 150 c 0
 309 150 255 94 255 29 c 0
 255 -26 282 -77 312 -101 c 0
 319 -107 322 -113 322 -118 c 0
 322 -123 319 -127 312 -127 c 0
 307 -127 301 -125 293 -120 c 0
 243 -89 190 -27 190 51 c 0xfd22
 190 130 232 197 293 238 c 0
 332 264 349 271 349 297 c 0
 349 306 346.594 317.904 343 334 c 2
643 -11 m 0
 643 93.5 564.5 167 463 167 c 0
 424.9 167 422.462 135.152 431 101 c 2
 489 -150 l 2
 496 -179 505 -194 521 -194 c 0xfc32
 530 -194 542 -189 556 -178 c 0
 608 -139 643 -81 643 -11 c 0
402.001 1360 m 0
 377.001 1360 360.001 1338 360.001 1318 c 0xfcb2
 360.001 1290 392.001 1274 423.001 1274 c 0
 458.001 1274 482.001 1287 482.001 1312 c 0
 482.001 1338 439.001 1360 402.001 1360 c 0
425.001 1479 m 0
 401.001 1479 372.001 1473 372.001 1447 c 0xfc62
 372.001 1415 426.001 1398 450.001 1398 c 0
 475.001 1398 487.001 1421 487.001 1436 c 0
 487.001 1459 464.001 1479 425.001 1479 c 0
362 1207 m 0
 372 1220 380 1230 380 1238 c 0
 380 1248 373 1257 360 1266 c 0
 343 1278 332 1297 332 1320 c 0xfeaa
 332 1354 359 1366 359 1381 c 0
 359 1396 336 1400 336 1436 c 0
 336 1479 380 1503 425 1503 c 0
 470 1503 515 1485 515 1433 c 0
 515 1402 493 1396 493 1380 c 0
 493 1363 521 1355 521 1319 c 0
 521 1300 511 1282 494 1269 c 0
 481 1259 474 1250 474 1239 c 0
 474 1232 478 1224 484 1214 c 0
 525 1152 573 1048 573 946 c 3xfc76
 573 773 490 640 390 531 c 0
 362 501 355 477 355 450 c 0
 355 435 358 417 364 393 c 2
 376 342 l 2
 389 285 388 282 446 279 c 0
 591 271 711 157 711 11 c 0
 711 -91 652 -171 569 -220 c 0
 534 -240 519 -244 519 -269 c 0
 519 -277 521 -287 524 -300 c 0
 537 -363 549 -437 549 -494 c 0
 549 -610 470 -693 366 -693 c 0
 254 -693 172 -605 172 -512 c 0
 172 -436 219 -392 279 -392 c 0
 328 -392 371 -432 371 -489 c 0
 371 -536 332 -575 279 -575 c 0
 264 -575 250 -577 250 -592 c 0
 250 -627 307 -658 362 -658 c 0
 449 -658 511 -587 511 -489 c 0xfe2a
 511 -432 501 -372 491 -318 c 0
 484 -279 480 -267 447 -267 c 0
 424 -267 394 -272 369 -272 c 0
 177 -272 0 -130 0 62 c 0
 0 286 129 415 248 541 c 0
 267 562 278 578 278 603 c 0
 278 614 276 626 272 640 c 0
 260 690 235 787 235 851 c 3
 235 997 303 1134 362 1207 c 0
EndSplineSet
EndChar

StartChar: uni0083
Encoding: 131 131 19
Width: 711
Flags: HW
HStem: -693 35<292.177 429.373> -575 183<251.957 336.726> -267 29<280.717 451.453> 1139 135<425.082 488>
VStem: 0 64<-48.7592 170.936> 172 78<-592.819 -474> 190 65<-32.2196 97.8943> 511 38<-574.612 -332.039> 527 46<860.662 1069.94> 643 68<-89.9644 76.7006>
LayerCount: 3
Back
SplineSet
476 1332 m 0xfa
 476 1318 492 1317 505 1317 c 0
 541 1317 556 1340 556 1376 c 0
 556 1412 538 1432 505 1432 c 0
 484 1432 478 1429 466 1424 c 0
 456 1419 449 1412 442 1412 c 0
 434 1412 431 1416 431 1426 c 0
 431 1439 436 1462 436 1520 c 0
 436 1528 l 0
 436 1543 443 1547 456 1547 c 0
 471 1547 482 1541 527 1541 c 0
 548 1541 570 1545 580 1545 c 0
 584 1545 587 1542 587 1538 c 0
 587 1528 576 1520 566 1514 c 0
 552 1506 537 1503 517 1503 c 0
 504 1503 493 1505 474 1505 c 0
 459 1505 459 1483 459 1468 c 0xf6
 459 1453 463 1451 468 1451 c 0
 482 1451 487 1456 522 1456 c 0
 568 1456 602 1428 602 1378 c 0
 602 1338 572 1294 503 1294 c 0
 464 1294 426 1313 426 1348 c 0
 426 1359 433 1375 452 1375 c 0
 467 1375 479 1367 479 1349 c 0
 479 1342 476 1339 476 1332 c 0xfa
339 1548 m 0
 350 1548 351 1542 351 1531 c 0
 351 1348 l 0
 351 1317 372 1325 395 1321 c 0
 403 1319 404 1316 404 1312 c 0
 404 1310 l 0
 404 1302 403 1298 393 1298 c 0
 260 1298 l 0
 252 1298 250 1302 250 1309 c 0
 250 1313 251 1319 259 1320 c 0
 291 1324 308 1319 308 1353 c 0
 308 1441 l 0
 308 1455 305 1461 300 1461 c 0
 295 1461 290 1457 285 1451 c 0
 248 1410 l 0
 244 1405 241 1404 238 1404 c 0
 234 1404 231 1407 231 1412 c 0
 231 1415 232 1419 234 1422 c 0
 303 1537 l 0
 308 1545 314 1548 325 1548 c 0
 339 1548 l 0
447 -267 m 0
 424 -267 394 -272 369 -272 c 0
 177 -272 0 -138 0 54 c 0
 0 277 121 414 248 537 c 0
 268 557 278 574 278 599 c 0
 278 610 277 622 273 636 c 0
 261 686 235 787 235 851 c 3
 235 1079 399 1266 433 1266 c 3
 462 1266 573 1093 573 946 c 3
 573 773 490 649 390 540 c 0
 362 510 351 492 351 465 c 0
 351 450 354 432 360 408 c 2
 376 342 l 2
 389 285 388 282 446 279 c 0
 591 271 711 157 711 11 c 0
 711 -91 652 -171 569 -220 c 0
 534 -240 519 -244 519 -269 c 0
 519 -277 521 -287 524 -300 c 0
 537 -363 549 -437 549 -494 c 0
 549 -610 470 -693 366 -693 c 0
 254 -693 172 -605 172 -512 c 0
 172 -438 221 -399 275 -399 c 0
 323 -399 361 -433 361 -491 c 0
 361 -535 322 -567 278 -567 c 0
 263 -567 246 -572 246 -587 c 0
 246 -624 307 -658 362 -658 c 0
 449 -658 511 -587 511 -489 c 0
 511 -432 501 -372 491 -318 c 0
 484 -279 480 -267 447 -267 c 0
365 652 m 0
 457 745 527 848 527 990 c 3
 527 1067 499 1146 471 1146 c 3
 419 1146 281 1008 281 805 c 3
 281 769 289 720 300 668 c 0
 307 638 314 624 325 624 c 0
 335 624 347 634 365 652 c 0
343 334 m 2
 329 396 l 2
 322 427 315 439 304 439 c 0
 292 439 277 424 253 400 c 0
 151 295 64 191 64 51 c 0
 64 -112 204 -238 367 -238 c 0
 382 -238 397 -237 412 -235 c 0
 450 -230 463 -222 463 -198 c 0
 463 -187 460 -173 456 -155 c 2
 398 99 l 2
 390 133 383 157 362 157 c 0
 352 157 339 152 322 141 c 0
 282 116 255 79 255 29 c 0
 255 -26 282 -77 312 -101 c 0
 319 -107 322 -113 322 -118 c 0
 322 -123 319 -127 312 -127 c 0
 307 -127 301 -125 293 -120 c 0
 243 -89 190 -27 190 51 c 0
 190 130 232 197 293 238 c 0
 332 264 349 271 349 297 c 0
 349 306 347 318 343 334 c 2
643 -11 m 0
 643 88 565 176 460 176 c 0
 435 176 424 166 424 143 c 0
 424 135 425 126 428 114 c 2
 489 -150 l 2
 496 -179 505 -194 521 -194 c 0
 530 -194 542 -189 556 -178 c 0
 608 -139 643 -81 643 -11 c 0
EndSplineSet
Fore
SplineSet
447 -267 m 0xfd40
 424 -267 394 -272 369 -272 c 0
 177 -272 0 -130 0 62 c 0
 0 286 129 415 248 541 c 0
 267 562 278 578 278 603 c 0
 278 614 276 626 272 640 c 0
 260 690 235 787 235 851 c 3
 235 1079 404.5 1274 431 1274 c 3
 454.521 1274 573 1099.01 573 946 c 3xf8c0
 573 773 490 640 390 531 c 0
 362 501 355 477 355 450 c 0
 355 435 358 417 364 393 c 2
 376 342 l 2
 389 285 388 282 446 279 c 0
 591 271 711 157 711 11 c 0
 711 -91 652 -171 569 -220 c 0
 534 -240 519 -244 519 -269 c 0
 519 -277 521 -287 524 -300 c 0
 537 -363 549 -437 549 -494 c 0
 549 -610 470 -693 366 -693 c 0
 254 -693 172 -605 172 -512 c 0
 172 -436 219 -392 279 -392 c 0
 328 -392 371 -432 371 -489 c 0
 371 -536 332 -575 279 -575 c 0
 264 -575 250 -577 250 -592 c 0
 250 -627 307 -658 362 -658 c 0
 449 -658 511 -587 511 -489 c 0
 511 -432 501 -372 491 -318 c 0
 484 -279 480 -267 447 -267 c 0xfd40
363 656 m 0
 455 741 527 848 527 990 c 3
 527 1067 502 1139 474 1139 c 3
 422 1139 281 1008 281 805 c 3
 281 769 291 711 299 674 c 0
 305 643 314 631 325 631 c 0
 335 631 348 641 363 656 c 0
343 334 m 2
 331.5 385.5 l 2
 324.5 416.5 316.5 430.5 303.5 430.5 c 0
 293.5 430.5 282.724 424.393 266.5 409.5 c 0
 169 320 64 213 64 59 c 0
 64 -104 204 -238 367 -238 c 0
 382 -238 397 -237 412 -235 c 0
 450 -230 463 -222 463 -198 c 0
 463 -187 460 -173 456 -155 c 2
 400 89 l 2
 392 123 385 150 364 150 c 0
 309 150 255 94 255 29 c 0
 255 -26 282 -77 312 -101 c 0
 319 -107 322 -113 322 -118 c 0
 322 -123 319 -127 312 -127 c 0
 307 -127 301 -125 293 -120 c 0
 243 -89 190 -27 190 51 c 0xfa40
 190 130 232 197 293 238 c 0
 332 264 349 271 349 297 c 0
 349 306 346.594 317.904 343 334 c 2
643 -11 m 0
 643 93.5 564.5 167 463 167 c 0
 424.9 167 422.462 135.152 431 101 c 2
 489 -150 l 2
 496 -179 505 -194 521 -194 c 0
 530 -194 542 -189 556 -178 c 0
 608 -139 643 -81 643 -11 c 0
476 1332 m 0xfa
 476 1318 492 1317 505 1317 c 0
 541 1317 556 1340 556 1376 c 0
 556 1412 538 1432 505 1432 c 0
 484 1432 478 1429 466 1424 c 0
 456 1419 449 1412 442 1412 c 0
 434 1412 431 1416 431 1426 c 0
 431 1439 436 1462 436 1520 c 0
 436 1528 l 0
 436 1543 443 1547 456 1547 c 0
 471 1547 482 1541 527 1541 c 0
 548 1541 570 1545 580 1545 c 0
 584 1545 587 1542 587 1538 c 0
 587 1528 576 1520 566 1514 c 0
 552 1506 537 1503 517 1503 c 0
 504 1503 493 1505 474 1505 c 0
 459 1505 459 1483 459 1468 c 0xf6
 459 1453 463 1451 468 1451 c 0
 482 1451 487 1456 522 1456 c 0
 568 1456 602 1428 602 1378 c 0
 602 1338 572 1294 503 1294 c 0
 464 1294 426 1313 426 1348 c 0
 426 1359 433 1375 452 1375 c 0
 467 1375 479 1367 479 1349 c 0
 479 1342 476 1339 476 1332 c 0xfa
339 1548 m 0
 350 1548 351 1542 351 1531 c 0
 351 1348 l 0
 351 1317 372 1325 395 1321 c 0
 403 1319 404 1316 404 1312 c 0
 404 1310 l 0
 404 1302 403 1298 393 1298 c 0
 260 1298 l 0
 252 1298 250 1302 250 1309 c 0
 250 1313 251 1319 259 1320 c 0
 291 1324 308 1319 308 1353 c 0
 308 1441 l 0
 308 1455 305 1461 300 1461 c 0
 295 1461 290 1457 285 1451 c 0
 248 1410 l 0
 244 1405 241 1404 238 1404 c 0
 234 1404 231 1407 231 1412 c 0
 231 1415 232 1419 234 1422 c 0
 303 1537 l 0
 308 1545 314 1548 325 1548 c 0
 339 1548 l 0
EndSplineSet
EndChar

StartChar: uni008B
Encoding: 139 139 20
Width: 1000
VWidth: 0
Flags: HW
LayerCount: 3
Back
SplineSet
0 -30 m 3
 0 51 69 99 138 99 c 3
 166 99 206 80 206 32 c 3
 206 -56 124 -96 62 -96 c 3
 61 -96 60 -96 59 -96 c 0
 37 -96 37 -97 37 -122 c 0
 36 -174 36 -243 36 -342 c 0
 36 -484 37 -506 37 -568 c 0
 37 -604 36 -605 21 -605 c 0
 4 -605 0 -604 0 -560 c 0
 0 -481 2 -404 2 -305 c 0
 2 -198 0 -83 0 -30 c 3
EndSplineSet
EndChar

StartChar: uni008C
Encoding: 140 140 21
Width: 553
VWidth: 0
Flags: W
HStem: -128 65<489.028 550.972> -42 130<101.013 165.145> 67 65<489.028 550.972> 182 33<147.618 277.437>
VStem: 39 62<30 131.057> 348 106<-117.621 79.7217> 487 66<-125.983 -65.0277 69.0277 129.983>
LayerCount: 3
Back
SplineSet
402 228 m 7
 402 164 369 97 358 74 c 4
 352 63 345 52 335 52 c 7
 328 52 326 64 326 75 c 7
 326 102 365 140 365 222 c 7
 365 310 306 402 234 402 c 7
 212 402 212 396 212 350 c 7
 212 305 211 261 211 218 c 7xde
 211 157 213 96 213 32 c 4xee
 213 -41 148 -98 68 -98 c 7
 17 -98 0 -55 0 -30 c 7
 0 17 41 96 145 96 c 7
 153 96 157 94 164 94 c 7
 178 94 179 105 179 146 c 4
 179 155 179 290 179 302 c 7xde
 179 405 177 485 177 566 c 7
 177 576 181 596 191 596 c 7
 217 596 211 565 214 550 c 4
 218 532 222 527 231 514 c 4
 297 419 402 413 402 228 c 7
EndSplineSet
Fore
SplineSet
487 -96 m 3x9e
 487 -78 502 -63 520 -63 c 3
 538 -63 553 -78 553 -96 c 3
 553 -113 538 -128 520 -128 c 3
 502 -128 487 -113 487 -96 c 3x9e
487 100 m 3
 487 117 502 132 520 132 c 3
 538 132 553 117 553 100 c 3
 553 82 538 67 520 67 c 3xbe
 502 67 487 82 487 100 c 3
230 215 m 3
 363 215 454 106 454 -21 c 3
 454 -211 195 -399 31 -444 c 0
 23 -446 15 -448 9 -448 c 0
 3 -448 0 -446 0 -439 c 0
 0 -433 8 -428 25 -419 c 0
 214 -323 348 -193 348 19 c 3
 348 111 296 182 218 182 c 3
 163 182 101 150 101 110 c 3
 101 93 117 90 130 88 c 0
 165 84 183 59 183 28 c 27
 183 -8 157 -42 121 -42 c 27xde
 71 -42 39 3 39 57 c 3
 39 156 135 215 230 215 c 3
EndSplineSet
EndChar

StartChar: uni008D
Encoding: 141 141 22
Width: 1000
VWidth: 0
Flags: H
LayerCount: 3
Back
SplineSet
50 -96 m 4
 36 -96 34 -103 34 -222 c 4
 34 -265 35 -309 35 -354 c 4
 35 -400 35 -406 57 -406 c 4
 129 -406 169 -276 169 -188 c 4
 169 -157 164 -131 156 -112 c 4
 149 -94 147 -87 138 -87 c 4
 133 -87 127 -89 117 -91 c 4
 103 -96 87 -98 69 -98 c 4
 61 -98 57 -96 50 -96 c 4
193 -36 m 4
 183 -52 177 -57 177 -66 c 4
 177 -71 180 -79 185 -92 c 4
 196 -121 206 -158 206 -194 c 4
 206 -379 120 -423 54 -518 c 4
 45 -531 41 -536 37 -554 c 4
 34 -569 40 -600 14 -600 c 4
 4 -600 0 -580 0 -570 c 4
 0 -489 2 -409 2 -306 c 4
 2 -294 1 -43 1 -34 c 4
 1 39 66 96 146 96 c 4
 197 96 214 53 214 28 c 4
 214 9 207 -15 193 -36 c 4
EndSplineSet
EndChar

StartChar: uni008E
Encoding: 142 142 23
Width: 1000
VWidth: 0
Flags: H
LayerCount: 3
Back
SplineSet
214 427 m 31xc8
 214 411 222 404 231 391 c 4
 276 330 321 311 358 262 c 4
 360 259 363 257 366 257 c 4
 373 257 379 265 379 277 c 7
 379 347 304 448 232 448 c 7
 218 448 214 438 214 427 c 31xc8
414 283 m 7
 414 237 398 236 398 199 c 7
 398 169 424 149 424 68 c 7
 424 4 411 -31 404 -58 c 4
 401 -70 391 -80 381 -80 c 7
 372 -80 372 -68 372 -57 c 7
 372 -30 390 -21 390 61 c 7
 390 149 306 279 234 279 c 7
 212 279 212 273 212 227 c 6
 212 178 l 6xd4
 212 118 213 96 213 32 c 7
 213 -41 148 -98 68 -98 c 7
 17 -98 0 -55 0 -30 c 7xe0
 0 17 41 96 145 96 c 7
 153 96 157 94 164 94 c 7
 178 94 179 105 179 146 c 6
 179 348 l 6xd0
 179 451 177 531 177 612 c 7
 177 622 181 642 191 642 c 7
 217 642 211 611 214 596 c 4
 218 578 222 573 231 560 c 4
 297 465 414 439 414 283 c 7
EndSplineSet
EndChar

StartChar: uni008F
Encoding: 143 143 24
Width: 1000
VWidth: 0
Flags: H
LayerCount: 3
Back
SplineSet
34 -450 m 4xec
 34 -461 38 -471 52 -471 c 4
 124 -471 179 -379 179 -309 c 4
 179 -297 173 -289 166 -289 c 4
 163 -289 160 -291 158 -294 c 4
 121 -343 96 -353 51 -414 c 4
 42 -427 34 -434 34 -450 c 4xec
187 -118 m 4xe2
 187 -100 185 -65 170 -65 c 4
 166 -65 161 -68 154 -72 c 4
 140 -82 126 -88 116 -91 c 4
 102 -95 86 -98 68 -98 c 4
 60 -98 56 -96 49 -96 c 4
 35 -96 33 -117 33 -236 c 4
 33 -240 33 -243 33 -247 c 4
 33 -285 34 -302 54 -302 c 4
 126 -302 187 -206 187 -118 c 4xe2
207 -49 m 4
 215 -72 222 -97 222 -124 c 4xe2
 222 -193 198 -205 198 -235 c 4
 198 -272 213 -277 213 -323 c 4
 213 -450 117 -488 51 -583 c 4
 42 -596 38 -601 34 -619 c 4
 31 -634 37 -665 11 -665 c 4
 1 -665 -3 -645 -3 -635 c 4
 -3 -554 0 -474 0 -371 c 4xec
 0 -276 -1 -223 -1 -157 c 4
 -1 -123 -1 -84 0 -34 c 4xf0
 0 39 65 96 145 96 c 4
 196 96 213 53 213 28 c 4xe4
 213 18 211 6 208 -6 c 4
 204 -17 202 -22 202 -28 c 4xf0
 202 -34 204 -39 207 -49 c 4
EndSplineSet
EndChar

StartChar: uni0090
Encoding: 144 144 25
Width: 1000
VWidth: 0
Flags: H
LayerCount: 3
Back
SplineSet
214 427 m 31xec
 214 411 222 404 231 391 c 4
 276 330 321 311 358 262 c 4
 360 259 363 257 366 257 c 4
 373 257 379 265 379 277 c 7
 379 347 304 448 232 448 c 7
 218 448 214 438 214 427 c 31xec
402 371 m 6
 402 360 402 361 408 340 c 4
 412 323 414 304 414 283 c 7xec
 414 237 398 236 398 199 c 7
 398 169 424 149 424 68 c 7
 424 4 411 -31 404 -58 c 4
 401 -70 391 -80 381 -80 c 7
 372 -80 372 -68 372 -57 c 7
 372 -30 390 -21 390 61 c 7
 390 149 306 279 234 279 c 7
 212 279 212 273 212 227 c 6
 212 178 l 6
 212 118 213 96 213 32 c 7
 213 -41 148 -98 68 -98 c 7
 17 -98 0 -55 0 -30 c 7xf2
 0 17 41 96 145 96 c 7
 153 96 157 94 164 94 c 7
 178 94 179 105 179 146 c 6
 179 348 l 6
 179 514 177 621 177 776 c 7
 177 786 181 806 191 806 c 7
 217 806 211 775 214 760 c 4
 218 742 222 737 231 724 c 4
 297 629 414 603 414 447 c 7
 414 401 402 404 402 371 c 6
346 445 m 4
 348 442 363 426 366 426 c 4
 373 426 379 429 379 441 c 7
 379 511 304 612 232 612 c 7
 218 612 214 606 214 597 c 31
 214 581 222 573 231 560 c 4
 264 513 309 483 346 445 c 4
EndSplineSet
EndChar

StartChar: cent
Encoding: 162 162 26
Width: 679
VWidth: 0
Flags: W
HStem: -526 35<375.851 507.483> -114 40<408.399 518.392> 74 40<408.399 518.392> 491 35<375.851 507.483>
VStem: 0 104<-514.657 -490 490 514.657> 174 144<-40.4474 40.4474> 174 47<-514.982 -489 -76 -41.8285 41.8285 76 489 514.982> 271 79<-449.799 -362.5 362.5 449.799> 320 37<-269.927 -168.128 168.128 269.927> 569 110<-403.462 -191.877 191.877 403.462>
LayerCount: 3
Back
SplineSet
331 0 m 7xfe20
 331 -20 334 -30 346 -53 c 4
 361 -79 369 -111 388 -111 c 4
 397.179 -111 406.178 -101.832 416 -96 c 4
 437.333 -83.333 462.088 -74 507 -74 c 7
 619 -74 692 -181.896 692 -294 c 31
 692 -420.042 603 -526 467 -526 c 7
 383 -526 281 -475 281 -380 c 7
 281 -345 304.594 -311 340 -311 c 31
 373.948 -311 404 -336 404 -370 c 7
 404 -424 360.5 -416.5 360 -441 c 4xfca0
 359.511 -464.995 399 -491 456 -491 c 7
 536.014 -491 573 -414 573 -331 c 7
 573 -239 566.184 -114 473 -114 c 31
 412.023 -114 376.699 -159.525 366 -228 c 4
 361 -260 356 -270 347 -270 c 4
 339 -270 333.546 -259.338 330 -233 c 4
 323 -181 309.5 -133 285 -82 c 4
 271.056 -52.9736 255 -40 247 -40 c 4
 237 -40 231 -59 231 -92 c 6
 231 -489 l 6
 231 -509 229 -515 208 -515 c 4
 184 -515 184 -510 184 -491 c 6
 184 491 l 6
 184 510 184 515 208 515 c 4
 229 515 231 509 231 489 c 6
 231 92 l 6
 231 59 237 40 247 40 c 4
 255 40 271.056 52.9736 285 82 c 4
 309.5 133 323 181 330 233 c 4
 333.545 259.338 339 270 347 270 c 4
 356 270 361 260 366 228 c 4xfd60
 376.699 159.525 412.023 114 473 114 c 31
 566.184 114 573 239 573 331 c 7
 573 414 536.014 491 456 491 c 7
 399 491 359.51 464.995 360 441 c 4
 360.5 416.5 404 424 404 370 c 7
 404 336 373.948 311 340 311 c 31
 304.594 311 281 345 281 380 c 7xfca0
 281 475 383 526 467 526 c 7
 603 526 692 420.042 692 294 c 31
 692 181.896 619 74 507 74 c 7
 462.087 74 437.333 83.333 416 96 c 4
 406.178 101.832 397.179 111 388 111 c 4
 369 111 361 79 346 53 c 4
 334 30 331 21 331 0 c 7xfe20
109 -490 m 6
 109 -511 102 -515 83 -515 c 6
 36 -515 l 6
 8 -515 5 -508 5 -492 c 6
 5 492 l 6
 5 508 8 515 36 515 c 6
 83 515 l 6
 102 515 109 511 109 490 c 6
 109 -490 l 6
EndSplineSet
Fore
SplineSet
343 66 m 0xfc40
 367 114 374 112 406 95 c 0
 428 83 452 74 497 74 c 3
 609 74 679 183 679 303 c 3
 679 426 593 526 457 526 c 3
 373 526 271 475 271 380 c 3
 271 345 294.594 311 330 311 c 27
 363.948 311 394 336 394 370 c 3
 394 424 350 416 350 441 c 0xf940
 350 465 389 491 446 491 c 3
 537 491 569 416 569 309 c 3
 569 209 551 114 463 114 c 3
 407 114 364 158 357 228 c 0
 354 260 350 270 337 270 c 0
 325 270 322 259 320 233 c 0
 317 202 294 104 265 61 c 0
 243 29 221 38 221 76 c 2
 221 489 l 2
 221 509 219 515 198 515 c 0
 174 515 174 510 174 491 c 2
 174 -491 l 2
 174 -510 174 -515 198 -515 c 0
 219 -515 221 -509 221 -489 c 2
 221 -76 l 2
 221 -38 243 -29 265 -61 c 0
 294 -104 317 -202 320 -233 c 0
 322 -259 325 -270 337 -270 c 0
 350 -270 354 -260 357 -228 c 0xfac0
 364 -158 407 -114 463 -114 c 3
 551 -114 569 -209 569 -309 c 3
 569 -416 537 -491 446 -491 c 3
 389 -491 350 -465 350 -441 c 0
 350 -416 394 -424 394 -370 c 3
 394 -336 363.948 -311 330 -311 c 27
 294.594 -311 271 -345 271 -380 c 3xf940
 271 -475 373 -526 457 -526 c 3
 593 -526 679 -426 679 -303 c 3
 679 -183 609 -74 497 -74 c 3
 452 -74 428 -83 406 -95 c 0
 374 -112 367 -114 343 -66 c 0
 326 -33 318 -16 318 0 c 0
 318 16 326 33 343 66 c 0xfc40
104 490 m 2
 104 511 97 515 78 515 c 2
 31 515 l 2
 3 515 0 508 0 492 c 2
 0 -492 l 2
 0 -508 3 -515 31 -515 c 2
 78 -515 l 2
 97 -515 104 -511 104 -490 c 2
 104 490 l 2
EndSplineSet
EndChar

StartChar: currency
Encoding: 164 164 27
Width: 532
Flags: HMW
LayerCount: 3
Back
SplineSet
246 -92 m 4
 253 -100 252 -104 241 -102 c 4
 186 -91 142 -28 142 34 c 4
 142 102 178 158 246 193 c 4
 265 203 268 201 264 219 c 6
 234 359 l 6
 232 368 216 373 209 366 c 4
 124 296 48 179 48 71 c 4
 48 -81 164 -175 292 -175 c 4
 298 -175 317 -173 326 -172 c 4
 336 -171 345 -160 343 -151 c 6
 291 93 l 6
 289 102 279 105 271 104 c 4
 225 100 191 59 191 15 c 4
 191 -31 221 -66 246 -92 c 4
228 -532 m 4
 240 -536 255 -539 270 -539 c 4
 341 -539 387 -482 387 -413 c 4
 387 -376 373 -292 363 -245 c 6
 357 -217 l 6
 355 -209 344 -205 334 -206 c 4
 320 -208 307 -210 291 -210 c 4
 142 -210 0 -98 0 73 c 4
 0 257 96 377 188 477 c 4
 203 493 205 496 200 519 c 6
 187 580 l 6
 143 784 248 958 320 1019 c 4
 325 1024 327 1024 330 1021 c 4
 360 997 430 860 430 745 c 4
 430 611 349 499 274 424 c 4
 256 406 255 404 261 375 c 6
 292 228 l 6
 296 209 297 209 322 208 c 4
 444 203 532 113 532 5 c 4
 532 -73 481 -148 399 -188 c 4
 393 -191 384 -204 387 -216 c 6
 391 -235 l 6
 402 -288 417 -379 417 -418 c 4
 416 -504 352 -569 273 -569 c 4
 180 -569 111 -500 111 -429 c 4
 111 -377 155 -332 205 -332 c 4
 255 -332 293 -373 293 -423 c 4
 293 -465 266 -500 228 -511 c 4
 218 -514 221 -530 228 -532 c 4
253 533 m 4
 321 592 393 666 393 782 c 4
 393 827 377 875 365 899 c 4
 362 905 348 911 339 907 c 4
 249 866 187 721 218 577 c 6
 225 542 l 6
 228 531 242 523 253 533 c 4
478 -17 m 4
 478 54 429 113 336 113 c 4
 327 113 319 105 320 98 c 6
 371 -142 l 6
 373 -151 386 -155 396 -149 c 4
 452 -118 478 -72 478 -17 c 4
EndSplineSet
Fore
SplineSet
438 760 m 0
 437 626 355 505 274 424 c 0
 256 406 255 404 261 375 c 2
 292 228 l 2
 296 209 297 209 322 208 c 0
 444 203 532 113 532 5 c 0
 532 -73 480 -147 398 -187 c 0
 392 -190 383 -201 386 -213 c 2
 391 -235 l 2
 402 -288 415 -369 415 -408 c 0
 415 -498 349 -569 261 -569 c 0
 164 -569 87 -499 87 -424 c 0
 87 -372 131 -327 181 -327 c 0
 231 -327 269 -368 269 -418 c 0
 269 -460 242 -495 204 -506 c 0
 194 -509 197 -524 203 -528 c 0
 215 -535 241 -539 258 -539 c 0
 337 -539 385 -478 385 -403 c 0
 385 -366 373 -292 363 -245 c 2
 357 -217 l 2
 355 -209 344 -203 334 -204 c 0
 320 -206 307 -208 291 -208 c 0
 142 -208 0 -99 0 79 c 0
 0 263 94 385 186 485 c 0
 201 501 203 504 198 527 c 2
 187 580 l 2
 148 785 256 973 328 1034 c 0
 333 1039 335 1039 338 1036 c 0
 368 1012 438 875 438 760 c 0
218 577 m 2
 224 549 l 2
 226 538 241 530 252 540 c 0
 320 599 400 688 403 797 c 0
 403 842 392 875 380 899 c 0
 377 905 363 911 354 907 c 0
 264 866 193 715 218 577 c 2
248 -94 m 0
 255 -102 254 -104 243 -102 c 0
 187 -91 142 -28 142 34 c 0
 142 102 178 158 246 193 c 0
 265 203 268 201 264 219 c 2
 234 359 l 2
 232 368 216 373 209 366 c 0
 124 296 48 163 48 61 c 0
 48 -95 164 -178 292 -178 c 0
 300 -178 317 -176 326 -174 c 0
 337 -172 346 -163 344 -154 c 2
 292 86 l 2
 290 96 280 98 272 98 c 0
 226 94 192 55 192 11 c 0
 192 -35 223 -68 248 -94 c 0
473 -27 m 0
 473 44 424 107 337 107 c 0
 328 107 320 99 321 92 c 2
 373 -149 l 2
 375 -158 388 -160 398 -154 c 0
 454 -123 473 -82 473 -27 c 0
EndSplineSet
EndChar

StartChar: yen
Encoding: 165 165 28
Width: 709
Flags: HMW
HStem: -690 34<262.287 410.186> -270 31<262.31 459.765> 149 130<425 536.453> 1247 20G<446.5 448>
VStem: 0 69<-44.5643 155.107> 113 141<-629.5 -476.5> 189 68<-41.2767 83.8953> 510 34<-554.285 -349.033> 551 37<884.057 1050.29> 634 75<-91.9745 66.8908>
LayerCount: 3
Fore
SplineSet
231 -385 m 0xfdc0
 296 -385 350 -436 350 -503 c 0
 350 -558 312 -607 259 -619 c 0
 256 -620 254 -623 254 -627 c 0
 254 -632 257 -639 261 -641 c 0
 280 -650 294 -656 328 -656 c 0
 434 -656 510 -588 510 -469 c 0
 510 -412 493 -350 476 -271 c 0
 475 -263 469 -261 460 -261 c 1
 429 -267 402 -270 369 -270 c 4
 170 -270 0 -132 0 75 c 0
 0 289 149 449 286 577 c 0
 291 582 292 586 292 592 c 0
 292 594 292 595 292 597 c 2
 287 622 l 2
 280 654 249 776 249 857 c 0
 249 1065 391 1231 441 1264 c 0
 444 1266 446 1267 447 1267 c 0
 449 1267 450 1266 453 1264 c 0
 484 1236 588 1096 588 929 c 0
 588 741 493 585 365 470 c 0
 359 465 357 459 357 452 c 0
 357 450 357 449 358 447 c 2
 391 290 l 2
 394 280 400 279 409 279 c 0
 411 279 412 279 414 279 c 0
 418 279 422 279 426 279 c 0
 583 279 709 164 709 10 c 0
 709 -113 628 -200 521 -242 c 0
 516 -244 509 -252 509 -260 c 0
 509 -261 l 0
 526 -343 544 -412 544 -471 c 0
 544 -603 455 -690 340 -690 c 0
 229 -690 113 -620 113 -509 c 0
 113 -444 163 -385 231 -385 c 0xfdc0
347 636 m 0
 433 714 551 838 551 978 c 0
 551 1024 539 1061 520 1100 c 0
 517 1108 508 1112 499 1112 c 0
 496 1112 494 1112 491 1111 c 0
 408 1079 296 960 296 791 c 0
 296 746 302 707 314 656 c 2
 318 640 l 2
 319 632 325 630 330 630 c 0
 336 630 343 632 347 636 c 0
367 -239 m 4
 395 -239 464 -239 464 -216 c 0
 464 -215 464 -214 464 -213 c 2
 392 127 l 2
 391 132 383 139 375 139 c 0
 375 139 374 139 373 139 c 0
 289 121 257 70 257 13 c 0
 257 -39 281 -78 310 -121 c 0
 312 -124 313 -126 313 -127 c 0
 313 -129 312 -130 310 -130 c 0
 308 -130 306 -129 303 -128 c 0
 237 -102 189 -32 189 51 c 0xfbc0
 189 152 261 237 350 266 c 0
 357 268 360 271 360 277 c 0
 360 278 359 280 359 282 c 2
 330 415 l 2
 329 422 322 425 316 425 c 0
 311 425 307 423 303 420 c 0
 195 323 69 214 69 36 c 0
 69 -138 200 -239 367 -239 c 4
634 -26 m 0
 634 78 572 149 458 149 c 0
 454 149 451 149 448 149 c 0
 435 149 425 146 425 135 c 0
 425 134 425 132 425 131 c 2
 497 -203 l 2
 498 -209 503 -213 508 -213 c 0
 509 -213 511 -213 512 -212 c 0
 585 -175 634 -131 634 -26 c 0
EndSplineSet
EndChar

StartChar: brokenbar
Encoding: 166 166 29
Width: 1000
VWidth: 0
Flags: HM
LayerCount: 3
Back
SplineSet
188 -466 m 4
 181 -498 178 -502 146 -502 c 7
 135 -502 125 -501 125 -486 c 7
 125 -466 147 -418 178 -317 c 4
 191 -276 210 -210 218 -179 c 4
 219 -174 220 -170 220 -167 c 4
 220 -161 217 -158 213 -158 c 4
 208 -158 200 -163 194 -167 c 4
 174 -181 142 -202 88 -202 c 7
 41 -202 0 -169 0 -119 c 7
 0 -78 24 -43 68 -43 c 7
 104 -43 136 -63 136 -109 c 7
 136 -130 125 -140 125 -147 c 7
 125 -157 129 -159 140 -159 c 7
 158 -159 213 -129 236 -89 c 4
 248 -68 273 36 281 67 c 4
 282 72 283 76 283 79 c 4
 283 85 280 88 276 88 c 4
 271 88 263 83 257 79 c 4
 237 65 205 44 151 44 c 7
 104 44 63 77 63 127 c 7
 63 168 87 203 131 203 c 7
 167 203 199 183 199 137 c 7
 199 116 188 106 188 99 c 7
 188 89 192 87 203 87 c 7
 221 87 276 117 299 157 c 4
 311 178 336 282 344 313 c 4
 345 318 346 322 346 325 c 4
 346 331 343 334 339 334 c 4
 334 334 326 329 320 325 c 4
 300 311 268 290 214 290 c 7
 167 290 126 323 126 373 c 7
 126 414 150 449 194 449 c 7
 230 449 262 429 262 383 c 7
 262 362 251 352 251 345 c 7
 251 335 255 333 266 333 c 7
 284 333 339 363 362 403 c 4
 374 424 378 449 397 449 c 7
 404 449 407 443 407 436 c 4
 407 431 405 424 404 419 c 4
 304 36 264 -108 188 -466 c 4
EndSplineSet
EndChar

StartChar: section
Encoding: 167 167 30
Width: 180
Flags: HMW
HStem: -638 26<0 1480> -388 26<0 1480> -138 26<0 1480> 112 26<0 1480> 362 26<0 1480>
LayerCount: 3
Fore
SplineSet
0 -14.5 m 0
 0 14.5 l 1
 1480 14.5 l 1
 1480 -14.5 l 0
 0 -14.5 l 0
0 -264.5 m 0
 0 -235.5 l 1
 1480 -235.5 l 1
 1480 -264.5 l 0
 0 -264.5 l 0
0 735.5 m 0
 0 764.5 l 1
 1480 764.5 l 1
 1480 735.5 l 0
 0 735.5 l 0
0 485.5 m 0
 0 514.5 l 1
 1480 514.5 l 1
 1480 485.5 l 0
 0 485.5 l 0
0 235.5 m 0
 0 264.5 l 1
 1480 264.5 l 1
 1480 235.5 l 0
 0 235.5 l 0
EndSplineSet
EndChar

StartChar: dieresis
Encoding: 168 168 31
Width: 540
VWidth: 0
Flags: HMW
LayerCount: 3
Back
SplineSet
188 -958 m 4
 181 -990 178 -994 146 -994 c 7
 135 -994 125 -993 125 -978 c 7
 125 -958 147 -910 178 -809 c 4
 191 -768 210 -702 218 -671 c 4
 219 -666 220 -662 220 -659 c 4
 220 -653 217 -650 213 -650 c 4
 208 -650 200 -655 194 -659 c 4
 174 -673 142 -694 88 -694 c 7
 41 -694 0 -661 0 -611 c 7
 0 -570 24 -535 68 -535 c 7
 104 -535 136 -555 136 -601 c 7
 136 -622 125 -632 125 -639 c 7
 125 -649 129 -651 140 -651 c 7
 158 -651 213 -621 236 -581 c 4
 248 -560 273 -456 281 -425 c 4
 282 -420 283 -416 283 -413 c 4
 283 -407 280 -404 276 -404 c 4
 271 -404 263 -409 257 -413 c 4
 237 -427 205 -448 151 -448 c 7
 104 -448 63 -415 63 -365 c 7
 63 -324 87 -289 131 -289 c 7
 167 -289 199 -309 199 -355 c 7
 199 -376 188 -386 188 -393 c 7
 188 -403 192 -405 203 -405 c 7
 221 -405 276 -375 299 -335 c 4
 311 -314 336 -210 344 -179 c 4
 345 -174 346 -170 346 -167 c 4
 346 -161 343 -158 339 -158 c 4
 334 -158 326 -163 320 -167 c 4
 300 -181 268 -202 214 -202 c 7
 167 -202 126 -169 126 -119 c 7
 126 -78 150 -43 194 -43 c 7
 230 -43 262 -63 262 -109 c 7
 262 -130 251 -140 251 -147 c 7
 251 -157 255 -159 266 -159 c 7
 284 -159 339 -129 362 -89 c 4
 374 -68 399 36 407 67 c 4
 408 72 409 76 409 79 c 4
 409 85 406 88 402 88 c 4
 397 88 389 83 383 79 c 4
 363 65 331 44 277 44 c 7
 230 44 189 77 189 127 c 7
 189 168 213 203 257 203 c 7
 293 203 325 183 325 137 c 7
 325 116 314 106 314 99 c 7
 314 89 318 87 329 87 c 7
 347 87 402 117 425 157 c 4
 437 178 462 282 470 313 c 4
 471 318 472 322 472 325 c 4
 472 331 469 334 465 334 c 4
 460 334 452 329 446 325 c 4
 426 311 394 290 340 290 c 7
 293 290 252 323 252 373 c 7
 252 414 276 449 320 449 c 7
 356 449 388 429 388 383 c 7
 388 362 377 352 377 345 c 7
 377 335 381 333 392 333 c 7
 410 333 465 363 488 403 c 4
 500 424 504 449 523 449 c 7
 530 449 533 443 533 436 c 4
 533 431 531 424 530 419 c 4
 412 -29 342 -231 188 -958 c 4
EndSplineSet
Fore
SplineSet
285 -208 m 0
 128 -208 0 -97 0 65 c 0
 0 190 63 266 129 331 c 0
 176 376 201 386 201 430 c 0
 201 452 197 472 189 504 c 0
 177 555 170 593 170 643 c 0
 170 716 188 781 225 845 c 0
 262 911 305 956 317 956 c 2
 317 956 l 2
 345 956 423 788 423 650 c 0
 423 525 373 431 316 368 c 0
 285 334 274 320 274 300 c 0
 274 291 276 284 279 273 c 0
 292 215 289 211 336 209 c 0
 457 205 540 135 540 17 c 0
 540 -67 493 -120 436 -160 c 0
 408 -181 396 -187 396 -207 c 0
 396 -215 397 -222 400 -234 c 2
 410 -273 l 2
 416 -298 419 -320 419 -346 c 0
 419 -436 373 -512 267 -512 c 0
 203 -512 123 -472 123 -383 c 0
 123 -332 155 -300 200 -300 c 0
 244 -300 265 -331 265 -367 c 0
 265 -421 218 -431 218 -452 c 0
 218 -465 227 -482 269 -482 c 0
 349 -482 387 -423 387 -350 c 0
 387 -330 385 -312 381 -293 c 2
 368 -242 l 2
 361 -212 352 -206 328 -206 c 0
 317 -206 299 -208 285 -208 c 0
389 657 m 0
 389 752 354 857 334 857 c 2
 333 857 l 2
 305 856 264 807 242 756 c 1
 220 709 209 652 209 600 c 0
 209 574 212 552 217 531 c 2
 228 483 l 2
 235 456 245 439 259 439 c 0
 274 439 295 451 327 490 c 0
 355 523 389 578 389 657 c 0
226 -75 m 0
 226 -81 222 -85 217 -85 c 0
 212 -85 206 -81 201 -76 c 0
 180 -49 159 -13 159 42 c 0
 159 83 171 124 206 161 c 0
 234 190 253 197 253 228 c 0
 253 239 251 248 247 263 c 0
 242 284 235 292 226 292 c 0
 218 292 210 287 200 283 c 0
 120 240 53 142 53 34 c 0
 53 -95 156 -177 284 -177 c 0
 323 -177 342 -165 342 -142 c 0
 342 -130 339 -120 336 -107 c 2
 293 73 l 2
 287 99 279 110 263 110 c 0
 228 110 196 72 196 24 c 0
 196 -15 208 -34 222 -63 c 0
 225 -67 226 -71 226 -75 c 0
352 128 m 0
 331 128 319 123 319 107 c 0
 319 97 322 87 326 73 c 2
 366 -96 l 2
 373 -127 379 -141 392 -141 c 0
 400 -141 409 -138 421 -130 c 0
 450 -113 488 -75 488 -13 c 0
 488 71 425 128 352 128 c 0
EndSplineSet
EndChar

StartChar: Egrave
Encoding: 200 200 32
Width: 560
VWidth: 0
Flags: W
HStem: -144 71<490.812 557.188> -63 138<85.6477 160.019> 73 71<490.812 557.188> 182 33<138.784 282.52>
VStem: 23 61<16 121.049> 357 91<-107.507 91.9926> 488 72<-141.203 -75.8125 75.8125 141.203>
CounterMasks: 1 e0
LayerCount: 3
Back
SplineSet
193 105 m 7x9a80
 198 105 202 100 202 97 c 7
 202 91 201 83 200 73 c 28
 200 63 202 57 202 46 c 7
 202 29 192 31 175 30 c 4
 154 29 149 31 136 22 c 4
 129 16 125 9 125 -0 c 7
 125 -10 154 -24 182 -31 c 4x9aa4
 197 -34 204 -32 204 -45 c 7
 204 -51 203 -61 203 -69 c 7
 203 -80 206 -83 206 -94 c 7
 206 -100 197 -106 188 -106 c 4
 179 -106 174 -102 164 -100 c 12
 156 -99 152 -101 143 -101 c 7
 132 -101 131 -89 131 -78 c 4
 131 -75 131 -73 131 -70 c 7
 131 -21 107 -18 104 -18 c 7
 92 -18 78 -59 73 -89 c 4
 71 -99 64 -104 54 -104 c 31
 46 -104 42 -102 33 -101 c 28x70b0
 26 -101 21 -102 15 -102 c 4
 5 -102 4 -96 4 -92 c 7
 4 -84 7 -88 7 -67 c 7
 7 -59 5 -51 5 -44 c 7
 5 -33 14 -32 28 -31 c 4
 54 -30 79 -20 79 1 c 7x90c0
 79 19 45 28 18 29 c 4
 10 29 2 29 2 36 c 7
 2 41 2 47 2 53 c 20
 2 65 0 71 0 82 c 4x91
 0 90 2 100 15 100 c 7
 23 100 18 98 45 98 c 7
 52 98 55 97 62 97 c 7
 73 97 73 85 73 77 c 4
 75 42 89 23 103 23 c 7
 120 23 127 55 130 81 c 4
 132 92 133 104 143 104 c 7
 150 104 154 103 168 103 c 7
 186 103 185 105 193 105 c 7x9a80
EndSplineSet
Fore
SplineSet
488 -109 m 3x9e
 488 -89 504 -73 524 -73 c 3
 544 -73 560 -89 560 -109 c 3
 560 -128 544 -144 524 -144 c 3
 504 -144 488 -128 488 -109 c 3x9e
488 109 m 3
 488 128 504 144 524 144 c 3
 544 144 560 128 560 109 c 3
 560 89 544 73 524 73 c 3xbe
 504 73 488 89 488 109 c 3
226 215 m 3
 367 215 448 110 448 -5 c 3
 448 -212 190 -403 25 -444 c 0
 21 -445 18 -445 15 -445 c 0
 6 -445 0 -441 0 -435 c 0
 0 -429 6 -421 19 -416 c 0
 213 -332 357 -207 357 5 c 3
 357 108 317 182 214 182 c 3
 142 182 84 145 84 100 c 3
 84 78 106 78 119 75 c 0
 158 66 178 44 178 7 c 3
 178 -32 151 -63 106 -63 c 3xde
 55 -63 23 -11 23 43 c 3
 23 143 116 215 226 215 c 3
EndSplineSet
EndChar

StartChar: Eacute
Encoding: 201 201 33
Width: 527
VWidth: 0
Flags: W
HStem: -531 30<222.043 327.673> -208 31<188.844 329.224> 861 95<293.998 338.639>
VStem: 0 53<-42.8393 145.304> 122 94<-472.418 -376.5> 153 37<-38.4991 82.1212> 247 21<249.565 277.076> 386 32<-440.011 -273.797> 395 35<589.191 788.018> 474 53<-77.3018 68.6387>
LayerCount: 3
Back
SplineSet
266 54 m 4xc060
 241 45 239 39 239 9 c 4
 239 2 239 -6 239 -16 c 7
 239 -51 243 -62 255 -62 c 4
 260 -62 268 -59 277 -56 c 4
 306 -45 307 -43 307 8 c 6
 307 12 l 6
 307 45 307 60 291 60 c 4
 285 60 277 58 266 54 c 4xc060
196 22 m 4
 193 22 188 21 184 21 c 4
 171 21 171 35 171 57 c 4
 171 58 171 58 171 59 c 4xc2
 171 71 171 83 186 89 c 4
 204 96 206 105 206 117 c 4
 206 120 206 124 206 127 c 15xc080
 206 157 205 179 205 203 c 7
 205 205 205 206 205 207 c 4
 205 227 206 238 225 238 c 7
 247 238 248 232 248 209 c 7xc1
 248 182 247 168 247 141 c 7
 247 127 248 118 259 118 c 4
 263 118 267 119 274 122 c 4
 299 130 300 136 300 152 c 31
 300 185 299 204 299 237 c 7
 299 243 299 247 299 251 c 4
 299 268 301 271 321 271 c 7
 331 271 342 270 342 256 c 7
 342 236 340 195 340 175 c 7xc2
 340 156 343 151 350 151 c 4
 353 151 359 153 362 153 c 4
 371 153 376 147 376 123 c 6
 376 121 l 6xc080
 376 94 376 90 359 84 c 4
 341 77 339 72 339 49 c 4
 339 43 339 36 339 27 c 7xc020
 339 -6 340 -22 353 -22 c 4
 357 -22 362 -20 365 -20 c 4
 373 -20 376 -26 376 -47 c 4
 376 -50 376 -53 376 -56 c 4xc080
 376 -79 375 -84 359 -90 c 4
 341 -97 340 -106 340 -117 c 4
 340 -120 340 -122 340 -125 c 7xc2
 340 -140 342 -167 342 -202 c 6
 342 -204 l 6
 342 -230 342 -239 321 -239 c 4
 319 -239 317 -239 315 -239 c 4
 305 -239 299 -237 299 -215 c 4
 299 -184 301 -167 301 -137 c 23
 301 -127 300 -119 288 -119 c 4
 284 -119 279 -120 272 -122 c 4
 247 -131 246 -138 246 -155 c 7
 246 -188 248 -203 248 -238 c 7
 248 -261 246 -272 225 -272 c 7
 206 -272 205 -260 205 -248 c 31xc1
 205 -219 207 -205 207 -175 c 7
 207 -156 207 -150 199 -150 c 4
 196 -150 187 -154 183 -154 c 4
 175 -154 171 -147 171 -120 c 4
 171 -116 171 -112 171 -108 c 4xc2
 171 -98 173 -90 189 -83 c 4
 207 -77 208 -70 208 -22 c 7
 208 12 207 22 196 22 c 4
112 23 m 6xd4
 112 53 107 59 97 59 c 4
 85 59 66 51 55 47 c 4
 43 43 39 34 39 11 c 6
 39 -38 l 6
 39 -55 45 -58 53 -58 c 4
 57 -58 86 -49 96 -45 c 4
 109 -40 112 -29 112 -16 c 4
 112 -12 112 -8 112 0 c 6
 112 23 l 6xd4
93 -113 m 7
 89 -113 77 -114 60 -121 c 5
 34 -130 35 -131 22 -131 c 7
 7 -131 6 -121 6 -100 c 4
 6 -98 6 -95 6 -92 c 6
 6 -89 l 6xd8
 6 7 7 2 7 43 c 7
 7 141 0 192 0 232 c 6
 0 247 l 6
 0 267 1 279 18 279 c 7
 36 279 43 277 43 259 c 7
 43 181 42 190 42 146 c 7
 42 121 48 114 58 114 c 7
 68 114 73 116 94 124 c 4
 114 132 123 135 130 135 c 4
 139 135 146 130 146 106 c 7
 146 40 144 59 144 -41 c 7xe4
 144 -150 152 -163 152 -264 c 7
 152 -276 142 -279 133 -279 c 6
 118 -279 l 6
 111 -279 107 -275 107 -247 c 7xc8
 107 -243 109 -182 109 -148 c 6
 109 -137 l 6
 109 -114 102 -113 95 -113 c 4
 94 -113 94 -113 93 -113 c 7
EndSplineSet
Fore
SplineSet
279 -208 m 0xfb40
 122 -208 0 -91 0 64 c 0
 0 189 61 268 127 333 c 0
 174 378 195 386 195 430 c 0
 195 452 191 472 183 504 c 0
 171 555 164 593 164 643 c 0
 164 716 182 781 219 845 c 0
 256 911 306 967 311 956 c 2
 339 956 430 811 430 686 c 0
 430 528 367 431 310 368 c 0
 279 334 268 320 268 300 c 0
 268 291 270 284 273 273 c 0
 286 215 283 211 330 208 c 0
 446 200 527 130 527 10 c 0
 527 -64 487 -120 430 -160 c 0xf2c0
 402 -181 390 -187 390 -207 c 0
 390 -215 391 -222 394 -234 c 2
 408 -292 l 2
 414 -317 418 -339 418 -365 c 0
 418 -455 372 -531 266 -531 c 0
 202 -531 122 -491 122 -402 c 0
 122 -351 154 -319 198 -319 c 0
 242 -319 264 -350 264 -386 c 0
 264 -440 216 -450 216 -471 c 0
 216 -484 226 -501 268 -501 c 0
 348 -501 386 -442 386 -369 c 0
 386 -349 384 -331 380 -312 c 2
 362 -242 l 2
 355 -212 346 -206 322 -206 c 0
 311 -206 293 -208 279 -208 c 0xfb40
395 696 m 0
 395 782 354 861 332 861 c 2
 331 861 l 2
 302 861 258 804 236 756 c 0
 212 702 203 652 203 600 c 0
 203 574 206 552 211 531 c 2
 222 483 l 2
 229 456 239 439 253 439 c 0
 268 439 289 451 321 490 c 0
 349 523 395 586 395 696 c 0
220 -75 m 0
 220 -81 216 -85 211 -85 c 0
 206 -85 200 -81 195 -76 c 0
 174 -49 153 -13 153 42 c 0
 153 83 165 124 200 161 c 0
 228 190 247 197 247 228 c 0
 247 239 245 248 241 263 c 0
 236 284 229 292 220 292 c 0
 212 292 204 287 194 283 c 0
 114 240 53 144 53 36 c 0
 53 -93 150 -177 278 -177 c 0
 317 -177 336 -165 336 -142 c 0
 336 -130 333 -120 330 -107 c 2
 287 73 l 2
 281 99 273 110 257 110 c 0
 222 110 190 72 190 24 c 0xf640
 190 -15 202 -34 216 -63 c 0xfa40
 219 -67 220 -71 220 -75 c 0
346 128 m 0
 325 128 313 123 313 107 c 0
 313 97 316 87 320 73 c 2
 360 -96 l 2
 367 -127 373 -141 386 -141 c 0xf340
 394 -141 403 -138 415 -130 c 0
 444 -113 474 -73 474 -11 c 0
 474 73 419 128 346 128 c 0
EndSplineSet
EndChar

StartChar: acircumflex
Encoding: 226 226 34
Width: 528
VWidth: 0
Flags: W
HStem: -399 28<330.231 404.217> -93 33<320.337 412.194> -40 80<178.445 234.754> 60 33<320.337 412.194> 371 28<330.231 404.217>
VStem: 0 87<-392 392> 143 132<-39.0938 39.5332> 143 35<-391.982 -40.0123 40.0123 391.982> 243 84<-369.654 -291.71 291.71 369.654> 264 28<-192.908 -126.351 126.351 192.908> 442 86<-318.644 -137.971 137.971 318.644>
LayerCount: 3
Back
SplineSet
275 0 m 5xfe20
 275 -38 291 -68 314 -68 c 4
 344 -68 350 -58 388 -58 c 7
 455 -58 528 -114 528 -227 c 7
 528 -336 461 -399 368 -399 c 7
 293.333 -399 242.574 -377 242.574 -331.394 c 4
 242.574 -304.43 259.033 -286.569 285.275 -286.569 c 4
 314.083 -286.569 329.054 -304.74 329.054 -331.658 c 4xfca0
 329.054 -336.085 328.873 -340.834 328.873 -346.057 c 4
 328.873 -361.092 344.323 -371 365 -371 c 7
 419 -371 442 -327 442 -239 c 7
 442 -157 431 -93 371 -93 c 7
 326 -93 296 -119 292 -175 c 4
 291 -186 289 -193 280 -193 c 4
 270 -193 264.707 -188.023 264 -177 c 4
 258 -83.5 236 -40 196 -40 c 4
 188 -40 178 -44 178 -70 c 6
 178 -372 l 6
 178 -386 177 -392 162 -392 c 4
 144 -392 143 -387 143 -373 c 6
 143 373 l 6
 143 387 144 392 162 392 c 4
 177 392 178 386 178 372 c 6
 178 70 l 6
 178 44 188 40 196 40 c 4
 236 40 258 83.5 264 177 c 4
 264.707 188.023 270 193 280 193 c 4
 289 193 291 186 292 175 c 4xfd60
 296 119 326 93 371 93 c 7
 431 93 442 157 442 239 c 7
 442 327 419 371 365 371 c 7
 344.323 371 328.873 361.092 328.873 346.057 c 4
 328.873 340.834 329.054 336.085 329.054 331.658 c 4
 329.054 304.74 314.083 286.569 285.275 286.569 c 4
 259.033 286.569 242.574 304.43 242.574 331.394 c 4
 242.574 377 293.333 399 368 399 c 7
 461 399 528 336 528 227 c 7
 528 114 455 58 388 58 c 7
 350 58 344 68 314 68 c 4
 291 68 275 39 275 0 c 5xfe20
87 372 m 6
 87 -372 l 6
 87 -387 77 -392 68 -392 c 6
 22 -392 l 6
 2 -392 0 -386 0 -375 c 6
 0 375 l 6
 0 386 2 392 22 392 c 6
 68 392 l 6
 77 392 87 387 87 372 c 6
EndSplineSet
Fore
SplineSet
275 0 m 3xfe20
 275 -40 291 -68 314 -68 c 0
 344 -68 348 -60 386 -60 c 3
 455 -60 528 -122 528 -227 c 3
 528 -342 454 -399 357 -399 c 3
 291 -399 243 -370 243 -331 c 0
 243 -306 258 -287 286 -287 c 0
 313 -287 327 -306 327 -332 c 2
 327 -342 l 2xfca0
 327 -360 336 -371 361 -371 c 3
 415 -371 442 -327 442 -239 c 3
 442 -157 431 -93 371 -93 c 3
 326 -93 296 -119 292 -175 c 0
 291 -186 289 -193 280 -193 c 0
 270 -193 265 -188 264 -177 c 0
 258 -84 236 -40 196 -40 c 0
 188 -40 178 -44 178 -70 c 2
 178 -372 l 2
 178 -386 177 -392 162 -392 c 0
 144 -392 143 -387 143 -373 c 2
 143 373 l 2
 143 387 144 392 162 392 c 0
 177 392 178 386 178 372 c 2
 178 70 l 2
 178 44 188 40 196 40 c 0
 236 40 258 84 264 177 c 0
 265 188 270 193 280 193 c 0
 289 193 291 186 292 175 c 0xfd60
 296 119 326 93 371 93 c 3
 431 93 442 157 442 239 c 3
 442 327 415 371 361 371 c 3
 336 371 327 360 327 342 c 2
 327 332 l 2
 327 306 313 287 286 287 c 0
 258 287 243 306 243 331 c 0xfca0
 243 370 291 399 357 399 c 3
 454 399 528 342 528 227 c 3
 528 122 455 60 386 60 c 3
 348 60 344 68 314 68 c 0
 291 68 275 41 275 0 c 3xfe20
87 372 m 2
 87 -372 l 2
 87 -387 77 -392 68 -392 c 2
 22 -392 l 2
 2 -392 0 -386 0 -375 c 2
 0 375 l 2
 0 386 2 392 22 392 c 2
 68 392 l 2
 77 392 87 387 87 372 c 2
EndSplineSet
EndChar

StartChar: eacute
Encoding: 233 233 35
Width: 507
Flags: W
HStem: -552 30<219.525 312.586> -202 31<184.968 307.592> 1040 29<249.658 307.286> 1133 21<242.872 314.254>
VStem: 0 49<-43.3842 132.691> 119 95<-496.155 -407> 148 40<-40.6342 79.7991> 203 24<983.328 1030.59> 206 30<1082.16 1127.85> 322 32<978.263 1026.92 1071.21 1127.18> 361 32<-472.272 -306.07 604.559 777.317> 456 51<-78.516 60.4014>
LayerCount: 3
Fore
SplineSet
300 66 m 1xf870
 338 -109 l 2
 346 -147 357 -161 391 -140 c 0
 433 -113 456 -74 456 -14 c 0
 456 61 408 100 346 114 c 0
 299 125 292 111 300 66 c 1xf870
275 477 m 0
 323 537 358 604 358 689 c 0
 358 776 318 856 305 856 c 0
 296 856 284 847 273 834 c 0
 226 780 169 684 200 537 c 2
 210 489 l 2
 220 444 234 425 275 477 c 0
253 289 m 2
 261 250 l 2
 270 210 269 203 326 199 c 0
 425 191 507 122 507 12 c 0
 507 -69 462 -133 397 -170 c 1
 361 -189 355 -193 363 -230 c 2
 385 -333 l 2
 391 -359 393 -380 393 -406 c 0
 393 -478 356 -552 261 -552 c 0
 197 -552 119 -510 119 -430 c 0
 119 -384 152 -348 192 -348 c 0
 230 -348 256 -374 256 -416 c 0
 256 -462 214 -472 214 -492 c 0xfc70
 214 -506 221 -522 263 -522 c 0
 330 -522 361 -462 361 -410 c 0
 361 -395 359 -371 355 -352 c 2
 331 -240 l 2
 324 -204 312 -202 268 -202 c 0
 111 -202 0 -83 0 59 c 0
 0 179 71 263 150 344 c 0
 190 384 195 402 183 458 c 2
 168 529 l 2
 139 666 168 824 235 921 c 0
 252 945 245 952 228 962 c 0
 212 972 203 987 203 1007 c 0xf970
 203 1034 224 1044 224 1056 c 0
 224 1068 206 1072 206 1100 c 0xf8f0
 206 1134 241 1154 277 1154 c 0
 313 1154 349 1140 349 1098 c 0
 349 1073 333 1069 333 1055 c 0
 333 1039 354 1036 354 1007 c 0
 354 991 346 977 332 966 c 0
 312 951 303 946 319 920 c 0
 356 863 398 756 398 658 c 0
 398 540 349 459 288 388 c 0
 256 352 244 329 253 289 c 2
167 265 m 0
 101 199 49 127 49 26 c 0
 49 -80 139 -171 267 -171 c 0
 304 -171 316 -162 307 -122 c 2
 267 64 l 2
 260 100 237 106 214 86 c 0xfc70
 196 70 188 51 188 22 c 0
 188 -17 197 -33 211 -62 c 0
 214 -66 215 -70 215 -74 c 0
 215 -80 211 -84 206 -84 c 0
 201 -84 195 -80 190 -75 c 0
 169 -48 148 -12 148 43 c 0xfaf0
 148 88 169 129 195 154 c 0
 230 188 240 190 230 238 c 2
 225 262 l 2
 218 296 200 298 167 265 c 0
277 1133 m 0
 260 1133 236 1128 236 1106 c 0xf8f0
 236 1080 276 1069 295 1069 c 0
 315 1069 326 1088 326 1100 c 0
 326 1121 305 1133 277 1133 c 0
262 1040 m 0
 242 1040 227 1022 227 1006 c 0xf970
 227 984 251 972 276 972 c 0
 303 972 322 982 322 1002 c 0
 322 1023 292 1040 262 1040 c 0
EndSplineSet
EndChar

StartChar: oslash
Encoding: 248 248 36
Width: 506
Flags: W
HStem: -734 22<225.583 299.017> -644 29<235.658 293.286> -551 34<224.327 306.471> -197 31<182.616 305.629>
VStem: 0 48<-40.3101 136.469> 114 137<-458.362 -366.626> 147 40<-36.0322 84.4202> 162 34<499.5 724.997> 189 24<-700.364 -653.411> 192 30<-601.836 -556.017> 308 32<-705.87 -657.076 -612.789 -556.748> 356 32<-467.876 -295.117> 363 40<590.069 791.977> 455 51<-74.1535 65.1613>
LayerCount: 3
Back
SplineSet
64 210 m 7
 121 210 151 145 151 85 c 7
 151 -45 77 -146 48 -146 c 7
 39 -146 32 -138 32 -129 c 7
 32 -99 108 -38 108 50 c 7
 108 65 88 81 77 81 c 7
 69 81 65 80 57 80 c 31
 22 80 0 96 0 149 c 7
 0 184 29 210 64 210 c 7
EndSplineSet
Fore
SplineSet
300 71 m 2xf82c
 336 -104 l 2
 342 -130 348 -146 363 -146 c 0
 370 -146 379 -142 389 -136 c 0
 431 -109 455 -69 455 -8 c 0
 455 66 407 104 346 119 c 0
 336 121 328 123 321 123 c 0
 304 123 297 114 297 97 c 0
 297 90 298 81 300 71 c 2xf82c
278 482 m 0
 328 543 363 609 363 696 c 0
 363 782 324 861 311 861 c 0
 302 861 290 852 279 839 c 0
 241 795 196 725 196 622 c 0xf92c
 196 597 198 571 204 543 c 2
 213 495 l 1xf8a4
 219 469 226 451 239 451 c 0
 248 451 261 460 278 482 c 0
168 271 m 0
 101 206 48 133 48 31 c 0
 48 -74 138 -165 265 -166 c 0
 294 -166 308 -160 308 -138 c 0
 308 -132 307 -125 305 -117 c 2
 267 69 l 2
 263 92 252 103 238 103 c 0
 231 103 222 99 214 92 c 0
 196 76 187 57 187 28 c 0
 187 -11 195 -27 209 -56 c 0
 212 -60 213 -64 213 -68 c 0
 213 -74 209 -78 204 -78 c 0
 199 -78 193 -74 188 -69 c 0
 167 -42 147 -6 147 49 c 0xfaa4
 147 94 169 135 195 160 c 0
 222 186 235 193 235 217 c 0
 235 224 233 233 231 244 c 2
 226 268 l 2
 222 286 216 295 206 295 c 0
 196 295 184 287 168 271 c 0
263 -551 m 0
 246 -551 222 -556 222 -578 c 0xf864
 222 -604 262 -615 281 -615 c 0
 301 -615 312 -596 312 -584 c 0
 312 -563 291 -551 263 -551 c 0
248 -644 m 0
 228 -644 213 -662 213 -678 c 0xf8a4
 213 -700 237 -712 262 -712 c 0
 289 -712 308 -702 308 -682 c 0
 308 -661 278 -644 248 -644 c 0
192 -584 m 0xf864
 192 -571 202 -558 202 -547 c 0
 202 -541 198 -536 187 -531 c 0xfa64
 146 -512 114 -476 114 -425 c 2
 114 -423 l 2
 114 -377 148 -342 188 -342 c 0
 226 -342 251 -370 251 -411 c 0xfc24
 251 -457 209 -466 209 -486 c 0
 209 -501 216 -517 259 -517 c 0
 325 -517 356 -458 356 -406 c 0
 356 -391 355 -367 351 -348 c 2
 328 -235 l 2
 321 -199 309 -197 265 -197 c 0
 109 -196 0 -76 0 65 c 0
 0 186 72 270 152 350 c 0
 180 378 192 395 192 423 c 0xf874
 192 434 190 447 186 464 c 2
 172 535 l 2
 165 570 162 605 162 641 c 0
 162 755 195 868 252 939 c 0
 267 958 280 968 284 968 c 0
 315 968 403 807 403 664 c 0xf92c
 403 545 352 463 290 393 c 0
 265 365 252 345 252 318 c 0
 252 310 253 303 255 294 c 2
 263 255 l 1
 270 215 270 209 327 204 c 0
 424 195 506 126 506 17 c 0
 506 -65 460 -130 395 -166 c 0
 368 -180 357 -186 357 -204 c 0
 357 -210 358 -217 360 -226 c 2
 381 -329 l 2
 387 -355 388 -376 388 -402 c 0
 387 -450 371 -498 333 -525 c 0
 325 -531 321 -536 321 -542 c 0
 321 -546 323 -551 327 -556 c 0
 332 -564 335 -574 335 -586 c 0
 335 -611 319 -615 319 -629 c 0
 319 -645 340 -648 340 -677 c 0
 340 -707 310 -734 264 -734 c 0
 220 -734 189 -713 189 -677 c 0xf8b4
 189 -650 210 -640 210 -628 c 0
 210 -616 192 -612 192 -584 c 0xf864
EndSplineSet
EndChar

StartChar: ucircumflex
Encoding: 251 251 37
Width: 1000
VWidth: 0
Flags: H
CounterMasks: 1 38
LayerCount: 3
Back
SplineSet
264.765 56 m 4
 264.765 92.4307 294.859 122.528 331.292 122.528 c 4
 367.724 122.528 396.235 92.4307 396.235 56 c 4
 396.235 19.5693 367.724 -10.5283 331.292 -10.5283 c 4
 294.859 -10.5283 264.765 19.5693 264.765 56 c 4
336 401 m 7
 521 401 644 239 660 57 c 4
 662 39 667 27 667 9 c 15
 667 1.30762 658 -1 650 -1 c 7
 625 -1 638 49 618 104 c 4
 587 185 498 283 360 283 c 7
 141 283 71 156 46 66 c 4
 33.7204 21.7935 29.2627 -29 12 -29 c 7
 2 -29 0 -16 0 -5 c 7
 0 128 70 282 168 353 c 4
 206 380 273 401 336 401 c 7
EndSplineSet
EndChar

StartChar: edieresis
Encoding: 235 235 38
Width: 560
VWidth: 0
Flags: W
HStem: -144 71<490.812 557.188> -63 138<85.6477 160.019> 73 71<490.812 557.188> 182 48<177.778 265.445> 298 29<197.658 255.286> 391 21<190.872 262.254>
VStem: 23 61<16 121.088> 151 24<241.041 288.589> 154 30<340.164 385.854> 270 32<235.974 284.924 329.211 385.182> 357 91<-107.507 91.6029> 488 72<-141.203 -75.8125 75.8125 141.203>
LayerCount: 3
Fore
SplineSet
488 109 m 0xbe70
 488 128 504 144 524 144 c 0
 544 144 560 128 560 109 c 0
 560 89 544 73 524 73 c 0
 504 73 488 89 488 109 c 0xbe70
488 -109 m 0
 488 -89 504 -73 524 -73 c 0
 544 -73 560 -89 560 -109 c 0
 560 -128 544 -144 524 -144 c 0
 504 -144 488 -128 488 -109 c 0
225 412 m 0
 261 412 297 398 297 356 c 0
 297 331 281 327 281 313 c 0
 281 297 302 294 302 265 c 0
 302 255 299 246 293 238 c 0
 282 222 272 212 296 205 c 0
 394 177 448 89 448 -5 c 0
 448 -212 190 -403 25 -444 c 0
 21 -445 18 -445 15 -445 c 0
 6 -445 0 -441 0 -435 c 0
 0 -429 6 -421 19 -416 c 0
 213 -332 357 -207 357 5 c 0
 357 108 317 182 214 182 c 0
 142 182 84 145 84 100 c 0
 84 78 106 78 119 75 c 0
 158 66 178 44 178 7 c 0
 178 -32 151 -63 106 -63 c 0
 55 -63 23 -11 23 43 c 0
 23 117 75 176 146 202 c 0
 170 210 168 221 158 238 c 0
 153 246 151 255 151 265 c 0xdf70
 151 292 172 302 172 314 c 0
 172 326 154 330 154 358 c 0xdef0
 154 392 189 412 225 412 c 0
225 391 m 0
 208 391 184 386 184 364 c 0x9ef0
 184 338 224 327 243 327 c 0
 263 327 274 346 274 358 c 0
 274 379 253 391 225 391 c 0
210 298 m 0
 190 298 175 280 175 264 c 0x9f70
 175 242 199 230 224 230 c 0
 251 230 270 240 270 260 c 0
 270 281 240 298 210 298 c 0
EndSplineSet
EndChar

StartChar: igrave
Encoding: 236 236 39
Width: 560
VWidth: 0
Flags: HW
HStem: -3 22<36.5829 110.017> 87 29<46.6582 104.286> 180 21<39.8717 111.254>
VStem: 0 24<30.6357 77.5889> 3 30<129.164 174.854> 119 32<25.1302 73.9238 118.211 174.182>
LayerCount: 3
Fore
SplineSet
253 -515 m 0xf4
 233 -515 218 -533 218 -549 c 0
 218 -571 242 -583 267 -583 c 0
 294 -583 313 -573 313 -553 c 0
 313 -532 283 -515 253 -515 c 0xf4
268 -422 m 0
 251 -422 227 -427 227 -449 c 0xec
 227 -475 267 -486 286 -486 c 0
 306 -486 317 -467 317 -455 c 0
 317 -434 296 -422 268 -422 c 0
268 -401 m 0
 304 -401 340 -415 340 -457 c 0
 340 -482 324 -486 324 -500 c 0
 324 -516 345 -519 345 -548 c 0
 345 -578 315 -605 269 -605 c 0
 225 -605 194 -584 194 -548 c 0xf4
 194 -521 215 -511 215 -499 c 0
 215 -487 197 -483 197 -455 c 0
 197 -421 232 -401 268 -401 c 0
488 -109 m 3x9e
 488 -89 504 -73 524 -73 c 3
 544 -73 560 -89 560 -109 c 3
 560 -128 544 -144 524 -144 c 3
 504 -144 488 -128 488 -109 c 3x9e
488 109 m 3
 488 128 504 144 524 144 c 3
 544 144 560 128 560 109 c 3
 560 89 544 73 524 73 c 3xbe
 504 73 488 89 488 109 c 3
226 215 m 3
 367 215 448 110 448 -5 c 3
 448 -212 190 -403 25 -444 c 0
 21 -445 18 -445 15 -445 c 0
 6 -445 0 -441 0 -435 c 0
 0 -429 6 -421 19 -416 c 0
 213 -332 357 -207 357 5 c 3
 357 108 317 182 214 182 c 3
 142 182 84 145 84 100 c 3
 84 78 106 78 119 75 c 0
 158 66 178 44 178 7 c 3
 178 -32 151 -63 106 -63 c 3xde
 55 -63 23 -11 23 43 c 3
 23 143 116 215 226 215 c 3
EndSplineSet
EndChar

StartChar: Abreve
Encoding: 258 258 40
Width: 679
VWidth: 0
Flags: HW
LayerCount: 3
Back
SplineSet
150 195 m 7
 89 195 52 145 52 88 c 7
 52 35 87 7 164 7 c 7
 212 7 263 33 263 81 c 7
 263 110 237 132 209 158 c 4
 189 176 169 195 150 195 c 7
238 412 m 31
 196 412 147 389 147 354 c 7
 147 336 176 303 206 275 c 4
 225 256 244 238 260 238 c 7
 290 238 333 290 333 338 c 7
 333 391 285 412 238 412 c 31
233 438 m 7
 306 438 373 397 373 327 c 7
 373 240 277 247 277 226 c 7
 277 197 332 188 332 123 c 7
 332 20 243 -14 155 -14 c 31
 79 -14 0 26 0 105 c 7
 0 140 31 172 62 188 c 4
 92 206 122 208 122 215 c 7
 122 244 72 251 72 312 c 7
 72 366 96 394 142 416 c 4
 171 430 203 438 233 438 c 7
EndSplineSet
Fore
SplineSet
221 -484 m 2
 221 -504 219 -510 198 -510 c 0
 174 -510 174 -505 174 -486 c 2
 174 486 l 2
 174 505 174 510 198 510 c 0
 219 510 221 504 221 484 c 2
 221 -484 l 2
104 485 m 2
 104 506 97 510 78 510 c 2
 31 510 l 2
 3 510 0 503 0 487 c 2
 0 -487 l 2
 0 -503 3 -510 31 -510 c 2
 78 -510 l 2
 97 -510 104 -506 104 -485 c 2
 104 485 l 2
EndSplineSet
EndChar

StartChar: lcommaaccent
Encoding: 316 316 41
Width: 0
VWidth: 0
Flags: H
LayerCount: 3
Back
SplineSet
254 -88 m 4xb0
 247 -88 236 -77 236 -68 c 4
 236 -62 240 -56 247 -46 c 6
 355 96 l 6
 369 113 379 122 390 122 c 4
 399 122 408 115 419 101 c 6
 464 41 l 6
 475 27 493 8 505 8 c 4xb0
 514 8 520 17 520 42 c 4
 520 91 519 115 519 175 c 4
 519 212 520 212 537 212 c 4
 552 212 554 210 554 167 c 4
 554 135 553 121 553 92 c 4
 553 81 555 68 563 68 c 4
 567 68 574 72 582 83 c 6
 594 99 l 6
 605 114 616 121 626 121 c 4
 636 121 645 115 654 102 c 6
 703 38 l 6
 717 20 728 11 739 11 c 4
 751 11 763 22 780 44 c 6
 805 77 l 6
 811 84 815 87 820 87 c 4
 827 87 837 75 837 67 c 4
 837 61 832 54 823 41 c 6
 722 -92 l 6
 707 -112 696 -121 685 -121 c 4
 673 -121 662 -110 647 -90 c 6
 607 -38 l 6
 592 -19 579 -6 569 -6 c 4x70
 558 -6 552 -19 552 -50 c 4
 553 -102 554 -147 554 -188 c 4
 554 -207 553 -212 538 -212 c 4
 520 -212 519 -209 519 -186 c 6
 519 -92 l 6
 519 -78 517 -67 510 -67 c 4
 506 -67 500 -72 492 -82 c 6
 482 -96 l 5
 469 -112 458 -119 448 -119 c 4
 436 -119 425 -109 412 -93 c 6
 361 -26 l 6
 349 -10 341 -3 333 -3 c 4
 324 -3 316 -14 304 -30 c 6
 271 -74 l 6
 263 -84 258 -88 254 -88 c 4xb0
EndSplineSet
EndChar

StartChar: Ohungarumlaut
Encoding: 336 336 42
Width: 789
VWidth: 0
Flags: W
HStem: -650 36<-7.16667 43.8171> -174 108<691.676 777.736> -112 226<82.4802 201.672> 74 108<691.676 777.736> 235 35<188.65 354>
VStem: 14 235<-52.8203 66.6718> 477 123<-180.423 75.9453> 681 108<-162.537 -77.4629 85.4629 170.537>
LayerCount: 3
Back
SplineSet
-2 0 m 7
 -2 108 80 185 98 185 c 7
 105 185 106 183 106 178 c 7
 106 162 32 115 32 0 c 1031
95 185 m 0
 108 184 110 181 109 179 c 0
 63 113 32 75 32 0 c 0
 32 -76 63 -114 109 -179 c 0
 112 -183 101 -185 95 -185 c 0
 89 -185 77 -185 75 -181 c 0
 29 -116 -2 -77 -2 0 c 0
 -2 76 29 115 75 181 c 0
 76 183 83 186 95 185 c 0
EndSplineSet
Fore
SplineSet
136 114 m 3xaf
 199 114 249 64 249 1 c 0
 249 -62 199 -112 136 -112 c 0
 71 -112 14 -59 14 35 c 0
 14 154 126 270 292 270 c 3
 488 270 600 134 600 -52 c 0
 600 -357 255 -618 -6 -650 c 1
 -12 -614 l 1
 279 -550 477 -344 477 -32 c 3
 477 123 417 235 271 235 c 3
 180 235 112 188 81 131 c 0
 75 120 89 103 98 107 c 0
 106 110 121 114 136 114 c 3xaf
681 -120 m 0
 681 -90 705 -66 735 -66 c 0
 763 -66 789 -90 789 -120 c 0
 789 -150 763 -174 735 -174 c 0xcf
 705 -174 681 -150 681 -120 c 0
681 128 m 0
 681 158 705 182 735 182 c 0
 763 182 789 158 789 128 c 0
 789 98 763 74 735 74 c 0x9f
 705 74 681 98 681 128 c 0
EndSplineSet
EndChar

StartChar: OE
Encoding: 338 338 43
Width: 789
VWidth: 0
Flags: W
HStem: -650 36<-7.16667 43.8171> -174 108<691.676 777.736> -112 226<82.4802 201.672> 74 108<691.676 777.736> 235 48<258.996 348.328> 507 16<281.809 335.882>
VStem: 14 235<-52.8203 64.9479> 217 31<299.423 369.3> 228 39<441.994 500.066> 353 41<294.72 358.953> 354 28<430.712 495.852> 477 123<-180.423 75.3732> 681 108<-162.537 -77.4629 85.4629 170.537>
LayerCount: 3
Back
SplineSet
0 6 m 3
 0 125 91 264 117 264 c 3
 123 264 131 262 131 253 c 3
 131 238 45 170 45 -9 c 3
 45 -182 131 -218 131 -245 c 7
 131 -252 129 -264 116 -264 c 7
 104 -264 0 -152 0 6 c 3
EndSplineSet
Fore
SplineSet
681 128 m 0x9c18
 681 158 705 182 735 182 c 0
 763 182 789 158 789 128 c 0
 789 98 763 74 735 74 c 0
 705 74 681 98 681 128 c 0x9c18
681 -120 m 0
 681 -90 705 -66 735 -66 c 0
 763 -66 789 -90 789 -120 c 0
 789 -150 763 -174 735 -174 c 0xcc18
 705 -174 681 -150 681 -120 c 0
136 114 m 0xac58
 199 114 249 64 249 1 c 0
 249 -62 199 -112 136 -112 c 0
 71 -112 14 -59 14 35 c 0xae58
 14 142 104 246 242 266 c 0
 250 267 250 280 244 284 c 0
 227 296 217 313 217 330 c 0xad18
 217 356 232 375 258 389 c 0
 265 393 262 403 257 407 c 0
 240 420 228 436 228 459 c 0
 228 495 266 523 310 523 c 0
 355 523 382 498 382 466 c 0xacb8
 382 445 371 429 356 417 c 0
 348 411 352 403 355 400 c 0
 377 385 394 367 394 340 c 0
 394 317 380 296 359 283 c 0
 351 278 353 265 359 264 c 0
 513 236 600 112 600 -52 c 0
 600 -357 255 -618 -6 -650 c 1
 -12 -614 l 1
 279 -550 477 -344 477 -32 c 0
 477 123 417 235 271 235 c 0
 180 235 112 188 81 131 c 0
 75 120 89 103 98 107 c 0
 106 110 121 114 136 114 c 0xac58
353 321 m 0
 353 353 320 369 288 387 c 1
 263 376 248 360 248 334 c 0x8d58
 248 310 270 283 304 283 c 0
 332 283 353 301 353 321 c 0
267 475 m 0x8cb8
 267 449 295 434 325 418 c 1
 343 429 354 446 354 464 c 0
 354 488 337 507 310 507 c 0
 283 507 267 491 267 475 c 0x8cb8
EndSplineSet
EndChar

StartChar: Racute
Encoding: 340 340 44
Width: 789
VWidth: 0
Flags: W
HStem: -828 18<226 267.733 327.488 371 437.341 486.059> -699 18<436.991 484.583> -650 36<-7.16667 43.8171> -620 42<424 499.162> -174 108<691.676 777.736> -112 226<82.4802 201.672> 74 108<691.676 777.736> 235 35<188.65 354>
VStem: 14 235<-52.8203 66.6718> 275 46<-808.87 -633.77> 393 50<-813.419 -760.332> 406 18<-687.895 -620.774> 477 123<-180.423 75.9453> 501 50<-804.146 -704.068> 681 108<-162.537 -77.4629 85.4629 170.537>
LayerCount: 3
Back
SplineSet
0 9 m 7
 0 210 149 391 183 391 c 7
 192 391 202 387 202 379 c 7
 202 349 58 292 58 0 c 7
 58 -273 196 -349 196 -376 c 7
 196 -386 185 -391 175 -391 c 7
 158 -391 0 -226 0 9 c 7
EndSplineSet
Fore
SplineSet
453 -814 m 0xd1e6
 488 -814 501 -789 501 -750 c 0
 501 -717 483 -699 461 -699 c 0
 443 -699 426 -710 417 -724 c 0
 406 -719 l 0
 406 -578 l 0
 537 -578 l 0
 528 -611 483 -624 437 -620 c 0
 430 -620 424 -627 424 -630 c 0
 424 -678 l 0xd1d6
 424 -683 433 -691 440 -688 c 0
 450 -684 462 -681 476 -681 c 0
 511 -681 551 -701 551 -752 c 0
 551 -802 505 -831 465 -831 c 0
 423 -831 393 -814 393 -786 c 0
 393 -773 402 -760 419 -760 c 0
 432 -760 443 -769 443 -783 c 0
 443 -794 437 -798 437 -806 c 0
 437 -812 443 -814 453 -814 c 0xd1e6
258 -634 m 0
 216 -668 l 0
 206 -656 l 0
 290 -578 l 0
 321 -578 l 0
 321 -781 l 0
 321 -804 336 -810 352 -810 c 0
 371 -810 l 0
 371 -828 l 0
 226 -828 l 0
 226 -810 l 0
 244 -810 l 0
 259 -810 275 -802 275 -782 c 0
 275 -638 l 0
 275 -630 263 -629 258 -634 c 0
136 114 m 3xe5ca
 199 114 249 64 249 1 c 0
 249 -62 199 -112 136 -112 c 0
 71 -112 14 -59 14 35 c 0
 14 154 126 270 292 270 c 3
 488 270 600 134 600 -52 c 0
 600 -357 255 -618 -6 -650 c 1
 -12 -614 l 1
 279 -550 477 -344 477 -32 c 3
 477 123 417 235 271 235 c 3
 180 235 112 188 81 131 c 0
 75 120 89 103 98 107 c 0
 106 110 121 114 136 114 c 3xe5ca
681 -120 m 0
 681 -90 705 -66 735 -66 c 0
 763 -66 789 -90 789 -120 c 0
 789 -150 763 -174 735 -174 c 0xc9c2
 705 -174 681 -150 681 -120 c 0
681 128 m 0
 681 158 705 182 735 182 c 0
 763 182 789 158 789 128 c 0
 789 98 763 74 735 74 c 0xc3c2
 705 74 681 98 681 128 c 0
EndSplineSet
EndChar

StartChar: q
Encoding: 113 113 45
Width: 189
Flags: HW
HStem: -4 24<47.351 135.77> 108 38<59.051 130.005> 229 22<50.547 136.038>
VStem: 0 26<38.0137 94.3463> 4 35<166.623 221.662> 151 38<29.315 88.0179 148.926 220.19>
LayerCount: 3
Back
SplineSet
131 -110 m 0
 241 0 l 0
 131 110 l 0
 21 0 l 0
 131 -110 l 0
267 0 m 0
 131 -136 l 0
 -5 0 l 0
 131 136 l 0
 267 0 l 0
EndSplineSet
Fore
SplineSet
70 108 m 0xf4
 45 108 26 86 26 66 c 0
 26 36 60 20 91 20 c 0
 126 20 151 34 151 59 c 0
 151 85 107 108 70 108 c 0xf4
93 229 m 0
 72 229 39 224 39 195 c 0xec
 39 163 94 146 118 146 c 0
 143 146 157 169 157 184 c 0
 157 209 132 229 93 229 c 0
93 251 m 0
 138 251 183 233 183 181 c 0
 183 150 161 144 161 128 c 0
 161 111 189 103 189 67 c 0
 189 30 152 -4 94 -4 c 0
 39 -4 0 23 0 68 c 0xf4
 0 102 27 114 27 129 c 0
 27 144 4 148 4 184 c 0
 4 227 48 251 93 251 c 0
EndSplineSet
EndChar

StartChar: space
Encoding: 32 32 46
Width: 181
Flags: HMW
LayerCount: 3
Back
SplineSet
122 262 m 4
 127 262 131 258 131 248 c 4
 131 52 l 4
 131 20 146 28 171 24 c 4
 181 22 181 18 181 12 c 4
 181 3 179 0 169 0 c 4
 32 0 l 4
 23 0 21 3 21 11 c 4
 21 16 22 22 31 23 c 4
 64 27 74 24 74 60 c 4
 74 153 l 4
 74 163 71 167 67 167 c 4
 64 167 59 164 54 158 c 4
 18 121 l 4
 15 117 11 115 8 115 c 4
 4 115 0 118 0 122 c 4
 0 124 1 126 2 129 c 4
 68 240 l 4
 79 258 79 262 90 262 c 4
 96 262 99 261 106 261 c 4
 113 261 114 262 122 262 c 4
EndSplineSet
EndChar

StartChar: v
Encoding: 118 118 47
Width: 752
VWidth: 0
Flags: W
HStem: -645 28<-5.90624 28.3832> -175 110<652.743 740.669> -103 203<86.7544 200.683> 73 110<652.743 740.669> 236 34<182.624 345.682>
VStem: 14 54<-6.5 125.717> 457 128<-171.622 85.2621> 642 110<-163.462 -76.538 84.538 171.462>
LayerCount: 3
Back
SplineSet
214 427 m 31xc8
 214 411 222 404 231 391 c 4
 276 330 321 311 358 262 c 4
 360 259 363 257 366 257 c 4
 373 257 379 265 379 277 c 7
 379 347 304 448 232 448 c 7
 218 448 214 438 214 427 c 31xc8
414 283 m 7
 414 237 398 236 398 199 c 7
 398 169 424 149 424 68 c 7
 424 4 411 -31 404 -58 c 4
 401 -70 391 -80 381 -80 c 7
 372 -80 372 -68 372 -57 c 7
 372 -30 390 -21 390 61 c 7
 390 149 306 279 234 279 c 7
 212 279 212 273 212 227 c 6
 212 178 l 6xd4
 212 118 213 96 213 32 c 7
 213 -41 148 -98 68 -98 c 7
 17 -98 0 -55 0 -30 c 7xe0
 0 17 41 96 145 96 c 7
 153 96 157 94 164 94 c 7
 178 94 179 105 179 146 c 6
 179 348 l 6xd0
 179 451 177 531 177 612 c 7
 177 622 181 642 191 642 c 7
 217 642 211 611 214 596 c 4
 218 578 222 573 231 560 c 4
 297 465 414 439 414 283 c 7
EndSplineSet
Fore
SplineSet
457 -36 m 1xaf
 456 137 407 236 261 236 c 3
 154 236 68 155 68 101 c 3
 68 93 77 83 86 87 c 0
 102 94 124 100 146 100 c 3
 203 100 246 63 246 2 c 3
 246 -58 193.158 -103 133 -103 c 27
 63.1074 -103 14 -44 14 31 c 3
 14 156 119 270 282 270 c 3
 478 270 584 138 585 -37 c 1
 585 -366 213 -601 3 -645 c 0
 -2 -646 -4 -645 -6 -642 c 0
 -7 -640 -10 -628 -11 -625 c 0
 -12 -620 -12 -619 -6 -617 c 0
 240 -540 457 -389 457 -36 c 1xaf
642 -120 m 0
 642 -89 666 -65 697 -65 c 0
 726 -65 752 -89 752 -120 c 0
 752 -151 726 -175 697 -175 c 0xcf
 666 -175 642 -151 642 -120 c 0
642 128 m 0
 642 159 666 183 697 183 c 0
 726 183 752 159 752 128 c 0
 752 97 726 73 697 73 c 0x9f
 666 73 642 97 642 128 c 0
EndSplineSet
EndChar

StartChar: w
Encoding: 119 119 48
Width: 709
Flags: W
HStem: -690 34<262.287 410.186> -270 31<262.31 459.765> 149 130<425 536.453> 1247 20G<446.5 448>
VStem: 0 69<-44.5643 155.107> 113 141<-629.5 -476.5> 189 68<-41.2767 83.8953> 510 34<-554.285 -349.033> 551 37<884.057 1050.29> 634 75<-91.9745 66.8908>
LayerCount: 3
Back
SplineSet
237 -634 m 4xf9c0
 259 -645 272 -652 317 -652 c 4
 416 -652 492 -580 492 -462 c 4
 492 -412 478 -346 465 -272 c 4
 464 -264 458 -262 449 -262 c 4
 423 -266 398 -268 373 -268 c 4
 173 -268 0 -127 0 73 c 4
 0 296 159 456 304 582 c 4
 310 588 312 594 311 602 c 6
 307 627 l 6
 302 656 276 769 276 846 c 4xf3c0
 276 1062 431 1231 483 1263 c 4
 489 1267 489 1268 495 1263 c 4
 523 1236 619 1103 619 943 c 4
 619 746 516 586 379 472 c 4
 373 467 371 462 371 455 c 4
 371 453 371 451 372 449 c 6
 399 291 l 6
 402 279 410 280 422 280 c 4
 581 280 708 161 708 11 c 4
 708 -118 621 -206 510 -245 c 4
 505 -247 497 -255 498 -263 c 4
 511 -339 526 -413 526 -463 c 4
 526 -598 435 -687 323 -687 c 4
 209 -687 93 -612 93 -501 c 7
 93 -435 146 -377 212 -377 c 4
 278 -377 331 -430 331 -496 c 4
 331 -553 290 -602 236 -612 c 4
 228 -614 230 -630 237 -634 c 4xf9c0
367 639 m 4
 458 716 583 838 583 982 c 4
 583 1022 573 1059 556 1096 c 4
 552 1106 539 1112 528 1108 c 4
 442 1078 321 958 321 782 c 4
 321 746 326 705 335 660 c 6
 338 644 l 6
 340 629 358 632 367 639 c 4
372 -237 m 4
 399 -237 459 -238 455 -214 c 6
 394 129 l 6
 393 134 384 143 376 141 c 4
 288 125 255 73 255 14 c 4
 255 -34 277 -73 304 -116 c 4
 309 -124 307 -127 297 -123 c 4
 234 -96 189 -26 189 52 c 4xf5c0
 189 156 265 242 357 269 c 4
 366 272 369 276 367 285 c 6
 343 418 l 6
 342 425 335 429 329 429 c 4
 324 429 320 427 316 424 c 4
 203 329 68 222 68 37 c 4
 68 -133 201 -237 372 -237 c 4
451 149 m 4
 437 149 425 145 428 131 c 6
 488 -205 l 6
 489 -213 497 -218 503 -215 c 4
 580 -180 631 -135 631 -20 c 4
 631 78 566 149 451 149 c 4
EndSplineSet
Fore
SplineSet
231 -385 m 0xfdc0
 296 -385 350 -436 350 -503 c 0
 350 -558 312 -607 259 -619 c 0
 256 -620 254 -623 254 -627 c 0
 254 -632 257 -639 261 -641 c 0
 280 -650 294 -656 328 -656 c 0
 434 -656 510 -588 510 -469 c 0
 510 -412 493 -350 476 -271 c 0
 475 -263 469 -261 460 -261 c 1
 429 -267 402 -270 369 -270 c 0
 170 -270 0 -132 0 75 c 0
 0 289 149 449 286 577 c 0
 291 582 292 586 292 592 c 0
 292 594 292 595 292 597 c 2
 287 622 l 2
 280 654 249 776 249 857 c 0
 249 1065 391 1231 441 1264 c 0
 444 1266 446 1267 447 1267 c 0
 449 1267 450 1266 453 1264 c 0
 484 1236 588 1096 588 929 c 0
 588 741 493 585 365 470 c 0
 359 465 357 459 357 452 c 0
 357 450 357 449 358 447 c 2
 391 290 l 2
 394 280 400 279 409 279 c 0
 411 279 412 279 414 279 c 0
 418 279 422 279 426 279 c 0
 583 279 709 164 709 10 c 0
 709 -113 628 -200 521 -242 c 0
 516 -244 509 -252 509 -260 c 0
 509 -261 l 0
 526 -343 544 -412 544 -471 c 0
 544 -603 455 -690 340 -690 c 0
 229 -690 113 -620 113 -509 c 0
 113 -444 163 -385 231 -385 c 0xfdc0
347 636 m 0
 433 714 551 838 551 978 c 0
 551 1024 539 1061 520 1100 c 0
 517 1108 508 1112 499 1112 c 0
 496 1112 494 1112 491 1111 c 0
 408 1079 296 960 296 791 c 0
 296 746 302 707 314 656 c 2
 318 640 l 2
 319 632 325 630 330 630 c 0
 336 630 343 632 347 636 c 0
367 -239 m 0
 395 -239 464 -239 464 -216 c 0
 464 -215 464 -214 464 -213 c 2
 392 127 l 2
 391 132 383 139 375 139 c 0
 375 139 374 139 373 139 c 0
 289 121 257 70 257 13 c 0
 257 -39 281 -78 310 -121 c 0
 312 -124 313 -126 313 -127 c 0
 313 -129 312 -130 310 -130 c 0
 308 -130 306 -129 303 -128 c 0
 237 -102 189 -32 189 51 c 0xfbc0
 189 152 261 237 350 266 c 0
 357 268 360 271 360 277 c 0
 360 278 359 280 359 282 c 2
 330 415 l 2
 329 422 322 425 316 425 c 0
 311 425 307 423 303 420 c 0
 195 323 69 214 69 36 c 0
 69 -138 200 -239 367 -239 c 0
634 -26 m 0
 634 78 572 149 458 149 c 0
 454 149 451 149 448 149 c 0
 435 149 425 146 425 135 c 0
 425 134 425 132 425 131 c 2
 497 -203 l 2
 498 -209 503 -213 508 -213 c 0
 509 -213 511 -213 512 -212 c 0
 585 -175 634 -131 634 -26 c 0
EndSplineSet
EndChar

StartChar: uni0091
Encoding: 145 145 49
Width: 518
VWidth: 0
Flags: HMW
LayerCount: 3
Fore
SplineSet
317 86 m 2
 350 -85 l 2
 356 -115 362 -130 375 -130 c 0
 382 -130 392 -124 405 -112 c 0
 439 -82 461 -39 461 10 c 0
 461 73 415 126 356 138 c 0
 348 140 341 140 336 140 c 0
 318 140 312 132 312 118 c 0
 312 110 314 99 317 86 c 2
247 272 m 0
 241 300 235 312 226 312 c 0
 216 312 202 298 182 276 c 0
 119 209 67 140 67 38 c 0
 67 -75 164 -160 277 -160 c 0
 313 -160 322 -146 322 -127 c 0
 322 -117 320 -106 318 -94 c 2
 284 80 l 2
 280 104 271 119 259 119 c 0
 252 119 243 114 233 104 c 0
 216 88 206 66 206 41 c 0
 206 5 224 -21 240 -44 c 0
 243 -49 245 -53 245 -56 c 0
 245 -61 242 -63 238 -63 c 0
 235 -63 230 -62 226 -58 c 1
 187 -31 162 20 162 56 c 0
 162 101 179 134 206 166 c 0
 235 201 251 204 251 236 c 0
 251 245 250 256 247 272 c 0
192 664 m 0
 192 610 217 484 249 484 c 0
 263 484 281 505 306 547 c 0
 329 587 344 632 344 684 c 0
 344 800 310 858 280 858 c 0
 241 858 192 755 192 664 c 0
194 -581 m 0
 194 -567 202 -552 202 -540 c 0
 202 -530 196 -522 182 -509 c 0
 161 -489 147 -462 147 -430 c 0
 147 -391 174 -356 213 -356 c 0
 247 -356 276 -381 276 -415 c 0
 276 -460 236 -464 236 -486 c 0
 236 -500 252 -508 267 -508 c 0
 326 -508 366 -447 366 -373 c 0
 366 -332 356 -275 346 -234 c 0
 337 -194 328 -193 278 -193 c 0
 105 -193 0 -70 0 83 c 0
 0 199 62 283 130 351 c 0
 166 388 191 411 191 458 c 0
 191 477 186 501 177 532 c 0
 159 590 144 648 144 696 c 0
 144 820 216 958 255 958 c 0
 293 958 390 808 390 657 c 0
 390 561 360 489 318 429 c 0
 289 387 272 369 272 330 c 0
 272 318 274 305 277 288 c 0
 290 224 290 230 360 216 c 1
 448 197 518 123 518 30 c 0
 518 -47 477 -113 416 -152 c 0
 386 -172 375 -177 375 -198 c 0
 375 -205 376 -213 378 -224 c 0
 387 -269 398 -333 398 -382 c 0
 398 -430 379 -477 347 -507 c 0
 336 -517 331 -522 331 -530 c 0
 331 -535 334 -542 339 -552 c 0
 343 -560 345 -569 345 -579 c 0
 345 -599 330 -614 330 -626 c 0
 330 -639 351 -644 351 -672 c 0
 351 -704 319 -735 270 -735 c 0
 230 -735 191 -716 191 -678 c 0
 191 -642 213 -639 213 -625 c 0
 213 -615 194 -611 194 -581 c 0
272 -546 m 0
 254 -546 227 -550 227 -572 c 0
 227 -598 268 -608 289 -608 c 0
 311 -608 315 -590 315 -577 c 0
 315 -562 299 -546 272 -546 c 0
251 -641 m 0
 236 -641 221 -655 221 -672 c 0
 221 -693 239 -707 265 -707 c 0
 292 -707 309 -699 309 -679 c 0
 309 -659 282 -641 251 -641 c 0
EndSplineSet
EndChar

StartChar: cedilla
Encoding: 184 184 50
Width: 711
Flags: W
HStem: -1266 120<226 286.839> 238 29<259.547 430.283> 399 168<377.976 463.177> 658 35<281.627 418.579>
VStem: 0 68<-76.5257 89.9644> 138 46<-1067.47 -861.379> 162 38<332.039 574.612> 456 65<-98.5345 32.2196> 465 74<475 592.615> 647 64<-164.433 55.775>
LayerCount: 3
Back
SplineSet
139 32 m 2xa5
 139 70 137 80 124 80 c 0
 109 80 72 67 58 62 c 0
 40 56 39 46 39 16 c 0
 39 11 39 4 39 -3 c 2
 39 -53 l 2
 39 -75 39 -83 49 -83 c 0
 54 -83 109 -67 122 -62 c 0
 134 -57 136 -52 137 -46 c 0
 139 -37 139 -17 139 1 c 2
 139 32 l 2xa5
121 -167 m 0x62
 112 -167 27 -202 15 -202 c 0
 1 -202 1 -188 1 -149 c 0
 1 -148 1 -146 1 -145 c 3x86
 1 -24 2 3 2 55 c 3
 2 179 -7 250 -7 300 c 2
 -7 319 l 2
 -7 345 -6 360 15 360 c 3
 38 360 44 357 44 334 c 3
 44 235 43 252 43 196 c 3
 43 173 47 167 56 167 c 0x98
 65 167 78 173 112 185 c 0
 137 195 153 203 163 203 c 0
 174 203 177 193 177 162 c 3
 177 79 175 75 175 -52 c 3x29
 175 -190 185 -214 185 -342 c 3
 185 -357 173 -360 161 -360 c 3
 156 -360 151 -361 148 -361 c 0
 139 -361 134 -356 134 -320 c 3
 134 -315 135 -261 135 -218 c 3
 135 -214 135 -209 135 -206 c 0
 135 -175 131 -167 121 -167 c 0x62
EndSplineSet
Fore
SplineSet
264 267 m 0xfac0
 287 267 317 272 342 272 c 0
 534 272 711 138 711 -54 c 0
 711 -277 590 -414 463 -537 c 0
 443 -557 433 -574 433 -599 c 0
 433 -610 434 -622 438 -636 c 0
 450 -686 476 -787 476 -851 c 3
 476 -1079 312 -1266 278 -1266 c 3
 249 -1266 138 -1093 138 -946 c 3xfc40
 138 -773 221 -649 321 -540 c 0
 349 -510 360 -492 360 -465 c 0
 360 -450 357 -432 351 -408 c 2
 335 -342 l 2
 322 -285 323 -282 265 -279 c 0
 120 -271 0 -157 0 -11 c 0
 0 91 59 171 142 220 c 0
 177 240 192 244 192 269 c 0
 192 277 190 287 187 300 c 0
 174 363 162 437 162 494 c 0
 162 610 241 693 345 693 c 0
 457 693 539 605 539 512 c 0
 539 438 490 399 436 399 c 0
 388 399 350 433 350 491 c 0
 350 535 389 567 433 567 c 0
 448 567 465 572 465 587 c 0
 465 624 404 658 349 658 c 0
 262 658 200 587 200 489 c 0
 200 432 210 372 220 318 c 0
 227 279 231 267 264 267 c 0xfac0
346 -652 m 0
 254 -745 184 -848 184 -990 c 3
 184 -1067 212 -1146 240 -1146 c 3
 292 -1146 430 -1008 430 -805 c 3
 430 -769 422 -720 411 -668 c 0
 404 -638 397 -624 386 -624 c 0
 376 -624 364 -634 346 -652 c 0
368 -334 m 2
 382 -396 l 2
 389 -427 396 -439 407 -439 c 0
 419 -439 434 -424 458 -400 c 0
 560 -295 647 -191 647 -51 c 0
 647 112 507 238 344 238 c 0
 329 238 314 237 299 235 c 0
 261 230 248 222 248 198 c 0
 248 187 251 173 255 155 c 2
 313 -99 l 2
 321 -133 328 -157 349 -157 c 0
 359 -157 372 -152 389 -141 c 0
 429 -116 456 -79 456 -29 c 0
 456 26 429 77 399 101 c 0
 392 107 389 113 389 118 c 0
 389 123 392 127 399 127 c 0
 404 127 410 125 418 120 c 0
 468 89 521 27 521 -51 c 0xf940
 521 -130 479 -197 418 -238 c 0
 379 -264 362 -271 362 -297 c 0
 362 -306 364 -318 368 -334 c 2
68 11 m 0
 68 -88 146 -176 251 -176 c 0
 276 -176 287 -166 287 -143 c 0
 287 -135 286 -126 283 -114 c 2
 222 150 l 2
 215 179 206 194 190 194 c 0
 181 194 169 189 155 178 c 0
 103 139 68 81 68 11 c 0
EndSplineSet
EndChar

StartChar: uni00B9
Encoding: 185 185 51
Width: 711
Flags: W
HStem: -1266 120<424.161 485> 238 29<280.717 451.453> 399 168<247.823 333.024> 658 35<292.421 429.373>
VStem: 0 64<-164.433 55.775> 172 74<475 592.615> 190 65<-98.5345 32.2196> 235 46<-935.188 -704.761> 511 38<332.039 574.612> 527 46<-1067.47 -861.379> 643 68<-76.5257 89.9644>
LayerCount: 3
Back
SplineSet
106 99 m 7xe8
 50 99 50 4 50 -63 c 6xd8
 50 -79 l 6
 50 -98 51 -104 57 -104 c 7
 83 -104 143 -9 143 52 c 7
 143 75 129 99 106 99 c 7xe8
39 430 m 7
 56 430 57 416 57 399 c 4
 57 398 57 396 57 394 c 7xe8
 57 271 49 200 49 127 c 4
 49 116 50 110 58 110 c 7
 71 110 75 141 131 141 c 7
 173 141 200 125 214 96 c 4
 221 82 227 66 227 47 c 7
 227 -4 201 -46 160 -69 c 4
 86 -109 44 -172 25 -172 c 7
 13 -172 13 -156 13 -144 c 31
 13 -97 15 -71 15 -24 c 31xd8
 15 137 0 227 0 388 c 7xe8
 0 428 2 430 39 430 c 7
EndSplineSet
Fore
SplineSet
447 267 m 0xf960
 480 267 484 279 491 318 c 0
 501 372 511 432 511 489 c 0
 511 587 449 658 362 658 c 0
 307 658 246 624 246 587 c 0
 246 572 263 567 278 567 c 0
 322 567 361 535 361 491 c 0
 361 433 323 399 275 399 c 0
 221 399 172 438 172 512 c 0
 172 605 254 693 366 693 c 0
 470 693 549 610 549 494 c 0xfca0
 549 437 537 363 524 300 c 0
 521 287 519 277 519 269 c 0
 519 244 534 240 569 220 c 0
 652 171 711 91 711 -11 c 0
 711 -157 591 -271 446 -279 c 0
 388 -282 389 -285 376 -342 c 2
 360 -408 l 2
 354 -432 351 -450 351 -465 c 0
 351 -492 362 -510 390 -540 c 0
 490 -649 573 -773 573 -946 c 3
 573 -1093 462 -1266 433 -1266 c 3
 399 -1266 235 -1079 235 -851 c 3
 235 -787 261 -686 273 -636 c 0
 277 -622 278 -610 278 -599 c 0
 278 -574 268 -557 248 -537 c 0
 121 -414 0 -277 0 -54 c 0
 0 138 177 272 369 272 c 0
 394 272 424 267 447 267 c 0xf960
365 -652 m 0
 347 -634 335 -624 325 -624 c 0
 314 -624 307 -638 300 -668 c 0
 289 -720 281 -769 281 -805 c 3
 281 -1008 419 -1146 471 -1146 c 3
 499 -1146 527 -1067 527 -990 c 3xf960
 527 -848 457 -745 365 -652 c 0
343 -334 m 2
 347 -318 349 -306 349 -297 c 0
 349 -271 332 -264 293 -238 c 0
 232 -197 190 -130 190 -51 c 0
 190 27 243 89 293 120 c 0
 301 125 307 127 312 127 c 0
 319 127 322 123 322 118 c 0
 322 113 319 107 312 101 c 0
 282 77 255 26 255 -29 c 0xfa20
 255 -79 282 -116 322 -141 c 0
 339 -152 352 -157 362 -157 c 0
 383 -157 390 -133 398 -99 c 2
 456 155 l 2
 460 173 463 187 463 198 c 0
 463 222 450 230 412 235 c 0
 397 237 382 238 367 238 c 0
 204 238 64 112 64 -51 c 0
 64 -191 151 -295 253 -400 c 0
 277 -424 292 -439 304 -439 c 0
 315 -439 322 -427 329 -396 c 2
 343 -334 l 2
643 11 m 0
 643 81 608 139 556 178 c 0
 542 189 530 194 521 194 c 0
 505 194 496 179 489 150 c 2
 428 -114 l 2
 425 -126 424 -135 424 -143 c 0
 424 -166 435 -176 460 -176 c 0
 565 -176 643 -88 643 11 c 0
EndSplineSet
EndChar

StartChar: ordmasculine
Encoding: 186 186 52
Width: 711
Flags: W
HStem: -693 35<281.627 418.579> -567 168<377.976 463.177> -267 29<259.547 430.283> 1146 120<226 286.839>
VStem: 0 68<-89.9644 76.5257> 138 46<861.379 1067.47> 162 38<-574.612 -332.039> 430 46<704.761 935.188> 456 65<-32.2196 98.5345> 465 74<-592.615 -475> 647 64<-55.775 164.433>
LayerCount: 3
Back
SplineSet
128 72 m 4x68
 84 59 81 59 81 22 c 4
 81 15 81 6 81 -4 c 7
 81 -16 81 -26 81 -34 c 4
 81 -72 82 -77 97 -77 c 7
 104 -77 115 -73 133 -67 c 4
 172 -54 174 -54 174 -0 c 4
 174 5 174 10 174 16 c 7
 174 25 174 32 174 39 c 4
 174 76 173 78 153 78 c 7
 147 78 139 75 128 72 c 4x68
35 38 m 4
 29 38 18 34 13 34 c 4
 1 34 1 46 1 70 c 4
 1 79 0 86 0 93 c 4
 0 107 3 117 23 123 c 4
 46 130 47 134 47 164 c 4
 47 167 47 169 47 172 c 7
 47 188 45 251 45 284 c 7
 45 307 50 312 70 312 c 7
 82 312 88 307 88 287 c 7
 88 259 86 227 86 172 c 7
 86 156 89 150 100 150 c 4
 106 150 115 152 127 156 c 4
 160 166 169 162 169 213 c 7xaa
 169 244 167 288 167 323 c 7xac
 167 346 169 352 190 352 c 7
 208 352 210 344 210 331 c 4
 210 327 210 322 210 317 c 7
 210 282 208 259 208 223 c 7
 208 198 209 186 220 186 c 4
 226 186 238 191 243 191 c 4
 254 191 254 180 254 154 c 7
 254 101 250 107 231 101 c 4
 213 95 208 93 208 27 c 7
 208 9 208 -4 208 -13 c 4x1a
 208 -31 209 -36 216 -36 c 4
 220 -36 233 -32 239 -32 c 4
 253 -32 254 -47 254 -63 c 4
 254 -66 254 -69 254 -72 c 7
 254 -108 252 -114 230 -121 c 4
 207 -128 206 -134 206 -169 c 7
 206 -232 209 -225 209 -277 c 7
 209 -294 204 -301 187 -301 c 7
 168 -301 167 -290 167 -271 c 7x1c
 167 -230 169 -206 169 -165 c 7
 169 -152 168 -146 159 -146 c 4x5a
 153 -146 142 -149 124 -154 c 4
 92 -164 85 -171 85 -189 c 7
 85 -298 88 -268 88 -309 c 7
 88 -312 88 -314 88 -316 c 4
 88 -329 87 -339 69 -339 c 4
 54 -339 46 -328 46 -315 c 31
 46 -280 48 -264 48 -225 c 7
 48 -193 46 -183 37 -183 c 4
 31 -183 16 -189 11 -189 c 4
 2 -189 1 -181 1 -162 c 4
 1 -158 1 -153 1 -148 c 4
 1 -141 1 -135 1 -130 c 4
 1 -109 3 -104 23 -98 c 4x8a
 45 -91 47 -93 47 -57 c 4
 47 -46 47 -33 47 -15 c 7
 47 25 47 38 35 38 c 4
EndSplineSet
Fore
SplineSet
264 -267 m 0xfd20
 231 -267 227 -279 220 -318 c 0
 210 -372 200 -432 200 -489 c 0
 200 -587 262 -658 349 -658 c 0
 404 -658 465 -624 465 -587 c 0
 465 -572 448 -567 433 -567 c 0
 389 -567 350 -535 350 -491 c 0
 350 -433 388 -399 436 -399 c 0
 490 -399 539 -438 539 -512 c 0
 539 -605 457 -693 345 -693 c 0
 241 -693 162 -610 162 -494 c 0xfa60
 162 -437 174 -363 187 -300 c 0
 190 -287 192 -277 192 -269 c 0
 192 -244 177 -240 142 -220 c 0
 59 -171 0 -91 0 11 c 0
 0 157 120 271 265 279 c 0
 323 282 322 285 335 342 c 2
 351 408 l 2
 357 432 360 450 360 465 c 0
 360 492 349 510 321 540 c 0
 221 649 138 773 138 946 c 3
 138 1093 249 1266 278 1266 c 3
 312 1266 476 1079 476 851 c 3
 476 787 450 686 438 636 c 0
 434 622 433 610 433 599 c 0
 433 574 443 557 463 537 c 0
 590 414 711 277 711 54 c 0
 711 -138 534 -272 342 -272 c 0
 317 -272 287 -267 264 -267 c 0xfd20
346 652 m 0
 364 634 376 624 386 624 c 0
 397 624 404 638 411 668 c 0
 422 720 430 769 430 805 c 3
 430 1008 292 1146 240 1146 c 3
 212 1146 184 1067 184 990 c 3xfd20
 184 848 254 745 346 652 c 0
368 334 m 2
 364 318 362 306 362 297 c 0
 362 271 379 264 418 238 c 0
 479 197 521 130 521 51 c 0
 521 -27 468 -89 418 -120 c 0
 410 -125 404 -127 399 -127 c 0
 392 -127 389 -123 389 -118 c 0
 389 -113 392 -107 399 -101 c 0
 429 -77 456 -26 456 29 c 0xf8a0
 456 79 429 116 389 141 c 0
 372 152 359 157 349 157 c 0
 328 157 321 133 313 99 c 2
 255 -155 l 2
 251 -173 248 -187 248 -198 c 0
 248 -222 261 -230 299 -235 c 0
 314 -237 329 -238 344 -238 c 0
 507 -238 647 -112 647 51 c 0
 647 191 560 295 458 400 c 0
 434 424 419 439 407 439 c 0
 396 439 389 427 382 396 c 2
 368 334 l 2
68 -11 m 0
 68 -81 103 -139 155 -178 c 0
 169 -189 181 -194 190 -194 c 0
 206 -194 215 -179 222 -150 c 2
 283 114 l 2
 286 126 287 135 287 143 c 0
 287 166 276 176 251 176 c 0
 146 176 68 88 68 -11 c 0
EndSplineSet
EndChar

StartChar: guillemotright
Encoding: 187 187 53
Width: 727
VWidth: 0
Flags: W
HStem: -270 36<366.999 537.208> -165 90<6.7132 83.5194> -105 197<506.699 622.125> 75 90<6.7132 83.5194>
VStem: 0 90<-157.947 -82.0528 82.0528 157.947> 144 114<-85.0879 161.739> 624 69<-135.916 -4.5>
LayerCount: 3
Back
SplineSet
39 430 m 4xf1
 56 430 57 417 57 400 c 4
 57 398 57 396 57 394 c 4
 57 279 49 202 49 140 c 4
 49 135 49 131 49 127 c 4
 49 116 50 110 59 110 c 4
 71 110 86 143 131 143 c 7
 157 143 178 137 195 121 c 4
 202 115 207 108 212 108 c 7
 217 108 218 114 218 121 c 4
 218 127 217 134 217 142 c 4
 213 219 207 290 207 388 c 4
 207 428 213 430 237 430 c 7
 262 430 264 420 264 403 c 4
 264 402 264 401 264 400 c 4
 264 398 264 396 264 394 c 4xf5
 264 279 255 202 255 140 c 4
 255 135 255 131 255 127 c 4
 255 116 256 110 266 110 c 4
 278 110 281 141 337 141 c 4
 391 141 433 108 433 47 c 4
 433 -4 408 -46 366 -69 c 4
 294 -109 251 -172 231 -172 c 4
 219 -172 219 -156 219 -144 c 4
 219 -104 221 -79 221 -44 c 4
 221 -33 219 -24 215 -24 c 7
 208 -24 206 -28 200 -34 c 5
 189 -48 176 -59 160 -69 c 4
 89 -112 44 -172 25 -172 c 4
 13 -172 13 -156 13 -144 c 4
 13 -98 15 -71 15 -24 c 4xeb
 15 137 0 227 0 388 c 4
 0 428 3 430 39 430 c 4xf1
106 99 m 4
 50 99 50 4 50 -63 c 6
 50 -79 l 6xe9
 50 -98 51 -104 57 -104 c 4
 84 -104 143 -9 143 52 c 4
 143 75 130 99 106 99 c 4
312 99 m 4
 256 99 256 4 256 -63 c 6
 256 -79 l 6xe3
 256 -98 257 -104 264 -104 c 4xe5
 291 -104 349 -9 349 52 c 4
 349 75 336 99 312 99 c 4
EndSplineSet
Fore
SplineSet
90 120 m 0x9e
 90 95 70 75 45 75 c 0
 21 75 0 95 0 120 c 0
 0 145 21 165 45 165 c 0
 70 165 90 145 90 120 c 0x9e
90 -120 m 0
 90 -145 70 -165 45 -165 c 0
 21 -165 0 -145 0 -120 c 0
 0 -95 21 -75 45 -75 c 0xce
 70 -75 90 -95 90 -120 c 0
435 -270 m 3
 254 -270 144 -138 144 37 c 3
 144 348 502 576 677 617 c 0
 690 620 701 621 710 621 c 0
 723 621 727 613 727 608 c 0
 727 600 715 593 686 585 c 0
 507 535 258 349 258 36 c 3
 258 -137 310 -234 456 -234 c 3
 555 -234 624 -163 624 -122 c 3
 624 -111 617 -105 608 -105 c 27
 588 -105 578 -111 556 -111 c 3
 499 -111 461 -74 461 -13 c 3
 461 47 514 92 574 92 c 27xae
 644 92 693 33 693 -42 c 3
 693 -167 592 -270 435 -270 c 3
EndSplineSet
EndChar

StartChar: onequarter
Encoding: 188 188 54
Width: 727
VWidth: 0
Flags: W
HStem: 75 90<643.481 720.287> -105 197<104.875 220.301> -165 90<643.481 720.287> -270 36<189.792 360.001>
VStem: 34 69<-135.916 -4.5> 469 114<-85.0879 161.739> 637 90<82.0528 157.947 -157.947 -82.0528>
LayerCount: 3
Back
SplineSet
153 0 m 4
 153 -30 208.066 -37.0117 238 -39 c 14
 253 -40 l 29
 256 -128 l 29
 168 -125 l 29
 167 -110 l 22
 165.012 -80.0664 158 -25 128 -25 c 4
 98 -25 90.9883 -80.0664 89 -110 c 14
 88 -125 l 29
 0 -128 l 29
 3 -40 l 29
 18 -39 l 22
 47.9336 -37.0117 103 -30 103 0 c 4
 103 30 47.9336 37.0117 18 39 c 14
 3 40 l 29
 0 128 l 29
 88 125 l 29
 89 110 l 22
 90.9883 80.0664 98 25 128 25 c 4
 158 25 165.012 80.0664 167 110 c 14
 168 125 l 29
 256 128 l 29
 253 40 l 29
 238 39 l 22
 208.066 37.0117 153 30 153 0 c 4
247 131 m 3xde
 253 131 253 129 253 125 c 0
 253 118 248 105 248 92 c 24
 248 78 252 71 252 58 c 3
 252 36 240 39 219 38 c 0
 193 37 175 31 163 20 c 0
 157 14 152 9 152 1 c 3
 152 -14 192 -30 227 -38 c 0
 246 -42 255 -40 255 -56 c 3
 255 -64 254 -69 254 -78 c 3
 254 -107 258 -108 258 -122 c 3
 258 -128 252 -133 244 -133 c 24
 229 -133 220 -124 205 -124 c 24
 195 -124 190 -126 179 -126 c 3
 165 -126 164 -111 164 -97 c 0
 164 -94 164 -91 164 -87 c 3
 164 -26 134 -15 131 -15 c 3
 119 -15 97 -73 91 -111 c 0
 89 -124 80 -131 68 -131 c 27
 55 -131 49 -125 36 -125 c 24
 27 -125 23 -127 14 -127 c 16
 9 -127 3 -124 3 -119 c 3
 3 -109 10 -105 10 -78 c 3
 10 -69 8 -64 8 -55 c 3
 8 -41 17 -40 35 -39 c 0
 67 -37 106 -23 106 2 c 3
 106 27 56 35 23 36 c 0
 13 36 2 36 2 45 c 3
 2 52 4 58 4 67 c 16
 4 81 0 89 0 103 c 0
 0 113 2 125 12 125 c 3
 22 125 22 121 56 121 c 3
 65 121 69 122 78 122 c 3
 91 122 91 107 91 96 c 0
 94 53 108 21 130 21 c 3
 154 21 159 69 163 102 c 0
 165 115 166 130 179 130 c 3
 187 130 192 126 210 126 c 3xee
 233 126 237 131 247 131 c 3xde
EndSplineSet
Fore
SplineSet
637 120 m 0x9e
 637 145 657 165 682 165 c 0
 706 165 727 145 727 120 c 0
 727 95 706 75 682 75 c 0
 657 75 637 95 637 120 c 0x9e
637 -120 m 0
 637 -95 657 -75 682 -75 c 0x3e
 706 -75 727 -95 727 -120 c 0
 727 -145 706 -165 682 -165 c 0
 657 -165 637 -145 637 -120 c 0
292 -270 m 3
 135 -270 34 -167 34 -42 c 3
 34 33 83 92 153 92 c 27x5e
 213 92 266 47 266 -13 c 3
 266 -74 228 -111 171 -111 c 3
 149 -111 139 -105 119 -105 c 27
 110 -105 103 -111 103 -122 c 3
 103 -163 172 -234 271 -234 c 3
 417 -234 469 -137 469 36 c 3
 469 349 220 535 41 585 c 0
 12 593 0 600 0 608 c 0
 0 613 4 621 17 621 c 0
 26 621 37 620 50 617 c 0
 225 576 583 348 583 37 c 3
 583 -138 473 -270 292 -270 c 3
EndSplineSet
EndChar

StartChar: onehalf
Encoding: 189 189 55
Width: 727
VWidth: 0
Flags: W
HStem: -165 90<6.71301 83.519> -92 197<506.699 622.125> 75 90<6.71301 83.519> 234 36<366.999 537.208>
VStem: 624 69<4.5 135.916> 144 114<-161.739 85.0879> 0 90<-157.947 -82.0528 82.0528 157.947>
LayerCount: 3
Back
SplineSet
146 32 m 6x8458
 146 70 144 80 131 80 c 4
 116 80 79 67 65 62 c 4
 47 56 46 46 46 16 c 4
 46 11 46 4 46 -3 c 6
 46 -53 l 6
 46 -75 46 -83 56 -83 c 4
 61 -83 116 -67 129 -62 c 4
 141 -57 143 -52 144 -46 c 4
 146 -37 146 -17 146 1 c 6
 146 32 l 6x8458
128 -167 m 4x2428
 119 -167 34 -202 22 -202 c 4
 8 -202 8 -188 8 -149 c 4
 8 -148 8 -146 8 -145 c 7x8068
 8 -24 9 3 9 55 c 7
 9 179 0 250 0 300 c 6
 0 319 l 6
 0 345 1 360 22 360 c 7
 45 360 51 357 51 334 c 7
 51 235 50 252 50 196 c 7
 50 173 54 167 63 167 c 4x8288
 72 167 85 173 119 185 c 4
 144 195 160 203 170 203 c 4
 181 203 184 193 184 162 c 7
 184 79 182 75 182 -52 c 7x0498
 182 -190 192 -214 192 -342 c 7
 192 -357 180 -360 168 -360 c 7
 163 -360 158 -361 155 -361 c 4
 146 -361 141 -356 141 -320 c 7
 141 -315 142 -261 142 -218 c 7
 142 -214 142 -209 142 -206 c 4
 142 -175 138 -167 128 -167 c 4x2428
370 72 m 4
 326 59 323 59 323 22 c 4
 323 15 323 6 323 -4 c 7
 323 -16 323 -26 323 -34 c 4
 323 -72 324 -77 339 -77 c 7
 346 -77 357 -73 375 -67 c 4
 414 -54 416 -54 416 -0 c 4
 416 5 416 10 416 16 c 7
 416 25 416 32 416 39 c 4
 416 76 415 78 395 78 c 7x1808
 389 78 381 75 370 72 c 4
277 38 m 4
 271 38 260 34 255 34 c 4
 243 34 243 46 243 70 c 4
 243 79 242 86 242 93 c 4
 242 107 245 117 265 123 c 4
 288 130 289 134 289 164 c 4
 289 167 289 169 289 172 c 7
 289 188 287 251 287 284 c 7
 287 307 292 312 312 312 c 7
 324 312 330 307 330 287 c 7
 330 259 328 227 328 172 c 7
 328 156 331 150 342 150 c 4
 348 150 357 152 369 156 c 4
 402 166 411 162 411 213 c 7x480a
 411 244 409 288 409 323 c 7x480c
 409 346 411 352 432 352 c 7
 450 352 452 344 452 331 c 4
 452 327 452 322 452 317 c 7
 452 282 450 259 450 223 c 7
 450 198 451 186 462 186 c 4
 468 186 480 191 485 191 c 4
 496 191 496 180 496 154 c 7
 496 101 492 107 473 101 c 4
 455 95 450 93 450 27 c 7
 450 9 450 -4 450 -13 c 4x010a
 450 -31 451 -36 458 -36 c 4
 462 -36 475 -32 481 -32 c 4
 495 -32 496 -47 496 -63 c 4
 496 -66 496 -69 496 -72 c 7
 496 -108 494 -114 472 -121 c 4
 449 -128 448 -134 448 -169 c 7
 448 -232 451 -225 451 -277 c 7
 451 -294 446 -301 429 -301 c 7
 410 -301 409 -290 409 -271 c 7x010c
 409 -230 411 -206 411 -165 c 7
 411 -152 410 -146 401 -146 c 4x110a
 395 -146 384 -149 366 -154 c 4
 334 -164 327 -171 327 -189 c 7
 327 -298 330 -268 330 -309 c 7
 330 -312 330 -314 330 -316 c 4
 330 -329 329 -339 311 -339 c 4
 296 -339 288 -328 288 -315 c 31
 288 -280 290 -264 290 -225 c 7
 290 -193 288 -183 279 -183 c 4
 273 -183 258 -189 253 -189 c 4
 244 -189 243 -181 243 -162 c 4
 243 -158 243 -153 243 -148 c 4
 243 -141 243 -135 243 -130 c 4
 243 -109 245 -104 265 -98 c 4x400a
 287 -91 289 -93 289 -57 c 4
 289 -46 289 -33 289 -15 c 7
 289 25 289 38 277 38 c 4
EndSplineSet
Fore
SplineSet
90 -120 m 0x9e
 90 -145 70 -165 45 -165 c 0
 21 -165 0 -145 0 -120 c 0
 0 -95 21 -75 45 -75 c 0
 70 -75 90 -95 90 -120 c 0x9e
90 120 m 0
 90 95 70 75 45 75 c 0x3e
 21 75 0 95 0 120 c 0
 0 145 21 165 45 165 c 0
 70 165 90 145 90 120 c 0
435 270 m 3
 592 270 693 167 693 42 c 3
 693 -33 644 -92 574 -92 c 27x5e
 514 -92 461 -47 461 13 c 3
 461 74 499 111 556 111 c 3
 578 111 588 105 608 105 c 27
 617 105 624 111 624 122 c 3
 624 163 555 234 456 234 c 3
 310 234 258 137 258 -36 c 3
 258 -349 507 -535 686 -585 c 0
 715 -593 727 -600 727 -608 c 0
 727 -613 723 -621 710 -621 c 0
 701 -621 690 -620 677 -617 c 0
 502 -576 144 -348 144 -37 c 3
 144 138 254 270 435 270 c 3
EndSplineSet
EndChar

StartChar: threequarters
Encoding: 190 190 56
Width: 679
VWidth: 0
Flags: W
HStem: -526 35<171.517 303.149> -114 40<160.608 270.601> 74 40<160.608 270.601> 491 35<171.517 303.149>
VStem: 0 110<-403.462 -191.877 191.877 403.462> 322 37<-269.927 -168.128 168.128 269.927> 329 79<-449.799 -362.5 362.5 449.799> 361 144<-40.4474 40.4474> 458 47<-514.982 -489 -76 -41.8285 41.8285 76 489 514.982> 575 104<-514.657 -490 490 514.657>
LayerCount: 3
Back
SplineSet
343 99 m 7xe8
 287 99 287 4 287 -63 c 6xd8
 287 -79 l 6
 287 -98 288 -104 294 -104 c 7
 320 -104 380 -9 380 52 c 7
 380 75 366 99 343 99 c 7xe8
276 430 m 7
 293 430 294 416 294 399 c 4
 294 398 294 396 294 394 c 7xe8
 294 271 286 200 286 127 c 4
 286 116 287 110 295 110 c 7
 308 110 312 141 368 141 c 7
 410 141 437 125 451 96 c 4
 458 82 464 66 464 47 c 7
 464 -4 438 -46 397 -69 c 4
 323 -109 281 -172 262 -172 c 7
 250 -172 250 -156 250 -144 c 31
 250 -97 252 -71 252 -24 c 31xd8
 252 137 237 227 237 388 c 7xe8
 237 428 239 430 276 430 c 7
146 32 m 6
 146 70 144 80 131 80 c 4
 116 80 79 67 65 62 c 4
 47 56 46 46 46 16 c 4
 46 11 46 4 46 -3 c 6
 46 -53 l 6
 46 -75 46 -83 56 -83 c 4
 61 -83 116 -67 129 -62 c 4
 141 -57 143 -52 144 -46 c 4
 146 -37 146 -17 146 1 c 6
 146 32 l 6
128 -167 m 4
 119 -167 34 -202 22 -202 c 4
 8 -202 8 -188 8 -149 c 4
 8 -148 8 -146 8 -145 c 7
 8 -24 9 3 9 55 c 7
 9 179 0 250 0 300 c 6
 0 319 l 6
 0 345 1 360 22 360 c 7
 45 360 51 357 51 334 c 7
 51 235 50 252 50 196 c 7
 50 173 54 167 63 167 c 4
 72 167 85 173 119 185 c 4
 144 195 160 203 170 203 c 4
 181 203 184 193 184 162 c 7
 184 79 182 75 182 -52 c 7
 182 -190 192 -214 192 -342 c 7
 192 -357 180 -360 168 -360 c 7
 163 -360 158 -361 155 -361 c 4
 146 -361 141 -356 141 -320 c 7
 141 -315 142 -261 142 -218 c 7
 142 -214 142 -209 142 -206 c 4
 142 -175 138 -167 128 -167 c 4
EndSplineSet
Fore
SplineSet
336 -66 m 0xf940
 312 -114 305 -112 273 -95 c 0
 251 -83 227 -74 182 -74 c 3
 70 -74 0 -183 0 -303 c 3
 0 -426 86 -526 222 -526 c 3
 306 -526 408 -475 408 -380 c 3
 408 -345 384.406 -311 349 -311 c 27
 315.052 -311 285 -336 285 -370 c 3
 285 -424 329 -416 329 -441 c 0xfa40
 329 -465 290 -491 233 -491 c 3
 142 -491 110 -416 110 -309 c 3
 110 -209 128 -114 216 -114 c 3
 272 -114 315 -158 322 -228 c 0
 325 -260 329 -270 342 -270 c 0
 354 -270 357 -259 359 -233 c 0
 362 -202 385 -104 414 -61 c 0
 436 -29 458 -38 458 -76 c 2
 458 -489 l 2
 458 -509 460 -515 481 -515 c 0
 505 -515 505 -510 505 -491 c 2
 505 491 l 2
 505 510 505 515 481 515 c 0
 460 515 458 509 458 489 c 2
 458 76 l 2
 458 38 436 29 414 61 c 0
 385 104 362 202 359 233 c 0
 357 259 354 270 342 270 c 0
 329 270 325 260 322 228 c 0xfcc0
 315 158 272 114 216 114 c 3
 128 114 110 209 110 309 c 3
 110 416 142 491 233 491 c 3
 290 491 329 465 329 441 c 0
 329 416 285 424 285 370 c 3
 285 336 315.052 311 349 311 c 27
 384.406 311 408 345 408 380 c 3xfa40
 408 475 306 526 222 526 c 3
 86 526 0 426 0 303 c 3
 0 183 70 74 182 74 c 3
 227 74 251 83 273 95 c 0
 305 112 312 114 336 66 c 0
 353 33 361 16 361 0 c 0
 361 -16 353 -33 336 -66 c 0xf940
575 -490 m 2
 575 -511 582 -515 601 -515 c 2
 648 -515 l 2
 676 -515 679 -508 679 -492 c 2
 679 492 l 2
 679 508 676 515 648 515 c 2
 601 515 l 2
 582 515 575 511 575 490 c 2
 575 -490 l 2
EndSplineSet
EndChar

StartChar: questiondown
Encoding: 191 191 57
Width: 1000
VWidth: 0
Flags: H
LayerCount: 3
Back
SplineSet
319 32 m 6xd158
 319 70 317 80 304 80 c 4
 289 80 252 67 238 62 c 4
 220 56 219 46 219 16 c 4
 219 11 219 4 219 -3 c 6
 219 -53 l 6
 219 -75 219 -83 229 -83 c 4
 234 -83 289 -67 302 -62 c 4
 314 -57 316 -52 317 -46 c 4
 319 -37 319 -17 319 1 c 6
 319 32 l 6xd158
301 -167 m 4xb128
 292 -167 207 -202 195 -202 c 4
 181 -202 181 -188 181 -149 c 4
 181 -148 181 -146 181 -145 c 7xc168
 181 -24 182 3 182 55 c 7
 182 179 173 250 173 300 c 6
 173 319 l 6
 173 345 174 360 195 360 c 7
 218 360 224 357 224 334 c 7
 224 235 223 252 223 196 c 7
 223 173 227 167 236 167 c 4xcb88
 245 167 258 173 292 185 c 4
 317 195 333 203 343 203 c 4
 354 203 357 193 357 162 c 7
 357 79 355 75 355 -52 c 7x9198
 355 -190 365 -214 365 -342 c 7
 365 -357 353 -360 341 -360 c 7
 336 -360 331 -361 328 -361 c 4
 319 -361 314 -356 314 -320 c 7
 314 -315 315 -261 315 -218 c 7
 315 -214 315 -209 315 -206 c 4
 315 -175 311 -167 301 -167 c 4xb128
537 -7 m 7
 537 -126 446 -265 420 -265 c 7
 414 -265 406 -263 406 -254 c 7
 406 -239 492 -171 492 8 c 7
 492 181 406 218 406 245 c 7
 406 252 408 264 421 264 c 7x8508
 433 264 537 151 537 -7 c 7
0 6 m 7
 0 125 91 264 117 264 c 7
 123 264 131 262 131 253 c 7
 131 238 45 170 45 -9 c 7
 45 -182 131 -219 131 -246 c 7
 131 -253 129 -265 116 -265 c 7
 104 -265 0 -152 0 6 c 7
EndSplineSet
EndChar

StartChar: Agrave
Encoding: 192 192 58
Width: 1000
VWidth: -9
Flags: H
LayerCount: 3
Back
SplineSet
274 99 m 7xe8
 218 99 218 4 218 -63 c 6xd8
 218 -79 l 6
 218 -98 219 -104 225 -104 c 7
 251 -104 311 -9 311 52 c 7
 311 75 297 99 274 99 c 7xe8
207 430 m 7
 224 430 225 416 225 399 c 4
 225 398 225 396 225 394 c 7xe8
 225 271 217 200 217 127 c 4
 217 116 218 110 226 110 c 7
 239 110 243 141 299 141 c 7
 341 141 368 125 382 96 c 4
 389 82 395 66 395 47 c 7
 395 -4 369 -46 328 -69 c 4
 254 -109 212 -172 193 -172 c 7
 181 -172 181 -156 181 -144 c 31
 181 -97 183 -71 183 -24 c 31xd8
 183 137 168 227 168 388 c 7xe8
 168 428 170 430 207 430 c 7
501 25 m 7
 501 -94 410 -233 384 -233 c 7
 378 -233 370 -231 370 -222 c 7
 370 -207 456 -139 456 40 c 7
 456 213 370 250 370 277 c 7
 370 284 372 296 385 296 c 7
 397 296 501 183 501 25 c 7
0 38 m 7
 0 157 91 296 117 296 c 7
 123 296 131 294 131 285 c 7
 131 270 45 202 45 23 c 7
 45 -150 131 -187 131 -214 c 7
 131 -221 129 -233 116 -233 c 7
 104 -233 0 -120 0 38 c 7
EndSplineSet
EndChar

StartChar: Aacute
Encoding: 193 193 59
Width: 1000
VWidth: 0
Flags: H
LayerCount: 3
Back
SplineSet
275 72 m 4x6e40
 231 59 228 59 228 22 c 4
 228 15 228 6 228 -4 c 7
 228 -16 228 -26 228 -34 c 4
 228 -72 229 -77 244 -77 c 7
 251 -77 262 -73 280 -67 c 4
 319 -54 321 -54 321 -0 c 4
 321 5 321 10 321 16 c 7
 321 25 321 32 321 39 c 4
 321 76 320 78 300 78 c 7
 294 78 286 75 275 72 c 4x6e40
182 38 m 4
 176 38 165 34 160 34 c 4
 148 34 148 46 148 70 c 4
 148 79 147 86 147 93 c 4
 147 107 150 117 170 123 c 4
 193 130 194 134 194 164 c 4
 194 167 194 169 194 172 c 7
 194 188 192 251 192 284 c 7
 192 307 197 312 217 312 c 7
 229 312 235 307 235 287 c 7
 235 259 233 227 233 172 c 7
 233 156 236 150 247 150 c 4
 253 150 262 152 274 156 c 4
 307 166 316 162 316 213 c 7xaec0
 316 244 314 288 314 323 c 7xaf40
 314 346 316 352 337 352 c 7
 355 352 357 344 357 331 c 4
 357 327 357 322 357 317 c 7
 357 282 355 259 355 223 c 7
 355 198 356 186 367 186 c 4
 373 186 385 191 390 191 c 4
 401 191 401 180 401 154 c 7
 401 101 397 107 378 101 c 4
 360 95 355 93 355 27 c 7
 355 9 355 -4 355 -13 c 4x1ec0
 355 -31 356 -36 363 -36 c 4
 367 -36 380 -32 386 -32 c 4
 400 -32 401 -47 401 -63 c 4
 401 -66 401 -69 401 -72 c 7
 401 -108 399 -114 377 -121 c 4
 354 -128 353 -134 353 -169 c 7
 353 -232 356 -225 356 -277 c 7
 356 -294 351 -301 334 -301 c 7
 315 -301 314 -290 314 -271 c 7x1f40
 314 -230 316 -206 316 -165 c 7
 316 -152 315 -146 306 -146 c 4x5ec0
 300 -146 289 -149 271 -154 c 4
 239 -164 232 -171 232 -189 c 7
 232 -298 235 -268 235 -309 c 7
 235 -312 235 -314 235 -316 c 4
 235 -329 234 -339 216 -339 c 4
 201 -339 193 -328 193 -315 c 31
 193 -280 195 -264 195 -225 c 7
 195 -193 193 -183 184 -183 c 4
 178 -183 163 -189 158 -189 c 4
 149 -189 148 -181 148 -162 c 4
 148 -158 148 -153 148 -148 c 4
 148 -141 148 -135 148 -130 c 4
 148 -109 150 -104 170 -98 c 4x8ec0
 192 -91 194 -93 194 -57 c 4
 194 -46 194 -33 194 -15 c 7
 194 25 194 38 182 38 c 4
557 -7 m 7
 557 -126 466 -265 440 -265 c 7
 434 -265 426 -263 426 -254 c 7
 426 -239 512 -171 512 8 c 7
 512 181 426 218 426 245 c 7
 426 252 428 264 441 264 c 7
 453 264 557 151 557 -7 c 7
0 6 m 7
 0 125 91 264 117 264 c 7
 123 264 131 262 131 253 c 7
 131 238 45 170 45 -9 c 7
 45 -182 131 -219 131 -246 c 7
 131 -253 129 -265 116 -265 c 7
 104 -265 0 -152 0 6 c 7
EndSplineSet
EndChar

StartChar: Acircumflex
Encoding: 194 194 60
Width: 1000
VWidth: -9
Flags: H
LayerCount: 3
Back
SplineSet
706 25 m 7xc8
 706 -94 615 -233 589 -233 c 7
 583 -233 575 -231 575 -222 c 7
 575 -207 661 -139 661 40 c 7
 661 213 575 250 575 277 c 7
 575 284 577 296 590 296 c 7
 602 296 706 183 706 25 c 7xc8
0 38 m 7
 0 157 91 296 117 296 c 7
 123 296 131 294 131 285 c 7
 131 270 45 202 45 23 c 7
 45 -150 131 -187 131 -214 c 7
 131 -221 129 -233 116 -233 c 7
 104 -233 0 -120 0 38 c 7
206 430 m 4
 223 430 224 417 224 400 c 4
 224 398 224 396 224 394 c 4
 224 279 216 202 216 140 c 4
 216 135 216 131 216 127 c 4
 216 116 217 110 226 110 c 4
 238 110 250 143 298 143 c 7
 324 143 345 137 362 121 c 4
 369 115 374 108 379 108 c 7
 384 108 385 114 385 121 c 4
 385 127 384 134 384 142 c 4
 380 219 374 290 374 388 c 4
 374 428 380 430 404 430 c 7
 429 430 431 420 431 403 c 4
 431 402 431 401 431 400 c 4
 431 398 431 396 431 394 c 4
 431 279 422 202 422 140 c 4
 422 135 422 131 422 127 c 4
 422 116 423 110 433 110 c 4
 445 110 448 141 504 141 c 4
 558 141 600 108 600 47 c 4
 600 -4 575 -46 533 -69 c 4
 461 -109 418 -172 398 -172 c 4
 386 -172 386 -156 386 -144 c 4
 386 -104 388 -79 388 -44 c 4
 388 -33 386 -24 382 -24 c 7
 375 -24 373 -28 367 -34 c 5
 356 -48 343 -59 327 -69 c 4
 256 -112 211 -172 192 -172 c 4
 180 -172 180 -156 180 -144 c 4
 180 -98 182 -71 182 -24 c 4
 182 137 167 227 167 388 c 4
 167 428 170 430 206 430 c 4
273 99 m 4
 217 99 217 4 217 -63 c 6
 217 -79 l 6
 217 -98 218 -104 224 -104 c 4
 251 -104 310 -9 310 52 c 4
 310 75 297 99 273 99 c 4
479 99 m 4
 423 99 423 4 423 -63 c 6
 423 -79 l 6
 423 -98 424 -104 431 -104 c 4
 458 -104 516 -9 516 52 c 4
 516 75 503 99 479 99 c 4
EndSplineSet
EndChar

StartChar: Atilde
Encoding: 195 195 61
Width: 1000
VWidth: 0
Flags: H
LayerCount: 3
Back
SplineSet
406 192 m 7
 437 192 500 76 500 1 c 7
 500 -80 437 -187 409 -187 c 7
 401 -187 392 -181 392 -175 c 7
 392 -163 466 -85 466 -5 c 7
 466 113 392 150 392 181 c 7
 392 188 400 192 406 192 c 7
94 -187 m 7
 63 -187 0 -71 0 4 c 7
 0 85 63 192 91 192 c 7
 99 192 108 186 108 180 c 7
 108 168 34 90 34 10 c 7
 34 -108 108 -145 108 -176 c 7
 108 -183 100 -187 94 -187 c 7
367 131 m 7
 373 131 373 129 373 125 c 4
 373 118 368 105 368 92 c 28
 368 78 372 71 372 58 c 7
 372 36 360 39 339 38 c 4
 313 37 295 31 283 20 c 4
 277 14 272 9 272 1 c 7
 272 -14 312 -30 347 -38 c 4
 366 -42 375 -40 375 -56 c 7
 375 -64 374 -69 374 -78 c 7
 374 -107 378 -108 378 -122 c 7
 378 -128 372 -133 364 -133 c 28
 349 -133 340 -124 325 -124 c 28
 315 -124 310 -126 299 -126 c 7
 285 -126 284 -111 284 -97 c 4
 284 -94 284 -91 284 -87 c 7
 284 -26 254 -15 251 -15 c 7
 239 -15 217 -73 211 -111 c 4
 209 -124 200 -131 188 -131 c 31
 175 -131 169 -125 156 -125 c 28
 147 -125 143 -127 134 -127 c 20
 129 -127 123 -124 123 -119 c 7
 123 -109 130 -105 130 -78 c 7
 130 -69 128 -64 128 -55 c 7
 128 -41 137 -40 155 -39 c 4
 187 -37 226 -23 226 2 c 7
 226 27 176 35 143 36 c 4
 133 36 122 36 122 45 c 7
 122 52 124 58 124 67 c 20
 124 81 120 89 120 103 c 4
 120 113 122 125 132 125 c 7
 142 125 142 121 176 121 c 7
 185 121 189 122 198 122 c 7
 211 122 211 107 211 96 c 4
 214 53 228 21 250 21 c 7
 274 21 279 69 283 102 c 4
 285 115 286 130 299 130 c 7
 307 130 312 126 330 126 c 7
 353 126 357 131 367 131 c 7
EndSplineSet
EndChar

StartChar: Adieresis
Encoding: 196 196 62
Width: 518
VWidth: 0
Flags: W
HStem: -539 30<238.1 312.375> -193 31<195.011 316.967>
VStem: 0 55.5<-30.3911 160.701> 147 89<-493.026 -410.5> 147 44<563.964 775.219> 162 44<-11.7754 98.5689> 252 19<267.105 294.468> 348 42<589.63 781.871> 367 30<-444.984 -256.15> 464 54<-63.5054 79.9115>
LayerCount: 3
Back
SplineSet
112 23 m 6xea
 112 53 107 59 97 59 c 4
 85 59 66 51 55 47 c 4
 43 43 39 34 39 11 c 6
 39 -38 l 6
 39 -55 45 -58 53 -58 c 4
 57 -58 86 -49 96 -45 c 4
 109 -40 112 -29 112 -16 c 4
 112 -12 112 -8 112 0 c 6
 112 23 l 6xea
93 -113 m 7
 89 -113 77 -114 60 -121 c 5
 34 -130 35 -131 22 -131 c 7
 7 -131 6 -121 6 -100 c 4
 6 -98 6 -95 6 -92 c 6
 6 -89 l 6xec
 6 7 7 2 7 43 c 7
 7 141 0 192 0 232 c 6
 0 247 l 6
 0 267 1 279 18 279 c 7
 36 279 43 277 43 259 c 7
 43 181 42 190 42 146 c 7
 42 121 48 114 58 114 c 7
 68 114 73 116 94 124 c 4
 114 132 123 135 130 135 c 4
 139 135 146 130 146 106 c 7
 146 40 144 59 144 -41 c 7xf2
 144 -150 152 -163 152 -264 c 7
 152 -276 142 -279 133 -279 c 6
 118 -279 l 6
 111 -279 107 -275 107 -247 c 7xe4
 107 -243 109 -182 109 -148 c 6
 109 -137 l 6
 109 -114 102 -113 95 -113 c 4
 94 -113 94 -113 93 -113 c 7
EndSplineSet
Fore
SplineSet
255 966 m 3xeac0
 287.5 966 390 808 390 657 c 0xeb40
 390 561 353 488 311 428 c 0
 282 386 271 369 271 330 c 0
 271 318 273 305 276 288 c 0
 289 224 290 230 360 216 c 1
 448 197 518 123 518 30 c 0
 518 -47 477 -113 416 -152 c 0
 386 -172 374 -177 374 -198 c 0
 374 -205 375 -213 377 -224 c 0
 386 -269 397 -333 397 -382 c 0
 397 -463 345 -539 264 -539 c 0
 201 -539 147 -493 147 -430 c 0
 147 -391 174 -356 213 -356 c 0
 247 -356 276 -381 276 -415 c 0
 276 -460 236 -464 236 -486 c 0xf2c0
 236 -500 252 -509 267 -509 c 0
 326 -509 367 -447 367 -373 c 0
 367 -332 357 -275 347 -234 c 0
 338 -194 328 -193 278 -193 c 0
 105 -193 0 -70 0 83 c 0
 0 199 62 278 130 346 c 0
 166 383 192 411 192 458 c 0
 192 477 187 501 178 532 c 0
 160 590 147 648 147 696 c 0
 147 820 223 966 255 966 c 3xeac0
191 670 m 0
 191 616 216 482 248 482 c 0
 262 482 281 505 306 547 c 0
 329 587 348 632 348 684 c 0
 348 800 307.5 865.5 283.5 865.5 c 0
 255 865.5 191 774 191 670 c 0
245.5 282.5 m 0
 239.5 310.5 233.5 322.5 224.5 322.5 c 0
 189.5 322.5 116.5 233.5 96.6127 199.5 c 0
 74.7678 162.153 55.5 120.211 55.5 56 c 0
 55.5 -79 160 -162 277 -162 c 0
 313 -162 323 -146 323 -127 c 0
 323 -117 321.399 -105.927 319 -94 c 2
 285 80 l 2
 280.334 103.879 272 119 260 119 c 0
 253 119 243 114 233 104 c 0
 216 88 206 66 206 41 c 0
 206 5 224 -21 240 -44 c 0
 243 -49 245 -53 245 -56 c 0
 245 -61 242 -63 238 -63 c 0
 235 -63 230 -62 226 -58 c 0
 187 -31 162 20 162 56 c 0
 162 101 179 134 206 166 c 0xe640
 235 201 252 204 252 236 c 0
 252 245 248.5 266.5 245.5 282.5 c 0
316 86 m 2
 349 -85 l 2
 354.966 -115.007 361 -133 374 -133 c 0
 381 -133 394 -127 407 -115 c 0
 441 -85 464 -39 464 10 c 0
 464 73 415 126 356 138 c 0
 348 140 340 140 335 140 c 0
 317 140 311 132 311 118 c 0
 311 110 313.472 99.0996 316 86 c 2
EndSplineSet
EndChar

StartChar: Aring
Encoding: 197 197 63
Width: 1000
VWidth: 0
Flags: H
LayerCount: 3
Back
SplineSet
87 69 m 7xec
 56 69 46 36 46 3 c 4
 46 -4 46 -11 46 -19 c 14
 46 -57 l 30
 46 -63 49 -68 55 -68 c 7
 76 -68 113 -10 113 36 c 7
 113 57 104 69 87 69 c 7xec
27 350 m 7
 50 350 51 339 51 319 c 4
 51 317 51 316 51 315 c 7xf4
 51 282 45 188 45 106 c 15
 45 100 50 94 56 94 c 7
 68 94 73 115 113 115 c 7
 160 115 180 76 180 35 c 31
 180 -15 152 -43 109 -73 c 4
 53 -112 41 -133 27 -133 c 7
 15 -133 13 -119 13 -108 c 31xec
 13 -61 15 -34 15 13 c 31
 15 131 0 261 0 314 c 7xf4
 0 341 9 350 27 350 c 7
EndSplineSet
EndChar

StartChar: AE
Encoding: 198 198 64
Width: 1000
VWidth: 0
Flags: H
LayerCount: 3
Back
SplineSet
95 54 m 4xf180
 70 45 68 39 68 9 c 4
 68 2 68 -6 68 -16 c 7
 68 -51 72 -62 84 -62 c 4
 89 -62 97 -59 106 -56 c 4
 135 -45 136 -43 136 8 c 6
 136 12 l 6
 136 45 136 60 120 60 c 4
 114 60 106 58 95 54 c 4xf180
25 22 m 4
 22 22 17 21 13 21 c 4
 -0 21 -0 35 0 57 c 4
 0 58 -0 58 -0 59 c 4xf8
 -0 71 0 83 15 89 c 4
 33 96 35 105 35 117 c 4
 35 120 35 124 35 127 c 15xf2
 35 157 34 179 34 203 c 7
 34 205 34 206 34 207 c 4
 34 227 35 238 54 238 c 7
 76 238 77 232 77 209 c 7xf4
 77 182 76 168 76 141 c 7
 76 127 77 118 88 118 c 4
 92 118 96 119 103 122 c 4
 128 130 129 136 129 152 c 31
 129 185 128 204 128 237 c 7
 128 243 128 247 128 251 c 4
 128 268 130 271 150 271 c 7
 160 271 171 270 171 256 c 7
 171 236 169 195 169 175 c 7xf8
 169 156 172 151 179 151 c 4
 182 151 188 153 191 153 c 4
 200 153 205 147 205 123 c 6
 205 121 l 6xf2
 205 94 205 90 188 84 c 4
 170 77 168 72 168 49 c 4
 168 43 168 36 168 27 c 7xf080
 168 -6 169 -22 182 -22 c 4
 186 -22 191 -20 194 -20 c 4
 202 -20 205 -26 205 -47 c 4
 205 -50 205 -53 205 -56 c 4xf2
 205 -79 204 -84 188 -90 c 4
 170 -97 169 -106 169 -117 c 4
 169 -120 169 -122 169 -125 c 7xf8
 169 -140 171 -167 171 -202 c 6
 171 -204 l 6
 171 -230 171 -239 150 -239 c 4
 148 -239 146 -239 144 -239 c 4
 134 -239 128 -237 128 -215 c 4
 128 -184 130 -167 130 -137 c 23
 130 -127 129 -119 117 -119 c 4
 113 -119 108 -120 101 -122 c 4
 76 -131 75 -138 75 -155 c 7
 75 -188 77 -203 77 -238 c 7
 77 -261 75 -272 54 -272 c 7
 35 -272 34 -260 34 -248 c 31xf4
 34 -219 36 -205 36 -175 c 7
 36 -156 36 -150 28 -150 c 4
 25 -150 16 -154 12 -154 c 4
 4 -154 0 -147 0 -120 c 4
 0 -116 -0 -112 -0 -108 c 4xf8
 -0 -98 2 -90 18 -83 c 4
 36 -77 37 -70 37 -22 c 7
 37 12 36 22 25 22 c 4
EndSplineSet
EndChar

StartChar: Ccedilla
Encoding: 199 199 65
Width: 1000
VWidth: 0
Flags: H
LayerCount: 3
Back
SplineSet
27 350 m 4x8c04
 50 350 51 334 51 319 c 4
 51 317 51 316 51 315 c 4
 51 282 45 188 45 106 c 4
 45 100 50 94 56 94 c 4
 68 94 73 115 113 115 c 7xaa24
 139 115 145 100 156 100 c 7
 164 100 173 111 173 133 c 7xa844
 173 158 162 244 162 314 c 7
 162 341 171 350 189 350 c 4
 212 350 213 334 213 319 c 4
 213 317 213 316 213 315 c 4
 213 282 207 188 207 106 c 4
 207 100 212 94 218 94 c 4
 230 94 235 115 275 115 c 4
 322 115 342 76 342 35 c 4
 342 -16 314 -43 271 -73 c 4xa814
 215 -112 203 -133 189 -133 c 4x4814
 177 -133 175 -119 175 -108 c 4
 175 -82 176 -64 176 -42 c 7
 176 -37 174 -31 166 -31 c 7
 148 -31 138 -52 109 -73 c 4
 53 -112 41 -133 27 -133 c 4
 15 -133 13 -119 13 -108 c 4x888c
 13 -61 15 -34 15 13 c 4
 15 130 0 261 0 314 c 4
 0 341 9 350 27 350 c 4x8c04
85 70 m 7
 62 70 48 40 48 14 c 4
 48 -11 46 -33 46 -56 c 7
 46 -62 49 -68 55 -68 c 7x68a4
 76 -68 113 -10 113 36 c 7
 113 57 102 70 85 70 c 7
247 70 m 4
 224 70 210 40 210 14 c 4x6824
 210 -11 208 -33 208 -56 c 4x680c
 208 -62 211 -68 217 -68 c 4
 238 -68 275 -10 275 36 c 4
 275 57 264 70 247 70 c 4
EndSplineSet
EndChar

StartChar: aring
Encoding: 229 229 66
Width: 1000
VWidth: 0
Flags: H
LayerCount: 3
Back
SplineSet
28 338 m 7
 51 338 63 334 86 327 c 4
 176 301 365 258 478 230 c 4
 493 226 515 223 515 212 c 7
 515 200 500 197 488 196 c 4
 457 191 354 163 258 139 c 4
 180 119 119 108 82 95 c 4
 62 88 43 84 30 84 c 7
 21 84 0 94 0 110 c 7
 0 127 25 129 44 133 c 4
 128 152 204 173 255 182 c 4
 294 189 352 197 352 212 c 7
 352 221 329 224 314 228 c 4
 208 248 147 266 37 288 c 4
 20 292 4 298 4 318 c 7
 4 331 12 338 28 338 c 7
259 43 m 7
 280 43 301 29 301 8 c 31
 301 -17 294 -42 261 -42 c 7
 228 -42 214 -21 214 5 c 7
 214 27 229 43 259 43 c 7
EndSplineSet
EndChar

StartChar: ccedilla
Encoding: 231 231 67
Width: 1000
VWidth: 0
Flags: H
LayerCount: 3
Back
SplineSet
28 318 m 7
 51 318 63 314 86 307 c 4
 176 281 365 238 478 210 c 4
 493 206 515 203 515 192 c 7
 515 180 500 177 488 176 c 4
 457 171 354 143 258 119 c 4
 180 99 119 88 82 75 c 4
 62 68 43 64 30 64 c 7
 21 64 0 74 0 90 c 7
 0 107 25 109 44 113 c 4
 128 132 204 153 255 162 c 4
 294 169 352 177 352 192 c 7
 352 201 329 204 314 208 c 4
 208 228 147 246 37 268 c 4
 20 272 4 278 4 298 c 7
 4 311 12 318 28 318 c 7
30 0 m 7
 30 27 40 28 52 28 c 4
 52 28 53 28 54 28 c 7
 75 28 153 27 248 27 c 7
 372 27 422 28 460 28 c 7
 461 28 462 28 463 28 c 4
 474 28 485 27 485 0 c 7
 485 -27 476 -28 463 -28 c 4
 461 -28 459 -28 457 -28 c 7
 434 -28 359 -27 256 -27 c 7
 143 -27 59 -28 48 -28 c 7
 31 -28 30 -25 30 -10 c 4
 30 -7 30 -4 30 0 c 7
EndSplineSet
EndChar

StartChar: iacute
Encoding: 237 237 68
Width: 560
VWidth: 0
Flags: HW
HStem: -651 21<127.442 171.143 218.232 257.944 314.159 363.969> -543 22<299.14 365.251> -483 34<299.103 394.501> -144 71<490.812 557.188> -63 138<85.6477 160.019> 73 71<490.812 557.188> 182 33<138.784 282.52>
VStem: 23 61<16 121.049> 178.001 34<-623.22 -519.003> 272.001 41<-629.739 -588.007> 278.001 21<-524.999 -483.012> 357 91<-107.507 91.9926> 376.001 37<-624.388 -548.512> 488 72<-141.203 -75.8125 75.8125 141.203>
LayerCount: 3
Fore
SplineSet
268 -593 m 0
 281 -593 289 -603 289 -617 c 0
 289 -621 l 0
 289 -632 301 -635 311 -635 c 0
 336 -635 352 -620 352 -591 c 0
 352 -562 337 -548 311 -548 c 0
 294 -548 290 -550 280 -554 c 0
 272 -558 267 -562 261 -562 c 0
 255 -562 252 -559 252 -551 c 0
 252 -541 254 -521 254 -475 c 0
 254 -469 l 0
 254 -457 260 -454 272 -454 c 0
 284 -454 289 -459 325 -459 c 0
 342 -459 361 -454 369 -454 c 0
 372 -454 375 -457 375 -460 c 0
 375 -468 368 -475 360 -480 c 0
 349 -486 338 -490 319 -490 c 0
 309 -490 301 -488 286 -488 c 0
 274 -488 275 -504 275 -516 c 0
 275 -528 278 -530 282 -530 c 0
 293 -530 297 -526 325 -526 c 0
 362 -526 389 -549 389 -589 c 0
 389 -621 365 -656 310 -656 c 0
 281 -656 248 -643 248 -614 c 0
 248 -603 255 -593 268 -593 c 0
178 -453 m 0
 187 -453 188 -458 188 -467 c 0
 188 -608 l 0
 188 -633 206 -627 226 -630 c 0
 233 -632 234 -637 234 -640 c 0
 234 -643 l 0
 234 -648 234 -653 225 -653 c 0
 113 -653 l 0
 106 -653 103 -648 103 -642 c 0
 103 -637 105 -632 112 -631 c 0
 142 -628 154 -631 154 -604 c 0
 154 -538 l 0
 154 -528 151 -524 146 -524 c 0
 143 -524 139 -526 135 -530 c 0
 98 -565 l 0
 96 -567 94 -568 91 -568 c 0
 87 -568 83 -565 83 -560 c 0
 83 -558 84 -556 85 -554 c 0
 150 -462 l 0
 154 -456 158 -453 167 -453 c 0
 178 -453 l 0
488 -109 m 3x9e
 488 -89 504 -73 524 -73 c 3
 544 -73 560 -89 560 -109 c 3
 560 -128 544 -144 524 -144 c 3
 504 -144 488 -128 488 -109 c 3x9e
488 109 m 3
 488 128 504 144 524 144 c 3
 544 144 560 128 560 109 c 3
 560 89 544 73 524 73 c 3xbe
 504 73 488 89 488 109 c 3
226 215 m 3
 367 215 448 110 448 -5 c 3
 448 -212 190 -403 25 -444 c 0
 21 -445 18 -445 15 -445 c 0
 6 -445 0 -441 0 -435 c 0
 0 -429 6 -421 19 -416 c 0
 213 -332 357 -207 357 5 c 3
 357 108 317 182 214 182 c 3
 142 182 84 145 84 100 c 3
 84 78 106 78 119 75 c 0
 158 66 178 44 178 7 c 3
 178 -32 151 -63 106 -63 c 3xde
 55 -63 23 -11 23 43 c 3
 23 143 116 215 226 215 c 3
EndSplineSet
EndChar

StartChar: Ccircumflex
Encoding: 264 264 69
Width: 330
VWidth: 0
Flags: HMW
LayerCount: 3
Back
SplineSet
15 -30 m 6
 15 -52 20 -61 48 -61 c 6
 352 -61 l 6
 375 -61 378 -64 378 -82 c 6
 378 -183 l 6
 378 -195 376 -196 361 -196 c 4
 346 -196 343 -195 343 -182 c 6
 343 -169 l 6
 343 -136.984 332 -137 310 -137 c 6
 46 -137 l 6
 20 -137 15 -136 15 -166 c 6
 15 -484 l 6
 15 -504 13 -510 -8 -510 c 4
 -32 -510 -32 -505 -32 -486 c 6
 -32 486 l 6
 -32 505 -32 510 -8 510 c 4
 13 510 15 504 15 484 c 6
 15 166 l 6
 15 136 20 137 46 137 c 6
 310 137 l 6
 332 137 343 136.984 343 169 c 6
 343 182 l 6
 343 195 346 196 361 196 c 4
 376 196 378 195 378 183 c 6
 378 82 l 6
 378 64 375 61 352 61 c 6
 48 61 l 6
 20 61 15 52 15 30 c 6
 15 -30 l 6
-102 485 m 6
 -102 -485 l 6
 -102 -506 -109 -510 -128 -510 c 6
 -175 -510 l 6
 -203 -510 -206 -503 -206 -487 c 6
 -206 487 l 6
 -206 503 -203 510 -175 510 c 6
 -128 510 l 6
 -109 510 -102 506 -102 485 c 6
EndSplineSet
Fore
SplineSet
35 40 m 2
 35 62 40 71 68 71 c 2
 262 71 l 2
 285 71 295 69 295 45 c 0
 295 31 298 31 313 31 c 0
 328 31 330 31 330 43 c 2
 330 175 l 2
 330 187 328 187 313 187 c 0
 298 187 295 187 295 173 c 0
 295 149 285 147 262 147 c 2
 66 147 l 2
 40 147 35 146 35 176 c 2
 35 242.75 l 2
 35 256 34 260 18 260 c 0
 1 260 0 259.25 0 244.75 c 2
 0 -243.331 l 2
 6.55771e-007 -258.333 2.33333 -260 17 -260 c 0
 32.6667 -260 35 -258.333 35 -241.331 c 2
 35 -176 l 2
 35 -146 40 -147 66 -147 c 2
 262 -147 l 2
 285 -147 295 -149 295 -173 c 0
 295 -187 298 -187 313 -187 c 0
 328 -187 330 -187 330 -175 c 2
 330 -43 l 2
 330 -31 328 -31 313 -31 c 0
 298 -31 295 -31 295 -45 c 0
 295 -69 285 -71 262 -71 c 2
 68 -71 l 2
 40 -71 35 -62 35 -40 c 2
 35 40 l 2
EndSplineSet
EndChar

StartChar: aogonek
Encoding: 261 261 70
Width: 1000
VWidth: -10
Flags: H
LayerCount: 3
Back
SplineSet
399 341 m 3xbf80
 385 341 367 305 367 292 c 3
 367 280 374 277 381 277 c 3
 402 277 420 285 440 285 c 3
 524 285 558 225 558 158 c 3
 558 96 499 27 450 7 c 0
 422 -4 386 -7 353 -7 c 3
 298 -7 249 33 249 87 c 3
 249 122 265 161 305 161 c 3
 328 161 350 149 350 120 c 3
 350 80 307 83 307 53 c 3
 307 35 317 21 352 21 c 3
 426 21 442 68 464 125 c 0
 472 146 486 179 486 206 c 0
 486 230 477 252 441 252 c 3
 364 252 347 205 323 205 c 3
 314 205 309 213 309 222 c 3
 309 259 338 309 351 337 c 0
 366 370 366 367 373 387 c 0
 378 403 390 434 415 434 c 3
 457 434 465 421 558 421 c 3
 577 421 588 424 607 424 c 3
 615 424 625 418 625 411 c 3
 625 381 488 341 399 341 c 3xbf80
154 49 m 7
 154 23 209 37 209 13 c 7
 209 -2 195 -2 180 -2 c 3
 134 -2 136 2 90 2 c 3
 80 2 53 1 45 1 c 3
 41 1 38 1 34 1 c 0
 11 1 0 2 0 14 c 0
 0 36 6 33 45 38 c 0x7f80
 67 42 73 52 81 69 c 0
 107 123 123.367 169.292 149 234 c 24
 155.359 250.053 163 268 163 276 c 3
 163 280 158 282 153 282 c 3
 131 282 89 240 74 240 c 3
 66 240 62 240 62 249 c 3
 62 261 81 278 88 285 c 2
 188 386 l 2
 200 398 232 439 245 439 c 3
 262 439 268 430 290 426 c 0
 296 425 302 423 302 416 c 3
 302 392 290 372 281 354 c 0
 245.611 276.788 212.718 195.375 180 114 c 0
 180 114 154 59 154 49 c 7
EndSplineSet
EndChar

StartChar: U
Encoding: 85 85 71
Width: 497
VWidth: 0
Flags: HMW
LayerCount: 3
Fore
SplineSet
412 82 m 0
 412 104 431 122 453 122 c 0
 475 122 494 104 494 82 c 0
 494 59 475 41 453 41 c 0
 431 41 412 59 412 82 c 0
415 -100 m 0
 415 -78 434 -60 456 -60 c 0
 478 -60 497 -78 497 -100 c 0
 497 -123 478 -142 456 -142 c 0
 434 -142 415 -123 415 -100 c 0
208 399 m 0
 246 399 284 386 284 341 c 0
 284 321 269 306 269 294 c 0
 269 281 290 276 290 248 c 0
 290 243 289 239 288 234 c 0
 280 206 260 195 298 170 c 0
 350 136 385 79 385 12 c 0
 385 -247 87 -424 13 -424 c 0
 6 -424 0 -422 0 -415 c 0
 0 -409 10 -404 28 -396 c 0
 197 -313 283 -202 283 58 c 0
 283 134 237 167 178 167 c 0
 149 167 106 157 106 128 c 0
 106 110 125 106 139 98 c 0
 162 84 179 62 179 32 c 0
 179 -8 145 -40 105 -40 c 0
 57 -40 22 4 22 52 c 0
 22 109 56 156 104 181 c 0
 140 200 133 212 130 236 c 0
 130 238 130 240 130 242 c 0
 130 278 152 281 152 295 c 0
 152 305 133 309 133 339 c 0
 133 381 170 399 208 399 c 0
211 374 m 0
 193 374 166 370 166 348 c 0
 166 322 207 312 228 312 c 0
 250 312 254 330 254 343 c 0
 254 358 238 374 211 374 c 0
190 279 m 0
 175 279 160 265 160 248 c 0
 160 227 178 213 204 213 c 0
 231 213 248 221 248 241 c 0
 248 261 221 279 190 279 c 0
EndSplineSet
EndChar

StartChar: x
Encoding: 120 120 72
Width: 711
Flags: W
HStem: -689 31<299.005 428.481> -567 166<243.139 331.105> -272 34<271.762 473.781> 176 103<411.667 539.796> 1146 120.5<423.198 485.221>
VStem: 0 64<-55.8427 162.732> 172 71<-592.457 -470.946> 190 65<-32.2659 97.1438> 235 46<706.432 935.27> 510 39<-577.647 -331.871> 527 46<871.49 1067.53> 643 68<-87.7507 73.2879>
LayerCount: 3
Back
SplineSet
50 22 m 7
 50 286 399 329 399 664 c 1028xf080
0 52 m 7
 0 326 358 403 358 687 c 1028xf080
-887 1109 m 29
 -855 1116 l 29
 -370 -983 l 29
 -403 -990 l 29
 -887 1109 l 29
20.6982 1219.89 m 29
 52.3926 1226.56 l 29
 500.302 -880.889 l 29
 467.608 -887.61 l 29
 20.6982 1219.89 l 29
EndSplineSet
Fore
SplineSet
433.5 1266.5 m 3xfcd0
 461.54 1266.5 573 1093.05 573 946 c 3
 573 518.645 64 390.037 64 51 c 3
 64 -112.303 203.697 -238 367 -238 c 27
 506.37 -238 643 -150.37 643 -11 c 27
 643 92.1387 559.139 176 456 176 c 27
 358.883 176 255 126.117 255 29 c 27
 255 -26.3594 282 -77 312 -101 c 0
 332 -117 322.009 -137.986 293 -120 c 0
 243 -89 190 -26.8535 190 51 c 27xfd30
 190 180.387 301.613 279 431 279 c 27
 582.159 279 711 162.159 711 11 c 27
 711 -162.124 542.123 -272 369 -272 c 27
 176.973 -272 0 -138.027 0 54 c 3
 0 518.053 527 605.953 527 990 c 3
 527 1067.01 499.443 1146 471 1146 c 3
 418.99 1146 281 1008.25 281 805 c 3xfcb0
 281 764.492 291 707.999 304.622 649 c 10
 494.52 -173.5 l 18
 503.518 -212.474 549 -383.998 549 -494 c 3
 549 -610.004 473.294 -689 369 -689 c 3
 257.241 -689 172 -612.335 172 -508 c 3
 172 -433.892 218.534 -401 277 -401 c 27
 325.013 -401 361 -442.987 361 -491 c 27
 361 -534.891 321.891 -567 278 -567 c 27
 262.825 -567 243 -568.825 243 -584 c 3xfe50
 243 -620.674 307.349 -658 362 -658 c 27
 448.734 -658 510 -590.082 510 -492 c 3
 510 -373.601 473.802 -230.477 464.803 -191.5 c 10
 278.827 614 l 18
 271.67 644.998 235 774.941 235 851 c 3
 235 1079.14 399.346 1266.5 433.5 1266.5 c 3xfcd0
EndSplineSet
EndChar

StartChar: y
Encoding: 121 121 73
Width: 711
Flags: HMW
LayerCount: 3
Back
SplineSet
433.5 1266.5 m 3xfcd0
 461.54 1266.5 573 1093.05 573 946 c 3
 573 518.646 64 390.037 64 51 c 3
 64 -112.303 203.697 -238 367 -238 c 27
 506.37 -238 643 -150.37 643 -11 c 27
 643 92.1387 559.139 176 456 176 c 27
 358.883 176 255 126.117 255 29 c 27
 255 -26.3594 282 -77 312 -101 c 0
 332 -117 322.009 -137.985 293 -120 c 0
 243 -89 190 -26.8535 190 51 c 27xfd30
 190 180.387 301.613 279 431 279 c 27
 582.159 279 711 162.159 711 11 c 27
 711 -162.124 542.123 -272 369 -272 c 27
 176.973 -272 0 -138.027 0 54 c 3
 0 518.053 527 605.953 527 990 c 3
 527 1067.01 499.443 1146 471 1146 c 3
 418.99 1146 281 1008.25 281 805 c 3xfcb0
 281 764.492 291 707.999 304.622 649 c 10
 494.52 -173.5 l 18
 503.518 -212.474 549 -383.998 549 -494 c 3
 549 -610.004 473.294 -689 369 -689 c 3
 257.241 -689 172 -612.335 172 -508 c 3
 172 -433.892 218.534 -401 277 -401 c 27
 325.013 -401 361 -442.987 361 -491 c 27
 361 -534.891 321.891 -567 278 -567 c 27
 262.825 -567 243 -568.825 243 -584 c 3xfe50
 243 -620.674 307.349 -658 362 -658 c 27
 448.734 -658 510 -590.082 510 -492 c 3
 510 -373.601 473.802 -230.477 464.803 -191.5 c 10
 278.827 614 l 18
 271.67 644.998 235 774.94 235 851 c 3
 235 1079.14 399.346 1266.5 433.5 1266.5 c 3xfcd0
EndSplineSet
Fore
SplineSet
447 -267 m 0
 424 -267 394 -272 369 -272 c 0
 177 -272 0 -138 0 54 c 0
 0 277 121 414 248 537 c 0
 268 557 278 574 278 599 c 0
 278 610 277 622 273 636 c 0
 261 686 235 787 235 851 c 3
 235 1079 399 1266 433 1266 c 3
 462 1266 573 1093 573 946 c 3
 573 773 490 649 390 540 c 0
 362 510 351 492 351 465 c 0
 351 450 354 432 360 408 c 2
 376 342 l 2
 389 285 388 282 446 279 c 0
 591 271 711 157 711 11 c 0
 711 -91 652 -171 569 -220 c 0
 534 -240 519 -244 519 -269 c 0
 519 -277 521 -287 524 -300 c 0
 537 -363 549 -437 549 -494 c 0
 549 -610 470 -693 366 -693 c 0
 254 -693 172 -605 172 -512 c 0
 172 -438 221 -399 275 -399 c 0
 323 -399 361 -433 361 -491 c 0
 361 -535 322 -567 278 -567 c 0
 263 -567 246 -572 246 -587 c 0
 246 -624 307 -658 362 -658 c 0
 449 -658 511 -587 511 -489 c 0
 511 -432 501 -372 491 -318 c 0
 484 -279 480 -267 447 -267 c 0
365 652 m 0
 457 745 527 848 527 990 c 3
 527 1067 499 1146 471 1146 c 3
 419 1146 281 1008 281 805 c 3
 281 769 289 720 300 668 c 0
 307 638 314 624 325 624 c 0
 335 624 347 634 365 652 c 0
343 334 m 2
 329 396 l 2
 322 427 315 439 304 439 c 0
 292 439 277 424 253 400 c 0
 151 295 64 191 64 51 c 0
 64 -112 204 -238 367 -238 c 0
 382 -238 397 -237 412 -235 c 0
 450 -230 463 -222 463 -198 c 0
 463 -187 460 -173 456 -155 c 2
 398 99 l 2
 390 133 383 157 362 157 c 0
 352 157 339 152 322 141 c 0
 282 116 255 79 255 29 c 0
 255 -26 282 -77 312 -101 c 0
 319 -107 322 -113 322 -118 c 0
 322 -123 319 -127 312 -127 c 0
 307 -127 301 -125 293 -120 c 0
 243 -89 190 -27 190 51 c 0
 190 130 232 197 293 238 c 0
 332 264 349 271 349 297 c 0
 349 306 347 318 343 334 c 2
643 -11 m 0
 643 88 565 176 460 176 c 0
 435 176 424 166 424 143 c 0
 424 135 425 126 428 114 c 2
 489 -150 l 2
 496 -179 505 -194 521 -194 c 0
 530 -194 542 -189 556 -178 c 0
 608 -139 643 -81 643 -11 c 0
EndSplineSet
EndChar

StartChar: at
Encoding: 64 64 74
Width: 1000
VWidth: 0
Flags: H
LayerCount: 3
Back
SplineSet
255 193 m 4xfa
 255 133 195 138 195 121 c 7
 195 110 227 96 227 50 c 4xfc
 227 -21 165 -45 104 -45 c 4
 50 -45 0 -20 0 36 c 7
 0 96 69 113 69 128 c 7
 69 140 45 151 45 183 c 4
 45 241 98 271 157 271 c 4
 209 271 255 242 255 193 c 4xfa
157 243 m 4
 129 243 95 235 95 210 c 4
 95 194 136 149 168 149 c 4
 188 149 216 162 216 196 c 4xfa
 216 224 190 243 157 243 c 4
102 93 m 4
 70 93 36 70 36 29 c 7
 36 1 56 -14 109 -14 c 7
 143 -14 174 -9 174 25 c 4xfc
 174 47 129 93 102 93 c 4
EndSplineSet
EndChar

StartChar: degree
Encoding: 176 176 75
Width: 538
VWidth: 0
Flags: W
HStem: -512 30<202.092 310.782> -209 31<196.039 327.186> 853 100<327.153 377.588>
VStem: 0 52<-43.1837 135.836> 104 92<-452.629 -356> 158 36<-41.3895 78.2992> 195 37<476.443 702.672> 260 24<231.122 285.797> 369 32<-418.954 -238.347> 415 34<572.898 790.388> 485 53<-76.0608 60.279>
LayerCount: 3
Back
SplineSet
13 59 m 7
 33 59 38 24 40 7 c 4
 53 -82 120 -161 150 -189 c 4
 260 -300 326 -423 326 -550 c 7
 326 -683 302 -806 267 -806 c 7
 257 -806 248 -800 248 -791 c 7
 248 -752 283 -731 283 -593 c 7
 283 -398 182 -283 102 -249 c 4
 84 -241 68 -233 56 -233 c 7
 31 -233 25 -303 25 -330 c 5
 0 -330 l 5
 0 -51 0 -12 0 39 c 7xa8
 0 49 3 59 13 59 c 7
EndSplineSet
Fore
SplineSet
356 953 m 3xf3e0
 381 953 449 799 449 663 c 0
 449 527 392 429 329 365 c 0
 295 331 284 318 284 297 c 0
 284 290 286 282 288 272 c 0
 299 213 295 209 342 205 c 0
 460 196 538 125 538 15 c 0
 538 -75 487 -129 426 -168 c 0
 396 -188 384 -193 384 -215 c 0
 384 -221 385 -229 387 -240 c 2
 395 -279 l 2
 399 -300 401 -321 401 -341 c 0
 401 -435 355 -512 248 -512 c 0
 185 -512 104 -471 104 -383 c 0
 104 -329 136 -297 180 -297 c 0
 226 -297 246 -328 246 -363 c 0
 246 -421 196 -428 196 -450 c 0xf9e0
 196 -464 204 -482 253 -482 c 0
 331 -482 369 -421 369 -346 c 0
 369 -330 368 -314 365 -298 c 2
 355 -247 l 2
 347.074 -206.236 333.685 -209 288 -209 c 0
 130 -209 0 -96 0 59 c 0
 0 195 69 272 141 336 c 0
 192 381 217 389 217 438 c 0
 217 455 214 477 208 507 c 0
 200 550 195 589 195 626 c 0
 195 707 216 778 259 846 c 0
 299 910 344 953 356 953 c 3xf3e0
246 484 m 2
 252 456 262 439 276 439 c 0
 290 439 312 449 346 487 c 0
 376 520 415 577 415 663 c 0
 415 758 388 853 368 853 c 0
 340 853 296 806 272 756 c 0
 246 705 232 642 232 586 c 0xf3e0
 232 567 234 549 237 532 c 2
 246 484 l 2
256 263 m 0
 252 285 245 293 235 293 c 0
 228 293 220 289 210 285 c 0
 125 244 52 144 52 32 c 0
 52 -94 156 -178 287 -178 c 0
 323 -178 333 -162 333 -143 c 0
 333 -133 331 -122 329 -110 c 2
 293 71 l 2
 288 98 281 110 264 110 c 0
 228.297 110 194 71.9385 194 22 c 3
 194 -14 204 -33 217 -61 c 0
 219 -65 220 -69 220 -73 c 0
 220 -79 216 -83 211 -83 c 0
 206 -83 200 -79 195 -73 c 0
 176 -47 158 -13 158 37 c 0xf7e0
 158 81 171 125 210 163 c 0
 241 192 260 198 260 231 c 0
 260 240 259 250 256 263 c 0
349 124 m 0
 329 124 321 118 321 102 c 0
 321 94 323 83 326 70 c 2
 359 -101 l 2
 365 -133 370 -147 384 -147 c 0
 391 -147 400 -144 412 -137 c 0
 443 -121 485 -82 485 -16 c 0
 485 66 423 124 349 124 c 0
EndSplineSet
EndChar

StartChar: plusminus
Encoding: 177 177 76
Width: 522
VWidth: 0
Flags: W
HStem: -558 30<242.1 316.375> -212 31<199.011 320.967> 845.5 104<319.414 372.784>
VStem: 4 55.5<-49.3911 141.701> 151 89<-512.026 -429.5> 166 44<-30.7754 79.5689> 371 30<-463.984 -275.15> 403 38<570.814 803.425> 468 54<-82.5054 60.9115>
LayerCount: 3
Back
SplineSet
58 -141 m 7x20
 118 -141 249 -240 249 -364 c 7
 249 -388 245 -421 226 -421 c 7
 210 -421 221 -403 116 -301 c 4
 73 -259 42 -212 42 -174 c 7
 42 -173 42 -172 42 -170 c 4
 42 -156 44 -141 58 -141 c 7x20
259 -491 m 7
 259 -463 278 -447 278 -372 c 7
 278 -231 204 -156 103 -70 c 4
 57 -30 43 3 40 68 c 4
 40 72 40 78 40 84 c 4
 40 97 38 112 26 112 c 15
 12 112 0 102 0 87 c 6xa0
 0 -485 l 17
 25 -485 l 1
 25 -392 30 -357 57 -357 c 3
 72 -357 98 -372 123 -392 c 0
 193 -451 255 -578 255 -689 c 3
 255 -762 236 -783 236 -828 c 3
 236 -839 239 -855 251 -855 c 3
 270 -855 295 -765 295 -697 c 7x50
 295 -567 259 -563 259 -491 c 7
EndSplineSet
Fore
SplineSet
349.5 949.5 m 3xfb80
 375 949.5 441 814 441 678 c 0
 441 554 373 461 321 394 c 0
 281.025 342.494 268.304 335.275 280 269 c 1
 293 205 294 211 364 197 c 0
 452 178 522 104 522 11 c 0
 522 -66 481 -132 420 -171 c 0
 390 -191 378 -196 378 -217 c 0
 378 -224 379 -232 381 -243 c 0
 390 -288 401 -352 401 -401 c 0
 401 -482 349 -558 268 -558 c 0
 205 -558 151 -512 151 -449 c 0
 151 -410 178 -375 217 -375 c 0
 251 -375 280 -400 280 -434 c 0
 280 -479 240 -483 240 -505 c 0
 240 -519 256 -528 271 -528 c 0
 330 -528 371 -466 371 -392 c 0
 371 -351 361 -294 351 -253 c 0
 342 -213 332 -212 282 -212 c 0
 109 -212 4 -89 4 64 c 0
 4 180 66 259 134 327 c 1
 199.001 393.807 225.077 387 202 504 c 0
 175.324 639.242 190.05 743.112 252.528 843 c 0
 292.516 906.931 337.632 949.5 349.5 949.5 c 3xfb80
240.355 481.335 m 2
 245.965 453.005 256.333 436.334 270.001 436.334 c 0
 284.001 436.334 311 453.5 341 495 c 0
 368.031 532.394 403 586.5 403 672 c 0
 403 767 377.5 845.5 357 845.5 c 0
 329.222 845.5 289.954 802.588 265.5 753 c 0
 231.582 684.219 218.088 595.664 231.072 529 c 2
 240.355 481.335 l 2
249.5 263.5 m 0
 243.5 291.5 237.5 303.5 228.5 303.5 c 0
 193.5 303.5 120.5 214.5 100.612 180.5 c 0
 78.7676 143.153 59.5 101.211 59.5 37 c 0
 59.5 -98 164 -181 281 -181 c 0
 317 -181 327 -165 327 -146 c 0
 327 -136 325.399 -124.927 323 -113 c 2
 289 61 l 2
 284.334 84.8789 276 100 264 100 c 0
 257 100 247 95 237 85 c 0
 220 69 210 47 210 22 c 0
 210 -14 228 -40 244 -63 c 0
 247 -68 249 -72 249 -75 c 0
 249 -80 246 -82 242 -82 c 0
 239 -82 234 -81 230 -77 c 0
 191 -50 166 1 166 37 c 0
 166 82 183 115 210 147 c 0xf780
 239 182 256 185 256 217 c 0
 256 226 252.5 247.5 249.5 263.5 c 0
320 67 m 2
 353 -104 l 2
 358.966 -134.007 365 -152 378 -152 c 0
 385 -152 398 -146 411 -134 c 0
 445 -104 468 -58 468 -9 c 0
 468 54 419 107 360 119 c 0
 352 121 344 121 339 121 c 0
 321 121 315 113 315 99 c 0
 315 91 317.472 80.0996 320 67 c 2
EndSplineSet
EndChar

StartChar: uni00B5
Encoding: 181 181 77
Width: 1000
VWidth: 0
Flags: H
LayerCount: 3
Back
SplineSet
58 141 m 7x20
 118 141 249 240 249 364 c 7
 249 388 245 421 226 421 c 7
 210 421 221 403 116 301 c 4
 73 259 42 212 42 174 c 7
 42 173 42 172 42 170 c 4
 42 156 44 141 58 141 c 7x20
259 491 m 7
 259 463 278 447 278 372 c 7
 278 231 204 156 103 70 c 4
 57 30 43 -3 40 -68 c 4
 40 -72 40 -78 40 -84 c 4
 40 -97 38 -112 26 -112 c 15
 12 -112 0 -102 0 -87 c 6xa0
 0 485 l 21
 25 485 l 5
 25 392 30 357 57 357 c 7
 72 357 98 372 123 392 c 4
 193 451 255 578 255 689 c 7
 255 762 236 783 236 828 c 7
 236 839 239 855 251 855 c 7
 270 855 295 765 295 697 c 7x50
 295 567 259 563 259 491 c 7
EndSplineSet
EndChar

StartChar: paragraph
Encoding: 182 182 78
Width: 1000
VWidth: 0
Flags: H
LayerCount: 3
Back
SplineSet
268.232 -512.333 m 4xd0
 287.222 -560.656 298 -614.269 298 -676 c 4
 298 -738 275 -855 244 -855 c 4
 233 -855 231 -842 231 -832 c 4
 231 -815 254 -768 254 -671 c 4
 254 -534 172 -438 104 -397 c 4
 87 -387 71 -378 58 -378 c 4
 36 -378 28 -436 28 -485 c 5
 0 -485 l 5xa8
 0 -269.72 0 -35 0 85 c 4
 0 101 11.3818 112 26 112 c 4
 38 112 40 97 40 84 c 4
 40 78 40 72 40 68 c 4
 43 3 57 -30 103 -70 c 4
 204 -156 278 -231 278 -372 c 4
 278 -424.387 268.73 -447.988 263.14 -467 c 4
 257.182 -487.263 261.989 -496.447 268.232 -512.333 c 4xd0
227.333 -418.335 m 4
 246.333 -418.335 249 -388 249 -364 c 4x90
 249 -240 118 -141 58 -141 c 4
 42.5734 -141 42 -158.546 42 -174 c 4
 42 -212 75.0763 -260.86 116 -301.003 c 4
 148.902 -333.277 179.055 -365.945 204.951 -400.667 c 4
 209.782 -407.414 216.142 -418.335 227.333 -418.335 c 4
EndSplineSet
EndChar

StartChar: uni00B3
Encoding: 179 179 79
Width: 1000
Flags: H
LayerCount: 3
Back
SplineSet
232 791 m 3x60
 270 791 300 634 300 572 c 3
 300 407 203 275 134 181 c 0
 71 94 39 8 37 -37 c 0
 37 -47 32 -59 23 -59 c 3
 -0 -59 0 -52 0 16 c 3xa0
 0 136 0 204 0 324 c 25
 30 324 l 17
 30 275 38 241 60 241 c 3
 73 241 89 250 106 260 c 0
 174 301 256 409 256 605 c 3
 256 670 219 751 219 768 c 3
 219 778 221 791 232 791 c 3x60
EndSplineSet
EndChar

StartChar: Gcommaaccent
Encoding: 290 290 80
Width: 506
Flags: W
HStem: -547 30<213.456 307.963> -197 31<182.616 305.629> 1037 29<250.658 308.286> 1130 21<243.872 315.254>
VStem: 0 48<-40.3101 136.469> 114 137<-456.173 -366.626> 147 40<-36.0322 84.4202> 162 34<499.5 725.181> 204 24<980.096 1027.59> 207 30<1079.16 1124.85> 248 72<902.197 960.575> 323 32<975.221 1023.92 1068.21 1124.18> 356 32<-467.975 -295.117> 455 51<-74.1535 65.1613>
LayerCount: 3
Back
SplineSet
168 271 m 4xeb
 101 206 48 133 48 31 c 4
 48 -74 138 -165 265 -166 c 4
 294 -166 308 -160 308 -138 c 4
 308 -132 307 -125 305 -117 c 6
 267 69 l 6
 263 92 252 103 238 103 c 4
 231 103 222 99 214 92 c 4
 196 76 187 57 187 28 c 4
 187 -11 195 -27 209 -56 c 4
 212 -60 213 -64 213 -68 c 4
 213 -74 209 -78 204 -78 c 4
 199 -78 193 -74 188 -69 c 4
 167 -42 147 -6 147 49 c 4
 147 94 169 135 195 160 c 4
 222 186 235 193 235 217 c 4
 235 224 233 233 231 244 c 6
 226 268 l 6
 222 286 216 295 206 295 c 4
 196 295 184 287 168 271 c 4xeb
257 -547 m 4
 192 -547 114 -504 114 -425 c 4
 114 -424 114 -424 114 -423 c 4
 114 -377 148 -342 188 -342 c 4
 226 -342 251 -370 251 -411 c 4xf3
 251 -457 209 -466 209 -486 c 4
 209 -501 216 -517 259 -517 c 4
 325 -517 356 -458 356 -406 c 4
 356 -391 355 -367 351 -348 c 6
 328 -235 l 6
 321 -199 309 -197 265 -197 c 4
 109 -196 0 -76 0 65 c 4
 0 186 72 270 152 350 c 4
 180 378 192 395 192 423 c 4
 192 434 190 447 186 464 c 6
 172 535 l 6
 165 570 162 605 162 641 c 4xe7
 162 755 195 868 252 939 c 4
 267 958 280 968 284 968 c 4
 302 968 339 916 364 842 c 4
 389 767 403 690 389 603 c 4
 374 514 335 450 289 393 c 4
 265 364 252 345 252 318 c 4
 252 310 253 303 255 294 c 6
 263 255 l 6
 270 215 270 209 327 204 c 4
 424 196 506 126 506 17 c 4
 506 -65 460 -130 395 -166 c 4
 368 -180 357 -186 357 -204 c 4
 357 -210 358 -217 360 -226 c 6
 381 -329 l 6
 387 -355 388 -376 388 -402 c 4
 387 -474 351 -547 257 -547 c 4
277 483 m 4
 309 527 330 569 345 624 c 4
 365 695 356 773 331 834 c 4
 324 851 315 861 310 861 c 4
 301 861 290 852 279 839 c 4
 241 795 196 725 196 622 c 4xe7
 196 597 198 571 204 543 c 6
 213 495 l 6
 219 469 226 451 239 451 c 4
 249 451 261 461 277 483 c 4
300 71 m 6
 336 -104 l 6
 342 -130 348 -146 363 -146 c 4
 370 -146 379 -142 389 -136 c 4
 431 -109 455 -69 455 -8 c 4
 455 66 407 104 346 119 c 4
 336 121 328 123 321 123 c 4
 304 123 297 114 297 97 c 4
 297 90 298 81 300 71 c 6
54.9414 -67 m 25
 213 140 l 25
 331.089 -15 l 25
 449 140 l 25
 563.411 -9 l 17
 643.169 95.5 l 1
 665.822 66 l 1
 509 -140 l 9
 390.366 14.5 l 25
 272 -140 l 25
 157.337 9.33789 l 17
 78.2139 -96 l 9
 54.9414 -67 l 25
EndSplineSet
Fore
SplineSet
364 842 m 0xf87c
 389 767 403 690 389 603 c 0
 374 514 335 450 289 393 c 0
 265 364 252 345 252 318 c 0
 251 310 253 303 255 294 c 2
 263 255 l 1
 270 215 270 209 327 204 c 0
 424 195 506 126 506 17 c 0
 506 -65 460 -130 395 -166 c 0
 368 -180 357 -186 357 -204 c 0
 357 -210 358 -217 360 -226 c 2
 381 -329 l 2
 387 -355 388 -376 388 -402 c 0
 387 -474 351 -547 257 -547 c 0
 192 -547 114 -504 114 -425 c 2
 114 -423 l 2
 114 -377 148 -342 188 -342 c 0
 226 -342 251 -370 251 -411 c 0xfc1c
 251 -457 209 -466 209 -486 c 0
 209 -501 216 -517 259 -517 c 0
 325 -517 356 -458 356 -406 c 0
 356 -391 355 -367 351 -348 c 2
 328 -235 l 2
 321 -199 309 -197 265 -197 c 0
 109 -196 0 -76 0 65 c 0
 0 186 72 270 152 350 c 0
 180 378 192 395 192 423 c 0
 192 434 190 447 186 464 c 2
 172 535 l 2
 165 570 162 605 162 641 c 0
 162 749 192 855 243 927 c 0
 246 932 248 936 248 940 c 0
 248 947 243 952 234 956 c 0
 215 966 204 982 204 1004 c 0xf9bc
 204 1031 225 1041 225 1053 c 0
 225 1065 207 1069 207 1097 c 0
 207 1131 242 1151 278 1151 c 0
 314 1151 350 1137 350 1095 c 0
 350 1070 334 1066 334 1052 c 0
 334 1036 355 1033 355 1004 c 0
 355 989 347 974 334 964 c 0
 325 957 320 951 320 943 c 0
 320 937 325 928 328 922 c 0
 339 902 350 885 364 842 c 0xf87c
279 839 m 0
 240 795 196 725 196 622 c 0
 196 597 198 571 204 543 c 2xf99c
 213 495 l 1
 219 469 225 451 239 451 c 0
 249 451 261 461 277 483 c 0
 309 527 330 569 345 624 c 0
 365 695 356 773 331 834 c 0
 324 851 315 861 310 861 c 0
 301 861 290 852 279 839 c 0
300 71 m 2
 336 -104 l 2
 342 -130 348 -146 363 -146 c 0
 370 -146 379 -142 389 -136 c 0
 431 -109 455 -69 455 -8 c 0
 455 66 407 104 346 119 c 0
 336 121 328 123 321 123 c 0
 304 123 297 114 297 97 c 0
 297 90 298 81 300 71 c 2
168 271 m 0
 101 206 48 133 48 31 c 0
 48 -74 138 -165 265 -166 c 0
 294 -166 308 -160 308 -138 c 0
 308 -132 307 -125 305 -117 c 2
 267 69 l 2
 263 92 252 103 238 103 c 0
 231 103 222 99 214 92 c 0
 196 76 187 57 187 28 c 0
 187 -11 195 -27 209 -56 c 0
 212 -60 213 -64 213 -68 c 0
 213 -74 209 -78 204 -78 c 0
 199 -78 193 -74 188 -69 c 0
 167 -42 147 -6 147 49 c 0xfa9c
 147 94 169 135 195 160 c 0
 222 186 235 193 235 217 c 0
 235 224 233 233 231 244 c 2
 226 268 l 2
 222 286 216 295 206 295 c 0
 196 295 184 287 168 271 c 0
278 1130 m 0
 261 1130 237 1125 237 1103 c 0xf85c
 237 1077 277 1066 296 1066 c 0
 316 1066 327 1085 327 1097 c 0
 327 1118 306 1130 278 1130 c 0
263 1037 m 0
 243 1037 228 1019 228 1003 c 0xf89c
 228 981 252 969 277 969 c 0
 304 969 323 979 323 999 c 0
 323 1020 293 1037 263 1037 c 0
EndSplineSet
EndChar

StartChar: ecaron
Encoding: 283 283 81
Width: 1000
Flags: HM
LayerCount: 3
Back
SplineSet
86 60 m 4x9f80
 108 60 135 51 148 42 c 5
 190 155 l 5
 199 154 208 154 216 154 c 6
 239 154 l 5
 256 155 l 5
 197 10 l 5
 216 19 232 33 252 41 c 4
 271 49 290 54 306 54 c 4xaf80
 334 54 357 41 368 11 c 5
 386 26 420 47 450 47 c 4
 476 47 498 30 498 -1 c 4
 498 -32 485 -55 454 -55 c 4
 434 -55 424 -48 424 -28 c 4
 424 -21 425 -12 425 -5 c 4
 425 2 425 11 419 11 c 4xcf80
 412 11 399 0 397 -3 c 4
 382 -22 372 -46 361 -69 c 6
 284 -238 l 5
 211 -238 l 5
 291 -64 l 5
 302 -34 309 -12 309 0 c 4
 309 16 294 24 283 24 c 4xaf80
 252 24 208 -11 194 -18 c 5
 203 -45 213 -78 213 -114 c 4
 213 -166 198 -200 172 -225 c 4
 161 -235 146 -241 127 -241 c 4
 90 -241 66 -208 66 -172 c 4
 66 -145 75 -119 82 -99 c 5
 90 -80 l 5
 81 -82 73 -84 65 -84 c 4
 27 -84 2 -57 0 -21 c 4
 0 -19 0 -17 0 -15 c 4
 0 37 37 60 86 60 c 4x9f80
21 -22 m 4
 21 -45 40 -64 65 -64 c 4
 79 -64 95 -57 107 -48 c 5
 131 4 l 5
 131 27 108 37 84 37 c 4x9f80
 49 37 21 12 21 -22 c 4
120 -184 m 5
 120 -194 129 -205 138 -207 c 5
 177 -205 190 -165 190 -123 c 4
 190 -95 184 -66 176 -46 c 5
 173 -53 167 -64 161 -76 c 6
 143 -117 l 5
 127 -157 l 5
 120 -184 l 5
EndSplineSet
EndChar

StartChar: Gcircumflex
Encoding: 284 284 82
Width: 1000
VWidth: -2
Flags: H
LayerCount: 3
Back
SplineSet
214.45 10.3486 m 6xac
 182.05 10.3486 178.45 -1.35156 171.25 -25.6514 c 6
 133.45 -164.252 l 6
 128.05 -186.752 126.25 -211.952 145.15 -211.952 c 7
 176.65 -211.952 235.15 -132.752 252.25 -72.4521 c 6
 263.05 -33.752 l 6
 272.05 1.34863 266.65 10.3486 234.25 10.3486 c 14
 214.45 10.3486 l 6xac
230.65 184.948 m 6
 198.25 68.8486 l 6
 192.85 48.1484 202.75 44.5479 213.55 44.5479 c 14
 244.15 44.5479 l 6xac
 271.15 44.5479 275.65 56.248 289.15 56.248 c 7x9c
 296.35 56.248 302.65 55.3486 309.85 55.3486 c 7
 326.95 55.3486 333.25 58.0479 341.35 58.0479 c 7
 359.35 58.0479 347.65 35.5479 360.25 35.5479 c 7
 370.15 35.5479 383.65 64.3486 423.25 64.3486 c 7
 467.35 64.3486 483.55 30.874 483.55 -4.95215 c 31
 483.55 -34.3066 471.85 -61.6514 434.05 -61.6514 c 7xcc
 412.45 -61.6514 398.05 -41.8516 398.05 -21.1514 c 7
 398.05 -7.65137 400.75 1.34863 404.35 8.54785 c 4
 419.65 37.3486 404.35 43.6484 380.95 20.248 c 4
 353.05 -9.45215 322.45 -76.0518 305.35 -137.252 c 6
 282.85 -218.252 l 6
 276.55 -240.752 272.95 -247.052 252.25 -247.052 c 6
 219.85 -247.052 l 6
 211.75 -247.052 204.55 -240.752 206.35 -231.752 c 4
 213.55 -203.852 196.45 -211.952 180.25 -225.452 c 4
 168.55 -235.352 151.45 -249.752 117.25 -249.752 c 7
 28.1504 -249.752 60.5498 -160.651 73.1504 -117.452 c 6
 100.15 -19.3516 l 6
 107.35 7.64844 95.6504 10.3486 77.6504 10.3486 c 14
 53.3496 10.3486 l 6
 35.3496 10.3486 25.4502 12.1484 25.4502 23.8486 c 7
 25.4502 38.248 33.5498 44.5479 63.25 44.5479 c 6
 75.8496 44.5479 l 6
 109.15 44.5479 118.15 47.248 123.55 66.1484 c 6
 137.05 114.748 l 6
 143.35 134.548 146.05 138.148 159.55 147.148 c 4
 185.65 163.349 193.75 174.148 211.75 196.648 c 4
 221.65 209.248 236.95 208.349 230.65 184.948 c 6
EndSplineSet
EndChar

StartChar: hcircumflex
Encoding: 293 293 83
Width: 151
Flags: W
HStem: -3 22<36.5829 110.017> 87 29<46.6582 104.286> 180 21<39.8717 111.254>
VStem: 0 24<30.6357 77.5889> 3 30<129.164 174.854> 119 32<25.1302 73.9238 118.211 174.182>
LayerCount: 3
Back
SplineSet
1100.98 15 m 5
 983.367 -140 l 5
 864.277 15 l 5
 746 -140 l 5
 626.91 15 l 5
 509 -140 l 5
 390 14 l 13
 272 -140 l 29
 158 9 l 21
 79 -96 l 13
 55 -67 l 29
 213 140 l 29
 331 -15 l 21
 449 140 l 13
 568 -15 l 21
 686 140 l 13
 805.367 -15 l 21
 923.367 140 l 13
 1041.95 -15.1816 l 21
 1159.95 139.818 l 13
 1274.03 -8.5 l 21
 1353.5 96.25 l 5
 1376.95 65.8184 l 5
 1219.95 -140.182 l 5
 1100.98 15 l 5
EndSplineSet
Fore
SplineSet
59 87 m 0xf4
 39 87 24 69 24 53 c 0
 24 31 48 19 73 19 c 0
 100 19 119 29 119 49 c 0
 119 70 89 87 59 87 c 0xf4
74 180 m 0
 57 180 33 175 33 153 c 0xec
 33 127 73 116 92 116 c 0
 112 116 123 135 123 147 c 0
 123 168 102 180 74 180 c 0
74 201 m 0
 110 201 146 187 146 145 c 0
 146 120 130 116 130 102 c 0
 130 86 151 83 151 54 c 0
 151 24 121 -3 75 -3 c 0
 31 -3 0 18 0 54 c 0xf4
 0 81 21 91 21 103 c 0
 21 115 3 119 3 147 c 0
 3 181 38 201 74 201 c 0
EndSplineSet
EndChar

StartChar: kgreenlandic
Encoding: 312 312 84
Width: 711
Flags: W
HStem: -693 35<292.177 429.373> -575 183<251.957 336.726> -267 29<280.717 451.453> 1139 135<425.082 488>
VStem: 0 64<-48.7592 170.936> 172 78<-592.819 -474> 190 65<-32.2196 97.8943> 511 38<-574.612 -332.039> 527 46<860.662 1069.94> 643 68<-89.9644 76.7006>
LayerCount: 3
Back
SplineSet
-220 -38 m 1
 -220 -52 -223 -67 -228 -82 c 1
 -391 112 -392 350 -228 546 c 1
 -191 538 l 1
 -341 360 -349 144 -220 -38 c 1
EndSplineSet
Fore
SplineSet
447 -267 m 0xfd40
 424 -267 394 -272 369 -272 c 0
 177 -272 0 -130 0 62 c 0
 0 286 129 415 248 541 c 0
 267 562 278 578 278 603 c 0
 278 614 276 626 272 640 c 0
 260 690 235 787 235 851 c 3
 235 1079 404.5 1274 431 1274 c 3
 454.521 1274 573 1099.01 573 946 c 3xf8c0
 573 773 490 640 390 531 c 0
 362 501 355 477 355 450 c 0
 355 435 358 417 364 393 c 2
 376 342 l 2
 389 285 388 282 446 279 c 0
 591 271 711 157 711 11 c 0
 711 -91 652 -171 569 -220 c 0
 534 -240 519 -244 519 -269 c 0
 519 -277 521 -287 524 -300 c 0
 537 -363 549 -437 549 -494 c 0
 549 -610 470 -693 366 -693 c 0
 254 -693 172 -605 172 -512 c 0
 172 -436 219 -392 279 -392 c 0
 328 -392 371 -432 371 -489 c 0
 371 -536 332 -575 279 -575 c 0
 264 -575 250 -577 250 -592 c 0
 250 -627 307 -658 362 -658 c 0
 449 -658 511 -587 511 -489 c 0
 511 -432 501 -372 491 -318 c 0
 484 -279 480 -267 447 -267 c 0xfd40
363 656 m 0
 455 741 527 848 527 990 c 3
 527 1067 502 1139 474 1139 c 3
 422 1139 281 1008 281 805 c 3
 281 769 291 711 299 674 c 0
 305 643 314 631 325 631 c 0
 335 631 348 641 363 656 c 0
343 334 m 2
 331.5 385.5 l 2
 324.5 416.5 316.5 430.5 303.5 430.5 c 0
 293.5 430.5 282.724 424.393 266.5 409.5 c 0
 169 320 64 213 64 59 c 0
 64 -104 204 -238 367 -238 c 0
 382 -238 397 -237 412 -235 c 0
 450 -230 463 -222 463 -198 c 0
 463 -187 460 -173 456 -155 c 2
 400 89 l 2
 392 123 385 150 364 150 c 0
 309 150 255 94 255 29 c 0
 255 -26 282 -77 312 -101 c 0
 319 -107 322 -113 322 -118 c 0
 322 -123 319 -127 312 -127 c 0
 307 -127 301 -125 293 -120 c 0
 243 -89 190 -27 190 51 c 0xfa40
 190 130 232 197 293 238 c 0
 332 264 349 271 349 297 c 0
 349 306 346.594 317.904 343 334 c 2
643 -11 m 0
 643 93.5 564.5 167 463 167 c 0
 424.9 167 422.462 135.152 431 101 c 2
 489 -150 l 2
 496 -179 505 -194 521 -194 c 0
 530 -194 542 -189 556 -178 c 0
 608 -139 643 -81 643 -11 c 0
EndSplineSet
EndChar

StartChar: X
Encoding: 88 88 85
Width: 694
VWidth: 0
Flags: HMW
LayerCount: 3
Back
SplineSet
372 39 m 4
 349 6 349 -6 372 -39 c 4
 397 -77 413 -54 469 -54 c 7
 606 -54 694 -150 694 -274 c 7
 694 -413 598 -507 454 -507 c 7
 365 -507 274 -454 274 -353 c 7
 274 -314 305 -278 349 -278 c 7
 389 -278 423 -301 423 -342 c 7
 423 -416 359 -408 359 -437 c 7
 359 -466 399 -478 443 -478 c 7
 521 -478 563 -402 563 -271 c 7
 563 -179 539 -81 457 -81 c 7
 401 -81 360 -132 356 -202 c 4
 355 -216 353 -226 345 -226 c 7
 323 -226 346 -190 309 -98 c 4
 294 -62 269 -40 247 -40 c 7
 236 -40 225 -36 225 -80 c 6
 225 -483 l 6
 225 -507 221 -507 208 -507 c 7
 192 -507 184 -504 184 -479 c 6
 184 486 l 6
 184 506 189 507 205 507 c 7
 218 507 225 506 225 490 c 6
 225 80 l 6
 225 36 236 40 247 40 c 7
 269 40 294 62 309 98 c 4
 346 190 323 226 345 226 c 7
 353 226 355 216 356 202 c 4
 360 132 401 81 457 81 c 7
 539 81 563 179 563 271 c 7
 563 402 521 478 443 478 c 7
 399 478 359 466 359 437 c 7
 359 408 423 416 423 342 c 7
 423 301 389 278 349 278 c 7
 305 278 274 314 274 353 c 7
 274 454 365 507 454 507 c 7
 598 507 694 413 694 274 c 7
 694 150 606 54 469 54 c 7
 413 54 397 77 372 39 c 4
0 -462 m 6
 0 458 l 6
 0 502 2 507 62 507 c 7
 118 507 124 508 124 462 c 6
 124 -470 l 6
 124 -498 122 -507 50 -507 c 7
 4 -507 0 -494 0 -462 c 6
EndSplineSet
Fore
SplineSet
372 39 m 0
 361 22 355 11 355 0 c 0
 355 -11 361 -22 372 -39 c 0
 382 -54 392 -59 405 -59 c 0
 419 -59 439 -53 469 -53 c 3
 606 -53 694 -150 694 -274 c 3
 694 -413 598 -507 454 -507 c 3
 365 -507 274 -454 274 -353 c 3
 274 -314 305 -278 349 -278 c 3
 389 -278 423 -301 423 -342 c 3
 423 -411 366 -407 366 -433 c 3
 366 -462 410 -473 443 -473 c 3
 524 -473 563 -402 563 -271 c 3
 563 -179 542 -88 457 -88 c 3
 401 -88 366 -132 362 -202 c 0
 361 -217 353 -226 346 -226 c 0
 338 -226 331 -218 330 -200 c 0
 326 -128 308 -40 247 -40 c 3
 235 -40 225 -44 225 -63 c 2
 225 -490 l 2
 225 -506 218 -507 205 -507 c 3
 189 -507 184 -506 184 -486 c 2
 184 486 l 2
 184 506 189 507 205 507 c 3
 218 507 225 506 225 490 c 2
 225 63 l 2
 225 44 235 40 247 40 c 3
 308 40 326 128 330 200 c 0
 331 218 338 226 346 226 c 0
 353 226 361 217 362 202 c 0
 366 132 401 88 457 88 c 3
 542 88 563 179 563 271 c 3
 563 402 524 473 443 473 c 3
 410 473 366 462 366 433 c 3
 366 407 423 411 423 342 c 3
 423 301 389 278 349 278 c 3
 305 278 274 314 274 353 c 3
 274 454 365 507 454 507 c 3
 598 507 694 413 694 274 c 3
 694 150 606 53 469 53 c 3
 439 53 419 59 405 59 c 0
 392 59 382 54 372 39 c 0
0 -462 m 2
 0 458 l 2
 0 505 6 507 69 507 c 0
 118 507 124 506 124 462 c 2
 124 -470 l 2
 124 -498 122 -507 50 -507 c 3
 4 -507 0 -494 0 -462 c 2
EndSplineSet
EndChar

StartChar: quotesingle
Encoding: 39 39 86
Width: 147
Flags: HW
LayerCount: 3
Back
SplineSet
140 326 m 6
 150 326 157 322 157 307 c 6
 157 51 l 6
 157 31 160 29 183 27 c 4
 195 26 197 22 197 14 c 4
 197 3 192 0 175 0 c 6
 66 0 l 6
 44 0 42 4 42 14 c 4
 42 20 43 25 54 26 c 4
 85 29 86 30 86 75 c 6
 86 182 l 6
 86 194 86 206 80 206 c 4
 73 206 73 202 39 161 c 4
 35 156 28 153 24 153 c 4
 16 153 15 157 15 160 c 4
 15 162 17 167 18 170 c 4
 38 215 63 262 78 298 c 4
 89 325 99 326 110 326 c 6
 140 326 l 6
EndSplineSet
Fore
SplineSet
195 210 m 4
 208 210 217 205 255 205 c 4
 267 205 281 207 291 209 c 4
 311 212 313 200 302 189 c 4
 291 177 271 169 247 169 c 4
 237 169 231 171 215 171 c 4
 202 171 201 156 201 144 c 4
 201 131 207 130 212 130 c 4
 223 130 222 134 250 134 c 4
 288 134 319 111 319 69 c 4
 319 32 292 -4 234 -4 c 4
 201 -4 170 9 170 44 c 4
 170 62 182 71 196 71 c 4
 211 71 217 60 217 50 c 4
 217 38 214 40 214 31 c 4
 214 20 223 19 233 19 c 4
 266 19 278 44 278 67 c 4
 278 101 258 109 231 109 c 4
 206 109 198 93 184 93 c 4
 177 93 174 95 174 105 c 4
 174 115 179 137 179 186 c 4
 179 194 l 4
 179 207 185 210 195 210 c 4
98 210 m 4
 104 210 107 206 107 198 c 4
 107 50 l 4
 107 25 119 26 139 23 c 4
 147 21 147 18 147 12 c 4
 147 5 145 0 135 0 c 4
 35 0 l 4
 26 0 24 4 24 11 c 4
 24 17 25 21 32 22 c 4
 58 25 66 28 66 56 c 4
 66 118 l 4
 66 126 64 130 61 130 c 4
 59 130 54 126 50 122 c 4
 14 86 l 4
 12 84 9 83 7 83 c 4
 3 83 0 86 0 91 c 4
 0 93 1 96 2 98 c 4
 61 192 l 4
 70 206 72 210 84 210 c 4
 98 210 l 4
EndSplineSet
EndChar

StartChar: parenleft
Encoding: 40 40 87
Width: 686
Flags: HMW
LayerCount: 3
Fore
SplineSet
318 315 m 2
 306 366 l 2
 301 386 283 388 267 374 c 0
 149 273 85 172 85 57 c 3
 85 -111 192 -251 352 -251 c 3
 434 -251 453 -226 444 -190 c 2
 375 89 l 2
 366 122 362 131 343 131 c 3
 311 131 242 83 242 -16 c 3
 242 -109 290 -153 350 -172 c 0
 373 -179 372 -203 345 -200 c 0
 238 -187 168 -67 168 26 c 3
 168 126 215 202 280 253 c 0
 299 268 326 285 318 315 c 2
529 -198 m 0
 585 -158 601 -106 601 -44 c 3
 601 59 527 152 424 152 c 3
 399 152 397 138 402 116 c 2
 476 -180 l 2
 484 -214 502 -216 529 -198 c 0
404 1093 m 3
 346 1093 222 837 254 711 c 2
 268 652 l 2
 279 609 301 616 325 640 c 0
 377 692 450 833 450 957 c 3
 450 1016 425 1093 404 1093 c 3
350 325 m 2
 359 287 367 297 410 297 c 3
 586 297 686 162 686 16 c 3
 686 -130 572 -215 522 -247 c 0
 499 -261 499 -272 504 -294 c 2
 519 -355 l 2
 526 -379 537 -434 537 -490 c 3
 537 -602 462 -666 368 -666 c 3
 269 -666 184 -588 184 -489 c 3
 184 -408 246 -353 313 -353 c 3
 390 -353 431 -419 431 -479 c 3
 431 -541 391 -570 356 -580 c 0
 334 -587 297 -583 297 -604 c 3
 297 -621 327 -634 368 -634 c 3
 455 -634 504 -567 504 -490 c 3
 504 -450 496 -400 487 -360 c 2
 471 -299 l 2
 467 -281 458 -277 443 -277 c 3
 421 -277 400 -287 352 -287 c 3
 163 -287 0 -95 0 97 c 3
 0 209 64 340 140 434 c 0
 174 476 203 509 222 536 c 0
 250 574 250 591 237 642 c 2
 210 748 l 2
 197 799 189 856 189 919 c 3
 189 1051 282 1197 329 1247 c 0
 350 1270 352 1272 371 1249 c 0
 414 1199 502 1036 502 834 c 3
 502 659 431 544 353 457 c 0
 330 431 327 419 333 394 c 2
 350 325 l 2
EndSplineSet
EndChar

StartChar: hyphen
Encoding: 45 45 88
Width: 1000
Flags: HMW
LayerCount: 3
Back
SplineSet
595 1183 m 4xddc0
 627.5 1183 657 1101 657 1007 c 4xddd0
 657 782 533 624 405 489 c 5
 422 320 l 5
 426 321 441.667 322 452 322 c 4
 580 322 713 232 713 61 c 4
 713 -67 597 -183 479 -215 c 5
 482 -242 l 6
 488 -291 493 -340 493 -379 c 4
 493 -531 401 -625 278 -625 c 4
 161 -625 54 -560 54 -450 c 4
 54 -387 103 -333 166 -333 c 4
 236 -333 277 -374.5 277 -437.5 c 4
 277 -542.5 190.624 -534 190.624 -562.591 c 4xbbe0
 190.624 -586.721 245.5 -592 278 -592 c 4
 385 -592 460 -500 460 -380 c 4
 460 -337 455 -291 450 -246 c 6
 447 -222 l 5
 439 -223 432 -223 424 -223 c 4
 188 -223 46 -67 46 136 c 4
 46 347 203 506 356 645 c 5
 350 722 348.412 731.503 349 785.5 c 4
 351.272 994 524.5 1183 595 1183 c 4xddc0
386 673 m 5
 517 790 635 893 635 1003 c 4
 635 1026 630 1055 607 1055 c 4
 560 1055 382 925 382 785.5 c 4
 382 760.5 383 726 386 673 c 5
390 311 m 5
 375 458 l 5
 246 325 122 211 122 71 c 4
 122 -95 265 -188 408 -188 c 4
 420 -188 431 -187 442 -185 c 5
 441 -175 440 -165 439 -155 c 6
 403 186 l 5
 321 173 265 119.5 265 33.5 c 4
 265 -15.6667 277 -38.333 289 -62 c 4
 301.672 -86.9922 282.253 -96.6494 265.169 -76.834 c 4
 244.333 -52.667 219 -1 219 64 c 4
 219 200.5 307 289 390 311 c 5
436 188 m 5
 472 -153 l 6
 473 -161 474 -169 475 -178 c 5
 559 -153 624 -80 624 12 c 4xb9e0
 624 124 547 188 436 188 c 5
EndSplineSet
Fore
SplineSet
595 1183 m 0
 628 1183 660 1101 660 1007 c 0
 660 787 533 624 405 489 c 1
 422 320 l 1
 426 321 442 322 452 322 c 0
 580 322 713 232 713 61 c 0
 713 -67 597 -183 479 -215 c 1
 482 -242 l 6
 488 -291 493 -340 493 -379 c 4
 493 -531 401 -625 278 -625 c 4
 161 -625 54 -560 54 -450 c 4
 54 -387 103 -333 166 -333 c 4
 236 -333 277 -374 277 -438 c 4
 277 -542 191 -534 191 -563 c 4
 191 -587 246 -592 278 -592 c 4
 385 -592 460 -500 460 -380 c 4
 460 -337 455 -291 450 -246 c 6
 447 -222 l 1
 439 -223 432 -223 424 -223 c 0
 188 -223 46 -67 46 136 c 0
 46 347 203 506 356 645 c 1
 350 722 348 732 349 786 c 0
 351 994 524 1183 595 1183 c 0
386 673 m 1
 517 790 630 884 630 1003 c 0
 630 1026 630 1058 611 1058 c 0
 564 1058 382 925 382 786 c 0
 382 760 380 734 386 673 c 1
390 311 m 1
 375 458 l 1
 246 325 122 211 122 71 c 0
 122 -95 265 -188 408 -188 c 0
 420 -188 431 -187 442 -185 c 1
 441 -175 440 -165 439 -155 c 2
 403 186 l 1
 321 173 265 120 265 34 c 0
 265 -16 277 -38 289 -62 c 0
 302 -87 282 -97 265 -77 c 0
 244 -53 219 -1 219 64 c 0
 219 200 307 289 390 311 c 1
436 188 m 1
 472 -153 l 2
 473 -161 474 -169 475 -178 c 1
 559 -153 624 -80 624 12 c 0
 624 124 547 188 436 188 c 1
EndSplineSet
EndChar

StartChar: period
Encoding: 46 46 89
Width: 1000
Flags: H
LayerCount: 3
Back
SplineSet
99 138 m 4
 86.3333 138 74.5 133.5 63.5 124.5 c 4
 52.5 115.5 47 104.667 47 92 c 4
 47 72 54.6667 55.8333 70 43.5 c 4
 85.3333 31.1667 106 25 132 25 c 4
 183.333 25 209 40 209 70 c 4
 209 84.6667 197.5 99.6667 174.5 115 c 4
 151.5 130.333 126.333 138 99 138 c 4
143 302 m 4
 125 302 108.167 298.5 92.5 291.5 c 4
 76.8333 284.5 69 273.333 69 258 c 4
 69 240.667 82.3333 225.667 109 213 c 4
 135.667 200.333 161.333 194 186 194 c 4
 196.667 194 205.667 198.667 213 208 c 4
 220.333 217.333 224 227.333 224 238 c 4
 224 256.667 216.5 272 201.5 284 c 4
 186.5 296 167 302 143 302 c 4
139 327 m 4
 217 327 256 296.667 256 236 c 4
 256 223.333 250.833 209.667 240.5 195 c 4
 230.167 180.333 225 172 225 170 c 4
 225 166 228.5 161.167 235.5 155.5 c 4
 242.5 149.833 249.5 142 256.5 132 c 4
 263.5 122 267 110.333 267 97 c 4
 267 67 255.333 42.3333 232 23 c 4
 208.667 3.66667 178 -6 140 -6 c 4
 105.333 -6 75.8333 1.5 51.5 16.5 c 4
 27.1667 31.5 15 53 15 81 c 4
 15 95 17.1667 106.833 21.5 116.5 c 4
 25.8333 126.167 30.3333 132.833 35 136.5 c 4
 48.5 147.5 l 4
 55 159 l 4
 46.5 172 l 4
 30 194 l 4
 22 234 l 4
 22 264.667 33.5 287.833 56.5 303.5 c 4
 79.5 319.167 107 327 139 327 c 4
EndSplineSet
EndChar

StartChar: slash
Encoding: 47 47 90
Width: 1000
LayerCount: 3
Back
SplineSet
118 162 m 0
 136.667 162 152.167 168.333 164.5 181 c 0
 176.833 193.667 183 213.667 183 241 c 0
 183 255.667 179.167 269.667 171.5 283 c 0
 163.833 296.333 150 303 130 303 c 0
 111.333 303 99 297.833 93 287.5 c 0
 87 277.167 84 263 84 245 c 0
 84 224 l 0
 84 182.667 95.3333 162 118 162 c 0
118 -4 m 0
 91.3333 -4 69.6667 2.5 53 15.5 c 0
 36.3333 28.5 28 43 28 59 c 0
 28 71.6667 31.6667 82.3333 39 91 c 0
 46.3333 99.6667 55.6667 104 67 104 c 0
 91.6667 104 104 92.6667 104 70 c 0
 104 62.6667 101.833 55.8333 97.5 49.5 c 0
 93.1667 43.1667 91 38.6667 91 36 c 0
 91 25.3333 100.333 20 119 20 c 0
 161 20 182 50 182 110 c 0
 182 130.667 176 141 164 141 c 0
 163.333 141 157.667 139.667 147 137 c 0
 136.333 134.333 123 133 107 133 c 0
 45.6667 133 15 165.333 15 230 c 0
 15 256.667 26.1667 279.667 48.5 299 c 0
 70.8333 318.333 96.3333 328 125 328 c 0
 168.333 328 201.5 312 224.5 280 c 0
 247.5 248 259 209.667 259 165 c 0
 259 117 246.5 76.8333 221.5 44.5 c 0
 196.5 12.1667 162 -4 118 -4 c 0
EndSplineSet
EndChar

StartChar: exclam
Encoding: 33 33 91
Width: 187
Flags: HMW
LayerCount: 3
Back
SplineSet
62 298 m 4
 64 298 74.1667 296.5 92.5 293.5 c 4
 110.833 290.5 131.667 289 155 289 c 4
 165.667 289 176.5 290 187.5 292 c 4
 198.5 294 204.667 295 206 295 c 4
 210.667 295 213 291.667 213 285 c 4
 213 277.667 209.667 270.333 203 263 c 4
 184.333 242.333 162.333 232 137 232 c 4
 133.667 232 126 233.333 114 236 c 4
 102 238.667 91 240 81 240 c 4
 72.3333 240 66.6667 237.333 64 232 c 4
 61.3333 226.667 60 218 60 206 c 4
 60 191 l 4
 60 183 63.3333 179 70 179 c 4
 72.6667 179 80 181 92 185 c 4
 104 189 120.667 191 142 191 c 4
 170 191 193.333 182.333 212 165 c 4
 230.667 147.667 240 123 240 91 c 4
 240 66.3333 229 43.8333 207 23.5 c 4
 185 3.16667 155 -7 117 -7 c 4
 92.3333 -7 70.8333 -0.666667 52.5 12 c 4
 34.1667 24.6667 25 42.6667 25 66 c 4
 25 77.3333 28.6667 86 36 92 c 4
 43.3333 98 52.3333 101 63 101 c 4
 84.3333 101 95 89.6667 95 67 c 4
 95 59 93.3333 52.8333 90 48.5 c 4
 86.6667 44.1667 85 40 85 36 c 4
 85 25.3333 94 20 112 20 c 4
 117 20 l 4
 149.667 20 166 45.3333 166 96 c 4
 166 139.333 148 161 112 161 c 4
 92 161 74.6667 154.333 60 141 c 4
 54 133.667 48.3333 130 43 130 c 4
 36.3333 130 33 134 33 142 c 4
 36 182 l 4
 38 209.333 39 236.333 39 263 c 4
 39 279 l 4
 39 291.667 46.6667 298 62 298 c 4
EndSplineSet
Fore
SplineSet
31 262 m 0
 47 262 59 256 106 256 c 0
 128 256 155 263 165 263 c 0
 170 263 172 259 172 254 c 0
 172 244 160 231 150 224 c 0
 136 215 117 209 96 209 c 0
 83 209 70 211 50 211 c 0
 34 211 34 195 34 180 c 0
 34 164 38 162 44 162 c 0
 58 162 63 168 100 168 c 0
 148 168 187 138 187 86 c 0
 187 40 152 -5 80 -5 c 0
 39 -5 0 11 0 55 c 0
 0 77 15 89 32 89 c 0
 51 89 59 75 59 60 c 0
 59 45 53 45 53 34 c 0
 53 20 66 18 79 18 c 0
 120 18 126 55 126 84 c 0
 126 122 110 142 76 142 c 0
 54 142 43 132 34 124 c 0
 28 119 22 114 17 114 c 0
 8 114 5 117 5 129 c 0
 5 142 11 172 11 233 c 0
 11 242 l 0
 11 258 18 262 31 262 c 0
EndSplineSet
EndChar

StartChar: quotedbl
Encoding: 34 34 92
Width: 200
Flags: HMW
LayerCount: 3
Back
SplineSet
142 147 m 4
 130.667 147 119.667 142.333 109 133 c 4
 99 123 94 104 94 76 c 4
 94 66.667 94.5 59 95.5 53 c 4
 96.5 47 101 40.5 109 33.5 c 4
 117 26.5 128.667 23 144 23 c 4
 170.667 23 184 45.333 184 90 c 4
 184 109.333 181.333 123.667 176 133 c 4
 170.667 142.333 159.333 147 142 147 c 4
154 297 m 4
 178.667 297 198 291.167 212 279.5 c 4
 226 267.833 233 252 233 232 c 4
 233 220.667 229.333 211.833 222 205.5 c 4
 214.667 199.167 205.667 196 195 196 c 4
 175 196 165 207 165 229 c 4
 165 233.667 166.833 238.667 170.5 244 c 4
 174.167 249.333 176 254 176 258 c 4
 176 268.667 167.667 274 151 274 c 4
 113 274 94 247.333 94 194 c 4
 94 185.333 95.333 178.833 98 174.5 c 4
 100.667 170.167 102.833 167.833 104.5 167.5 c 4
 106.167 167.167 109 167 113 167 c 4
 115 167 119.833 168.167 127.5 170.5 c 4
 135.167 172.833 147.333 174 164 174 c 4
 218.667 174 246 144.333 246 85 c 4
 246 61 236 40.333 216 23 c 4
 196 5.66699 173 -3 147 -3 c 4
 107 -3 76.667 11.333 56 40 c 4
 35.333 68.667 25 103.333 25 144 c 4
 25 187.333 36.5 223.667 59.5 253 c 4
 82.5 282.333 114 297 154 297 c 4
EndSplineSet
Fore
SplineSet
70 108 m 0
 51 108 31 95 31 74 c 0
 31 43 60 24 92 24 c 0
 129 24 154 32 154 57 c 0
 154 82 109 108 70 108 c 0
101 237 m 0
 79 237 42 234 42 206 c 0
 42 173 101 159 127 159 c 0
 146 159 161 177 161 193 c 0
 161 212 142 237 101 237 c 0
98 263 m 0
 146 263 192 246 192 190 c 0
 192 165 173 149 173 137 c 0
 173 121 200 117 200 79 c 0
 200 31 160 -5 99 -5 c 0
 49 -5 0 19 0 66 c 0
 0 111 26 112 26 129 c 0
 26 142 4 143 4 188 c 0
 4 241 51 263 98 263 c 0
EndSplineSet
EndChar

StartChar: numbersign
Encoding: 35 35 93
Width: 680
Flags: HMW
LayerCount: 3
Back
SplineSet
186 201 m 4
 184.667 201 182.167 200.833 178.5 200.5 c 4
 174.833 200.167 172 200 170 200 c 4
 166 200 l 4
 153.333 200 139.5 207.167 124.5 221.5 c 4
 109.5 235.833 96.3333 243 85 243 c 4
 66.3333 243 54 232.667 48 212 c 4
 45.3333 202.667 41.3333 198 36 198 c 4
 28.6667 198 25 202.333 25 211 c 4
 25 211.667 25.1667 215.5 25.5 222.5 c 4
 25.8333 229.5 26 236.667 26 244 c 4
 26 281 l 4
 26 290.333 29.3333 295 36 295 c 4
 40.6667 295 45 292.833 49 288.5 c 4
 53 284.167 57 282 61 282 c 4
 66.3333 282 74.3333 284.5 85 289.5 c 4
 95.6667 294.5 107.667 297 121 297 c 4
 139.667 297 155.5 291.333 168.5 280 c 4
 181.5 268.667 193 263 203 263 c 4
 214.333 263 223 271 229 287 c 4
 231.667 293 235 296 239 296 c 4
 245 296 248.667 295 250 293 c 4
 251.333 291 252 286.667 252 280 c 4
 252 221.333 235.333 170.333 202 127 c 4
 186 107 174.833 89.5 168.5 74.5 c 4
 162.167 59.5 157.333 41 154 19 c 4
 152 5 145.667 -2 135 -2 c 4
 132.333 -2 129 -1.83333 125 -1.5 c 4
 121 -1.16667 116 -1 110 -1 c 4
 104 -1 97.5 -1.16667 90.5 -1.5 c 4
 83.5 -1.83333 79 -2 77 -2 c 4
 68.3333 -2 64 4 64 16 c 4
 64 44 99.3333 89.3333 170 152 c 4
 179 160 l 4
 185 166 190 171.833 194 177.5 c 4
 198 183.167 200 188 200 192 c 4
 200 198 195.333 201 186 201 c 4
EndSplineSet
Fore
SplineSet
213 260 m 4
 229 260 241 254 288 254 c 4
 310 254 337 261 347 261 c 4
 352 261 354 257 354 252 c 4
 354 242 342 229 332 222 c 4
 318 213 299 207 278 207 c 4
 265 207 252 209 232 209 c 4
 216 209 216 193 216 178 c 4
 216 162 220 160 226 160 c 4
 240 160 245 166 282 166 c 4
 330 166 369 136 369 84 c 4
 369 38 334 -7 262 -7 c 4
 221 -7 182 9 182 53 c 4
 182 75 197 87 214 87 c 4
 233 87 241 73 241 58 c 4
 241 43 235 43 235 32 c 4
 235 18 248 16 261 16 c 4
 302 16 308 53 308 82 c 4
 308 120 292 140 258 140 c 4
 236 140 225 130 216 122 c 4
 210 117 204 112 199 112 c 4
 190 112 187 115 187 127 c 4
 187 140 193 170 193 231 c 4
 193 240 l 4
 193 256 200 260 213 260 c 4
115 262 m 4
 120 262 124 258 124 248 c 4
 124 52 l 4
 124 20 139 28 164 24 c 4
 174 22 174 18 174 12 c 4
 174 3 172 0 162 0 c 4
 25 0 l 4
 16 0 14 3 14 11 c 4
 14 16 15 22 24 23 c 4
 57 27 67 24 67 60 c 4
 67 153 l 4
 67 163 64 167 60 167 c 4
 57 167 52 164 47 158 c 4
 11 121 l 4
 8 117 4 115 1 115 c 4
 -3 115 -7 118 -7 122 c 4
 -7 124 -6 126 -5 129 c 4
 61 240 l 4
 72 258 72 262 83 262 c 4
 89 262 92 261 99 261 c 4
 106 261 107 262 115 262 c 4
EndSplineSet
EndChar

StartChar: dollar
Encoding: 36 36 94
Width: 147
Flags: HW
LayerCount: 3
Back
SplineSet
101 123 m 4
 89 123 78.5 119.333 69.5 112 c 4
 60.5 104.667 56 95 56 83 c 4
 56 65 62.5 50.6667 75.5 40 c 4
 88.5 29.3333 106.667 24 130 24 c 4
 177.333 24 201 37.3333 201 64 c 4
 201 77.3333 191.167 90.5 171.5 103.5 c 4
 151.833 116.5 128.333 123 101 123 c 4
141 272 m 4
 96.3333 272 74 259.333 74 234 c 4
 74 218 86 204.667 110 194 c 4
 134 183.333 157.333 178 180 178 c 4
 190 178 198 181.667 204 189 c 4
 210 196.333 213 205 213 215 c 4
 213 232.333 206.5 246.167 193.5 256.5 c 4
 180.5 266.833 163 272 141 272 c 4
137 296 m 4
 208.333 296 244 268.667 244 214 c 4
 244 202.667 239.833 191 231.5 179 c 4
 223.167 167 219 159 219 155 c 4
 219 149.667 224.667 141.167 236 129.5 c 4
 247.333 117.833 253 104 253 88 c 4
 253 60.6667 242.5 38.3333 221.5 21 c 4
 200.5 3.66667 172.667 -5 138 -5 c 4
 106.667 -5 80 1.66667 58 15 c 4
 36 28.3333 25 47.6667 25 73 c 4
 25 89.6667 27.8333 102.5 33.5 111.5 c 4
 39.1667 120.5 44.6667 127 50 131 c 4
 55.3333 135 58 139.333 58 144 c 4
 58 148 53.5 155.333 44.5 166 c 4
 35.5 176.667 31 192 31 212 c 4
 31 240 41.3333 261 62 275 c 4
 82.6667 289 107.667 296 137 296 c 4
EndSplineSet
Fore
SplineSet
98 210 m 0
 104 210 107 206 107 198 c 0
 107 50 l 0
 107 25 119 26 139 23 c 0
 147 21 147 18 147 12 c 0
 147 5 145 0 135 0 c 0
 35 0 l 0
 26 0 24 4 24 11 c 0
 24 17 25 21 32 22 c 0
 58 25 66 28 66 56 c 0
 66 118 l 0
 66 126 64 130 61 130 c 0
 59 130 54 126 50 122 c 0
 14 86 l 0
 12 84 9 83 7 83 c 0
 3 83 0 86 0 91 c 0
 0 93 1 96 2 98 c 0
 61 192 l 0
 70 206 72 210 84 210 c 0
 98 210 l 0
EndSplineSet
EndChar

StartChar: percent
Encoding: 37 37 95
Width: 149
Flags: HW
LayerCount: 3
Back
SplineSet
119 149 m 4xf4
 158.333 149 178 172 178 218 c 4
 178 229.333 173.833 241.167 165.5 253.5 c 4
 157.167 265.833 145.333 272 130 272 c 4
 102 272 88 255.667 88 223 c 4
 88 204 l 4
 88 167.333 98.333 149 119 149 c 4xf4
119 -3 m 4
 93 -3 72.833 2.66699 58.5 14 c 4
 44.167 25.333 37 40.667 37 60 c 4
 37 71.333 40.333 80.5 47 87.5 c 4
 53.667 94.5 62.333 98 73 98 c 4
 95 98 106 86.333 106 63 c 4xec
 106 57.667 105 52.667 103 48 c 4
 101 43.333 100 39 100 35 c 4
 100 25 106.333 20 119 20 c 4
 157.667 20 177 46.667 177 100 c 4
 177 108 175.5 114.167 172.5 118.5 c 4
 169.5 122.833 166.833 125.167 164.5 125.5 c 4
 162.167 125.833 159 126 155 126 c 4
 152.333 126 147.5 125 140.5 123 c 4
 133.5 121 122.667 120 108 120 c 4
 52.667 120 25 149.667 25 209 c 4
 25 233 35 253.667 55 271 c 4
 75 288.333 98 297 124 297 c 4
 164 297 194.333 282.667 215 254 c 4
 235.667 225.333 246 190.667 246 150 c 4
 246 106.667 234.833 70.333 212.5 41 c 4
 190.167 11.667 159 -3 119 -3 c 4
EndSplineSet
Fore
SplineSet
25 210 m 0
 38 210 47 205 85 205 c 0
 97 205 111 207 121 209 c 0
 141 212 143 200 132 189 c 0
 121 177 101 169 77 169 c 0
 67 169 61 171 45 171 c 0
 32 171 31 156 31 144 c 0
 31 131 37 130 42 130 c 0
 53 130 52 134 80 134 c 0
 118 134 149 111 149 69 c 0
 149 32 122 -4 64 -4 c 0
 31 -4 0 9 0 44 c 0
 0 62 12 71 26 71 c 0
 41 71 47 60 47 50 c 0
 47 38 44 40 44 31 c 0
 44 20 53 19 63 19 c 0
 96 19 108 44 108 67 c 0
 108 101 88 109 61 109 c 0
 36 109 28 93 14 93 c 0
 7 93 4 95 4 105 c 0
 4 115 9 137 9 186 c 0
 9 194 l 0
 9 207 15 210 25 210 c 0
EndSplineSet
EndChar

